<svg width="328" height="190" viewBox="0 0 328 190" fill="none" xmlns="http://www.w3.org/2000/svg">
<g clip-path="url(#clip0_0_1)">
<path d="M268.36 141.044C259.828 141.044 253.491 148.414 253.491 157.494C253.491 166.594 259.828 173.959 268.36 173.959C276.884 173.959 283.239 166.594 283.239 157.494C283.239 148.414 276.884 141.044 268.36 141.044M298.477 157.494C298.477 175.389 285.89 189.889 268.36 189.889C250.831 189.889 238.262 175.389 238.262 157.494C238.262 139.629 250.831 125.114 268.36 125.114C285.89 125.114 298.477 139.629 298.477 157.494Z" fill="#C4122E"/>
<path d="M72.9964 144.15C72.4178 143.82 67.794 140.81 60.9151 140.81C51.599 140.81 45.1528 147.915 45.1528 157.495C45.1528 166.79 51.3302 174.195 60.9151 174.195C67.6755 174.195 72.3768 171.25 72.9964 170.875V187.665C71.2106 188.22 66.3043 189.89 59.881 189.89C43.7133 189.89 29.5318 177.65 29.5318 157.495C29.5318 138.815 42.3785 125.115 59.881 125.115C66.6505 125.115 71.6434 126.92 72.9964 127.36V144.15Z" fill="#C4122E"/>
<path d="M161.692 140.443C161.478 140.368 155.424 138.533 150.449 138.533C144.686 138.533 141.552 140.654 141.552 143.659C141.552 147.469 145.78 148.799 148.144 149.619L152.112 151.004C161.446 154.264 165.701 161.279 165.701 168.899C165.701 184.614 153.109 189.893 142.103 189.893C134.454 189.893 127.289 188.348 126.582 188.183V173.789C127.849 174.139 133.88 176.113 140.163 176.113C147.319 176.113 150.608 173.818 150.608 170.273C150.608 167.103 147.761 165.274 144.194 164.044C143.324 163.724 142.017 163.273 141.124 162.953C133.115 160.173 126.437 155.009 126.437 144.654C126.437 132.954 134.418 125.098 147.675 125.098C154.677 125.098 161.264 126.963 161.692 127.088V140.443Z" fill="#C4122E"/>
<path d="M107.151 126.225H92.7693V188.78H107.151V126.225Z" fill="#C4122E"/>
<path d="M223.465 144.035C222.886 143.705 218.262 140.695 211.383 140.695C202.067 140.695 195.621 147.8 195.621 157.38C195.621 166.675 201.798 174.08 211.383 174.08C218.144 174.08 222.845 171.135 223.465 170.76V187.55C221.679 188.105 216.772 189.775 210.349 189.775C194.181 189.775 180 177.535 180 157.38C180 138.7 192.847 125 210.349 125C217.119 125 222.112 126.805 223.465 127.245V144.035Z" fill="#C4122E"/>
<path d="M14.2817 58.998C14.2817 54.688 11.0746 51.193 7.14311 51.193C3.21167 51.193 0 54.688 0 58.998V75.418C0 79.753 3.21167 83.253 7.14311 83.253C11.0746 83.253 14.2817 79.753 14.2817 75.418V58.998Z" fill="#15495D"/>
<path d="M53.5018 37.4455C53.5018 33.1355 50.2947 29.6305 46.3633 29.6305C42.4273 29.6305 39.2201 33.1355 39.2201 37.4455V75.4205C39.2201 79.7555 42.4273 83.2505 46.3633 83.2505C50.2947 83.2505 53.5018 79.7555 53.5018 75.4205V37.4455Z" fill="#15495D"/>
<path d="M92.7224 7.958C92.7224 3.648 89.5153 0.148003 85.5839 0.148003C81.6479 0.148003 78.4408 3.648 78.4408 7.958V91.023C78.4408 95.358 81.6479 98.858 85.5839 98.858C89.5153 98.858 92.7224 95.358 92.7224 91.023V7.958Z" fill="#15495D"/>
<path d="M131.943 37.4455C131.943 33.1355 128.736 29.6305 124.804 29.6305C120.868 29.6305 117.661 33.1355 117.661 37.4455V75.4205C117.661 79.7555 120.868 83.2505 124.804 83.2505C128.736 83.2505 131.943 79.7555 131.943 75.4205V37.4455Z" fill="#15495D"/>
<path d="M171.119 58.998C171.119 54.688 167.935 51.193 164.021 51.193C160.09 51.193 156.883 54.688 156.883 58.998V75.418C156.883 79.753 160.09 83.253 164.021 83.253C167.935 83.253 171.119 79.753 171.119 75.418V58.998Z" fill="#15495D"/>
<path d="M171.137 58.998C171.137 54.688 167.93 51.193 163.999 51.193C160.067 51.193 156.856 54.688 156.856 58.998V75.418C156.856 79.753 160.067 83.253 163.999 83.253C167.93 83.253 171.137 79.753 171.137 75.418V58.998Z" fill="#15495D"/>
<path d="M210.357 37.4455C210.357 33.1355 207.15 29.6305 203.219 29.6305C199.283 29.6305 196.076 33.1355 196.076 37.4455V75.4205C196.076 79.7555 199.283 83.2505 203.219 83.2505C207.15 83.2505 210.357 79.7555 210.357 75.4205V37.4455Z" fill="#15495D"/>
<path d="M249.578 7.958C249.578 3.648 246.371 0.148003 242.439 0.148003C238.503 0.148003 235.296 3.648 235.296 7.958V91.023C235.296 95.358 238.503 98.858 242.439 98.858C246.371 98.858 249.578 95.358 249.578 91.023V7.958Z" fill="#15495D"/>
<path d="M288.799 37.4455C288.799 33.1355 285.591 29.6305 281.66 29.6305C277.724 29.6305 274.517 33.1355 274.517 37.4455V75.4205C274.517 79.7555 277.724 83.2505 281.66 83.2505C285.591 83.2505 288.799 79.7555 288.799 75.4205V37.4455Z" fill="#15495D"/>
<path d="M327.974 58.998C327.974 54.688 324.79 51.193 320.877 51.193C316.945 51.193 313.738 54.688 313.738 58.998V75.418C313.738 79.753 316.945 83.253 320.877 83.253C324.79 83.253 327.974 79.753 327.974 75.418V58.998Z" fill="#15495D"/>
</g>
<defs>
<clipPath id="clip0_0_1">
<rect width="328" height="190" fill="white"/>
</clipPath>
</defs>
</svg>
