<svg width="256" height="256" viewBox="0 0 256 256" fill="none" xmlns="http://www.w3.org/2000/svg">
<path d="M100.502 71.69C74.497 66.954 53.935 71.911 45.74 86.105C39.625 96.697 41.373 110.74 49.98 125.751C50.15 126.063 50.3805 126.337 50.658 126.559C50.9355 126.78 51.2545 126.944 51.5962 127.041C51.9379 127.137 52.2954 127.165 52.6478 127.121C53.0002 127.078 53.3404 126.965 53.6485 126.788C53.9565 126.611 54.2261 126.375 54.4416 126.093C54.657 125.81 54.814 125.488 54.9032 125.144C54.9923 124.801 55.012 124.443 54.961 124.091C54.9099 123.74 54.7893 123.402 54.606 123.098C46.854 109.576 45.345 97.457 50.359 88.772C57.167 76.981 75.507 72.559 99.546 76.937C100.237 77.052 100.945 76.8907 101.518 76.4879C102.091 76.0851 102.482 75.4732 102.608 74.7843C102.733 74.0953 102.583 73.3846 102.189 72.8057C101.795 72.2268 101.189 71.826 100.502 71.69V71.69ZM63.503 143.997C74.018 155.552 87.679 166.391 103.259 175.385C140.982 197.165 181.142 202.986 200.934 189.491C201.23 189.297 201.484 189.045 201.682 188.751C201.88 188.458 202.017 188.127 202.086 187.78C202.155 187.433 202.154 187.075 202.083 186.728C202.012 186.381 201.873 186.052 201.673 185.759C201.474 185.466 201.218 185.216 200.921 185.024C200.624 184.831 200.291 184.7 199.942 184.637C199.594 184.574 199.236 184.581 198.891 184.658C198.545 184.735 198.218 184.88 197.929 185.085C180.215 197.163 142.067 191.633 105.926 170.767C90.812 162.041 77.583 151.545 67.448 140.407C67.2127 140.146 66.9283 139.935 66.611 139.784C66.2937 139.634 65.9499 139.548 65.5992 139.531C65.2485 139.513 64.8979 139.566 64.5674 139.684C64.237 139.803 63.9332 139.985 63.6735 140.222C63.4138 140.458 63.2034 140.743 63.0542 141.061C62.905 141.379 62.8201 141.723 62.8042 142.074C62.7884 142.425 62.842 142.775 62.9619 143.105C63.0818 143.435 63.2657 143.738 63.503 143.997V143.997Z" fill="#9FEAF9"/>
<path d="M194.62 140.753C211.648 120.637 217.593 100.405 209.415 86.241C203.398 75.818 190.677 70.315 173.77 70.095C173.069 70.096 172.397 70.3728 171.899 70.8654C171.401 71.358 171.116 72.0269 171.107 72.7275C171.098 73.4281 171.365 74.1042 171.85 74.6095C172.336 75.1148 173.001 75.4088 173.701 75.428C188.906 75.626 199.866 80.367 204.797 88.908C211.589 100.673 206.287 118.715 190.549 137.307C190.318 137.574 190.142 137.883 190.032 138.219C189.922 138.554 189.879 138.907 189.906 139.259C189.933 139.611 190.03 139.953 190.191 140.267C190.351 140.582 190.573 140.861 190.842 141.089C191.111 141.316 191.423 141.489 191.759 141.595C192.096 141.702 192.45 141.741 192.801 141.709C193.152 141.678 193.494 141.578 193.806 141.413C194.119 141.249 194.395 141.025 194.62 140.753ZM150.859 72.578C135.463 75.877 119.075 82.327 103.337 91.413C64.395 113.896 38.992 147.049 42.52 171.088C42.567 171.438 42.683 171.775 42.8613 172.079C43.0396 172.384 43.2765 172.65 43.5584 172.863C43.8403 173.075 44.1616 173.229 44.5036 173.317C44.8456 173.404 45.2015 173.423 45.5507 173.371C45.9 173.32 46.2355 173.2 46.538 173.018C46.8404 172.836 47.1038 172.596 47.3127 172.311C47.5216 172.027 47.672 171.704 47.7552 171.361C47.8383 171.018 47.8525 170.662 47.797 170.313C44.664 148.969 68.744 117.544 106.004 96.032C121.271 87.217 137.139 80.972 151.976 77.793C152.323 77.7246 152.653 77.5877 152.947 77.3904C153.241 77.1931 153.493 76.9392 153.687 76.6437C153.882 76.3482 154.016 76.0168 154.081 75.669C154.147 75.3212 154.142 74.9638 154.068 74.6178C153.994 74.2717 153.852 73.9439 153.65 73.6533C153.447 73.3628 153.19 73.1154 152.891 72.9255C152.592 72.7357 152.259 72.6072 151.91 72.5475C151.561 72.4879 151.204 72.4982 150.859 72.578V72.578Z" fill="#9FEAF9"/>
<path d="M87.77 187.753C96.674 212.613 111.239 227.92 127.617 227.92C139.562 227.92 150.613 219.777 159.231 205.442C159.418 205.142 159.542 204.807 159.599 204.458C159.655 204.109 159.641 203.753 159.558 203.409C159.475 203.065 159.325 202.742 159.115 202.457C158.906 202.172 158.643 201.931 158.34 201.749C158.037 201.567 157.7 201.447 157.351 201.396C157.001 201.345 156.644 201.364 156.302 201.452C155.96 201.54 155.638 201.695 155.356 201.908C155.074 202.121 154.838 202.388 154.66 202.694C146.915 215.577 137.402 222.586 127.617 222.586C114.012 222.586 101.021 208.934 92.792 185.956C92.6793 185.62 92.5006 185.309 92.2663 185.042C92.0321 184.776 91.747 184.559 91.4278 184.404C91.1086 184.249 90.7617 184.159 90.4074 184.14C90.0531 184.121 89.6985 184.173 89.3644 184.292C89.0304 184.412 88.7235 184.597 88.4618 184.836C88.2002 185.076 87.9889 185.365 87.8405 185.688C87.6922 186.01 87.6096 186.359 87.5976 186.713C87.5857 187.068 87.6446 187.421 87.771 187.753H87.77ZM169.092 182.89C173.702 168.162 176.177 151.172 176.177 133.467C176.177 89.288 160.714 51.204 138.69 41.425C138.047 41.1555 137.323 41.1488 136.675 41.4064C136.027 41.6639 135.505 42.1652 135.222 42.8027C134.939 43.4402 134.917 44.1633 135.161 44.8169C135.405 45.4704 135.895 46.0025 136.526 46.299C156.169 55.022 170.843 91.165 170.843 133.467C170.843 150.644 168.446 167.097 164.003 181.297C163.893 181.633 163.85 181.987 163.878 182.339C163.906 182.692 164.003 183.035 164.165 183.349C164.326 183.664 164.549 183.943 164.819 184.17C165.09 184.398 165.403 184.57 165.74 184.675C166.077 184.781 166.432 184.818 166.784 184.785C167.136 184.753 167.478 184.65 167.79 184.484C168.102 184.318 168.378 184.091 168.601 183.818C168.825 183.544 168.992 183.229 169.093 182.89H169.092ZM219.316 180.278C219.316 173.229 213.602 167.515 206.553 167.515C199.504 167.515 193.79 173.229 193.79 180.278C193.79 187.327 199.504 193.041 206.553 193.041C213.602 193.041 219.316 187.327 219.316 180.278ZM213.983 180.278C213.983 181.254 213.791 182.22 213.417 183.121C213.044 184.023 212.497 184.842 211.807 185.532C211.117 186.222 210.298 186.769 209.396 187.142C208.495 187.516 207.529 187.708 206.553 187.708C205.577 187.708 204.611 187.516 203.71 187.142C202.808 186.769 201.989 186.222 201.299 185.532C200.609 184.842 200.062 184.023 199.689 183.121C199.315 182.22 199.123 181.254 199.123 180.278C199.123 178.307 199.906 176.418 201.299 175.024C202.693 173.631 204.582 172.848 206.553 172.848C208.524 172.848 210.413 173.631 211.807 175.024C213.2 176.418 213.983 178.307 213.983 180.278ZM48.497 193.041C55.547 193.041 61.261 187.327 61.261 180.278C61.261 173.229 55.546 167.515 48.497 167.515C41.449 167.515 35.734 173.229 35.734 180.278C35.734 187.327 41.449 193.041 48.497 193.041ZM48.497 187.708C46.5264 187.708 44.6366 186.925 43.2432 185.532C41.8498 184.138 41.067 182.249 41.067 180.278C41.067 178.307 41.8498 176.418 43.2432 175.024C44.6366 173.631 46.5264 172.848 48.497 172.848C50.4676 172.848 52.3574 173.631 53.7508 175.024C55.1442 176.418 55.927 178.307 55.927 180.278C55.927 182.249 55.1442 184.138 53.7508 185.532C52.3574 186.925 50.4676 187.708 48.497 187.708V187.708Z" fill="#9FEAF9"/>
<path d="M127.617 54.444C134.666 54.444 140.38 48.73 140.38 41.681C140.38 34.632 134.666 28.918 127.617 28.918C120.568 28.918 114.854 34.632 114.854 41.681C114.854 48.73 120.568 54.444 127.617 54.444V54.444ZM127.617 49.111C125.646 49.111 123.757 48.3282 122.363 46.9348C120.97 45.5414 120.187 43.6516 120.187 41.681C120.187 39.7104 120.97 37.8206 122.363 36.4272C123.757 35.0338 125.646 34.251 127.617 34.251C129.588 34.251 131.477 35.0338 132.871 36.4272C134.264 37.8206 135.047 39.7104 135.047 41.681C135.047 43.6516 134.264 45.5414 132.871 46.9348C131.477 48.3282 129.588 49.111 127.617 49.111V49.111ZM129.566 142.493C124.581 143.57 119.67 140.402 118.591 135.417C118.074 133.023 118.529 130.522 119.856 128.464C121.183 126.406 123.273 124.959 125.667 124.441C130.652 123.364 135.563 126.532 136.643 131.517C137.72 136.502 134.552 141.414 129.566 142.493Z" fill="#9FEAF9"/>
</svg>
