<?xml version="1.0" encoding="UTF-8"?> <svg xmlns="http://www.w3.org/2000/svg" viewBox="0 0 26 26"><title>Asset 19</title><g id="Layer_2" data-name="Layer 2"><g id="Layer_1-2" data-name="Layer 1"><circle cx="13" cy="13" r="13" fill="#fff"></circle><path id="Path_248" data-name="Path 248" d="M24.41,10.16h-5a.36.36,0,0,0-.36.36v5a.36.36,0,0,0,.36.36h5a.36.36,0,0,0,.36-.36v-5A.36.36,0,0,0,24.41,10.16ZM22.2,14.52a.71.71,0,0,1-.78.78.94.94,0,0,1-.85-.54l.43-.25a.43.43,0,0,0,.38.25c.18,0,.28-.06.28-.33v-1.7h.54Zm1.17.78a.92.92,0,0,1-.9-.54l.4-.27c.11.18.24.36.49.36s.33-.11.33-.26-.12-.24-.36-.34l-.12-.06c-.38-.16-.63-.36-.63-.78a.7.7,0,0,1,.76-.68.76.76,0,0,1,.74.42l-.41.25a.35.35,0,0,0-.33-.22.22.22,0,0,0-.24.2v0c0,.16.1.22.32.32l.13,0c.44.19.69.38.69.81S23.86,15.3,23.37,15.3Z"></path><path d="M3.32,12.17H1.93V13.4H3.18v.27H1.93v1.25H3.32v.27H1.61V11.9H3.32Z"></path><path d="M4.65,14.16l-.64,1H3.66l.83-1.28-.82-1.28H4l.66,1,.63-1h.35L4.86,13.9l.82,1.29H5.31Z"></path><path d="M7.47,12.59A1.21,1.21,0,0,1,8.7,13.9a1.22,1.22,0,0,1-1.23,1.33,1.11,1.11,0,0,1-1-.6V16.4H6.13V12.63h.32v.56A1.11,1.11,0,0,1,7.47,12.59Zm-.06.28a1,1,0,0,0-1,1,1,1,0,0,0,1,1,1,1,0,0,0,.95-1A.94.94,0,0,0,7.41,12.87Z"></path><path d="M9.63,15.19H9.3V12.63h.33v.45a.89.89,0,0,1,.88-.5v.34h-.09c-.43,0-.79.19-.79.84Z"></path><path d="M12.11,15.23a1.22,1.22,0,0,1-1.26-1.32,1.21,1.21,0,0,1,1.26-1.32,1.16,1.16,0,0,1,1.22,1.19,2.17,2.17,0,0,1,0,.26H11.19a.89.89,0,0,0,.92.91.79.79,0,0,0,.83-.57h.35A1.13,1.13,0,0,1,12.11,15.23Zm-.92-1.46H13a.84.84,0,0,0-.89-.9A.88.88,0,0,0,11.19,13.77Z"></path><path d="M14.81,15.23c-.58,0-1-.29-1-.76h.34c0,.28.27.48.69.48s.57-.2.57-.44c0-.63-1.54-.26-1.54-1.23,0-.38.36-.69.9-.69a.83.83,0,0,1,.94.78h-.33a.55.55,0,0,0-.62-.5c-.34,0-.56.18-.56.41,0,.7,1.52.32,1.53,1.23C15.7,14.92,15.34,15.23,14.81,15.23Z"></path><path d="M17.21,15.23c-.59,0-1-.29-1-.76h.34c0,.28.27.48.69.48s.58-.2.58-.44c0-.63-1.55-.26-1.55-1.23,0-.38.37-.69.91-.69a.83.83,0,0,1,.94.78h-.33a.55.55,0,0,0-.62-.5c-.35,0-.56.18-.56.41,0,.7,1.52.32,1.53,1.23C18.1,14.92,17.74,15.23,17.21,15.23Z"></path></g></g></svg> 