<svg width="395" height="255" viewBox="0 0 395 255" fill="none" xmlns="http://www.w3.org/2000/svg">
<path d="M0.0222529 232.309H13.0574V168.102L33.4146 224.083C35.7206 230.812 39.033 233.304 45.4474 233.304C51.8614 233.304 54.9763 230.809 57.3588 224.083L77.6145 168.102V232.309H90.7507V168.102C90.7507 161.871 88.7437 158.873 84.5324 157.252C74.6052 153.513 67.9868 156.754 64.9795 165.104L45.0269 220.461L25.7735 165.104C22.8653 156.754 16.1454 153.513 6.11955 157.252C2.00694 158.873 0.00231801 161.868 0.00231801 168.102L0 232.309H0.0222529ZM101.601 180.071H114.737V215.356C114.639 217.348 115.239 221.839 122.379 221.959C126.087 222.084 150.656 221.959 150.853 221.959V179.82H163.99V237.546C163.99 251.758 149.831 254.871 143.233 255H101.925V244.158H143.338C151.762 243.034 150.759 237.8 150.759 236.054V231.812H122.981C110.045 231.686 101.72 224.58 101.624 216.476V180.065L101.601 180.071ZM383.37 139.175C375.351 138.923 369.13 139.923 363.916 142.668C362.414 143.422 360.005 143.422 359.807 145.786C360.61 146.778 360.706 148.402 361.41 149.777C362.612 152.272 364.72 155.634 366.624 157.377C368.732 159.376 370.838 161.368 373.04 163.115C376.951 166.105 381.362 167.851 385.172 170.844C387.379 172.59 389.584 174.834 391.79 176.706C392.914 177.704 393.595 179.327 395 179.948V179.571C394.299 178.453 394.096 176.832 393.397 175.58C392.393 174.337 391.39 173.211 390.386 171.967C387.48 167.105 383.868 162.863 379.958 159.376C376.748 156.631 369.732 152.893 368.429 148.282L368.231 148.03C370.433 147.779 373.04 146.781 375.149 146.032C378.56 144.915 381.666 145.16 385.172 144.04C386.778 143.537 388.381 142.916 389.988 142.293V141.175C388.184 138.932 386.88 135.939 384.976 133.821C379.863 128.335 374.245 122.973 368.429 118.485C365.32 115.992 361.309 114.369 358 112.253C356.794 111.505 354.791 111.13 354.09 109.884C352.281 107.146 351.281 103.527 349.977 100.283C347.071 93.4247 344.262 85.8216 341.756 78.5896C339.951 73.7274 338.846 68.8652 336.643 64.377C326.314 43.1815 315.081 30.3414 297.835 17.7469C294.127 15.1287 289.715 14.0024 285.025 12.6334L277.505 12.1301C275.898 11.2586 274.296 8.88883 272.891 7.76536C267.176 3.27724 252.435 -6.44722 248.221 6.39575C245.513 14.4999 252.233 22.4777 254.514 26.594C256.222 29.4612 258.424 32.7025 259.631 35.9438C260.305 38.0622 260.53 40.3091 261.234 42.5526C262.836 48.038 264.342 54.1494 266.447 59.2635C267.571 61.8816 268.751 64.6284 270.156 66.9952C270.958 68.3648 272.363 68.9908 272.661 71.2343C271.257 73.7297 271.16 77.4661 270.358 80.5875C266.746 94.6768 268.151 112.131 273.264 122.475C274.871 125.591 278.658 132.452 283.795 129.83C288.308 127.587 287.301 120.48 288.605 114.246C288.908 112.751 288.706 111.753 289.306 110.753V111.004L293.419 121.352C296.527 127.461 301.943 133.821 306.454 138.063C308.858 140.307 310.764 144.174 313.771 145.543V145.166H313.573C312.971 144.048 312.068 143.545 311.266 142.674C309.461 140.43 307.456 137.685 306.051 135.193C301.842 128.213 298.134 120.48 294.823 112.502C293.217 108.637 291.812 104.398 290.513 100.534C289.906 99.0363 289.906 96.7894 288.906 96.0458C287.4 98.7844 285.198 101.16 284.09 104.524C282.184 109.884 281.986 116.493 281.285 123.35C280.881 123.476 281.06 123.35 280.881 123.602C277.676 122.607 276.569 118.488 275.367 115.001C272.36 106.148 271.857 91.9352 274.464 81.711C275.165 79.0923 278.177 70.8631 276.974 68.37C276.367 66.0009 274.367 64.6312 273.262 62.759C271.958 60.3893 270.558 57.3993 269.654 54.7811C267.25 47.7953 266.047 40.0688 263.438 33.0853C262.231 29.844 260.128 26.4764 258.422 23.4865C256.516 20.1195 254.415 17.7498 252.909 13.762C252.408 12.393 251.706 10.146 252.509 8.64846C252.706 7.65065 253.111 7.27885 253.909 7.02753C255.213 5.65849 258.925 7.40221 260.229 8.14523C263.937 10.0175 267.045 11.7612 270.153 14.3771C271.558 15.6233 273.064 17.993 274.869 18.6191H276.977C280.186 19.4906 283.793 18.8704 286.798 19.9881C292.113 22.1117 296.924 25.225 301.24 28.5948C314.373 38.9424 325.206 53.6548 332.524 71.2372C333.726 74.1044 334.227 76.7225 335.333 79.7154C337.441 85.8268 340.048 92.0586 342.149 98.0466C344.257 103.907 346.262 109.895 349.269 114.757C350.775 117.376 356.789 118.745 359.495 120.117C361.502 121.235 364.608 122.241 366.417 123.61C369.824 126.228 373.233 129.221 376.441 132.088C378.043 133.58 383.059 136.699 383.358 139.186L383.37 139.175ZM281.112 30.8303C279.727 30.8153 278.346 31.0245 277.003 31.4534V31.7047H277.201C278.003 33.7003 279.408 35.0722 280.41 36.8188L282.719 42.8045L282.917 42.5526C284.321 41.3064 285.025 39.3113 285.025 36.3214C284.422 35.4492 284.323 34.5748 283.822 33.7032C283.22 32.4564 281.916 31.8309 281.112 30.836V30.8303Z" fill="#00678C"/>
<path d="M174 232.309H211.702C216.115 232.309 220.328 231.192 223.735 229.194C229.451 225.952 232.159 221.593 232.159 215.856V203.888C232.159 199.277 229.05 194.909 222.836 191.919C219.627 190.424 215.615 189.549 211.705 189.549H195.861C190.546 189.549 188.04 187.551 187.336 183.192C187.237 182.695 187.237 182.195 187.237 181.697V174.34C187.237 173.963 187.237 173.468 187.336 172.971C188.037 169.603 189.442 168.729 194.079 168.108H232.682V157.258H195.982C190.667 157.258 187.86 157.635 185.352 158.632C177.63 161.622 174.22 166.362 174.22 174.711V184.193C174.22 191.542 180.839 197.782 192.069 199.277C193.271 199.402 194.575 199.402 195.879 199.402H209.417C209.918 199.402 210.417 199.402 210.817 199.529C214.93 200.026 216.735 200.898 217.937 202.764C218.739 203.762 218.942 204.636 218.942 205.76V215.233C218.942 216.351 218.339 217.854 217.137 219.097C215.935 220.341 214.024 221.216 211.518 221.342C211.017 221.342 210.721 221.467 210.215 221.467H174V232.309ZM313.778 213.486C313.778 224.58 320.521 230.812 333.938 232.064C335.241 232.189 336.444 232.309 337.747 232.309H371.841V221.467H337.448C329.823 221.467 326.917 219.097 326.917 213.364V157.258H313.753V213.489L313.778 213.486ZM240.479 213.981V175.335C240.479 165.484 246.093 159.496 257.027 157.629C258.229 157.504 259.431 157.377 260.532 157.377H285.398C286.701 157.377 287.807 157.504 289.111 157.629C300.04 159.496 305.553 165.482 305.553 175.335V213.981C305.553 221.959 303.249 226.201 297.831 229.071L310.664 243.529H295.525L285.097 231.812L274.565 232.561H260.528C257.956 232.545 255.395 232.127 252.907 231.317C244.591 228.445 240.479 222.962 240.479 213.981ZM254.615 213.115C254.615 213.612 254.84 214.107 254.919 214.736C255.62 219.221 259.027 221.716 264.241 221.716H276.076L265.248 209.496H280.386L289.911 220.221C291.72 218.972 292.821 217.225 293.221 214.982C293.322 214.484 293.322 213.863 293.322 213.361V176.329C293.322 175.832 293.322 175.337 293.221 174.834C292.52 170.598 289.113 168.231 283.998 168.231H264.243C258.427 168.231 254.617 171.347 254.617 176.329L254.615 213.115Z" fill="#CE8B2C"/>
</svg>
