<svg width="590" height="405" viewBox="0 0 590 405" fill="none" xmlns="http://www.w3.org/2000/svg">
<path d="M449.318 404.905C447.321 404.905 445.457 404.388 443.725 403.482L426.015 393.256C423.351 391.831 424.683 391.313 425.482 391.055C429.077 389.89 429.743 389.63 433.472 387.56C433.871 387.3 434.405 387.43 434.803 387.689L448.387 395.585C448.919 395.844 449.585 395.844 449.984 395.585L503.117 365.682C503.649 365.424 503.917 364.905 503.917 364.259V304.583C503.917 303.935 503.649 303.418 503.117 303.158L449.984 273.385C449.451 273.126 448.785 273.126 448.387 273.385L395.253 303.158C394.721 303.417 394.454 304.064 394.454 304.582V364.258C394.454 364.776 394.721 365.423 395.253 365.682L409.769 373.837C417.625 377.721 422.552 373.19 422.552 368.659V309.76C422.552 308.984 423.218 308.206 424.15 308.206H430.941C431.741 308.206 432.539 308.854 432.539 309.76V368.659C432.539 378.885 426.813 384.841 416.826 384.841C413.763 384.841 411.367 384.841 404.575 381.604L390.593 373.837C387.13 371.896 385 368.271 385 364.388V304.712C385 300.829 387.13 297.203 390.593 295.262L443.725 265.359C447.055 263.547 451.583 263.547 454.911 265.359L508.044 295.262C511.506 297.203 513.638 300.829 513.638 304.712V364.388C513.638 368.271 511.506 371.896 508.044 373.837L454.911 403.74C453.18 404.518 451.183 404.905 449.319 404.905H449.318ZM465.697 363.87C442.394 363.87 437.6 353.514 437.6 344.712C437.6 343.935 438.266 343.158 439.198 343.158H446.123C446.921 343.158 447.587 343.676 447.587 344.453C448.653 351.313 451.715 354.679 465.831 354.679C477.016 354.679 481.812 352.219 481.812 346.394C481.812 343.028 480.479 340.57 463.034 338.887C448.519 337.462 439.464 334.356 439.464 323.094C439.464 312.608 448.52 306.394 463.7 306.394C480.745 306.394 489.135 312.091 490.201 324.516C490.201 324.906 490.067 325.294 489.801 325.682C489.534 325.941 489.135 326.2 488.735 326.2H481.811C481.145 326.2 480.479 325.682 480.346 325.035C478.748 317.916 474.62 315.585 463.7 315.585C451.449 315.585 449.984 319.728 449.984 322.834C449.984 326.588 451.715 327.753 468.227 329.824C484.607 331.896 492.331 334.873 492.331 346.005C492.198 357.397 482.61 363.87 465.697 363.87Z" fill="#539E43"/>
<path d="M126.507 189.282C126.507 186.952 125.175 184.75 123.045 183.586L66.5828 152C65.6495 151.482 64.5849 151.223 63.5203 151.093H62.9868C61.9222 151.093 60.8564 151.482 59.9243 152L3.46233 183.586C1.33078 184.75 0 186.951 0 189.282L0.133654 274.2C0.133654 275.365 0.799621 276.53 1.86425 277.048C2.93002 277.696 4.2608 277.696 5.19408 277.048L38.7516 258.408C40.882 257.243 42.214 255.042 42.214 252.712V212.971C42.214 210.641 43.5448 208.44 45.6763 207.276L59.9243 199.249C60.9901 198.602 62.1884 198.342 63.3866 198.342C64.5849 198.342 65.7832 198.602 66.7165 199.249L80.9645 207.276C83.096 208.44 84.4268 210.64 84.4268 212.971V252.712C84.4268 255.042 85.7587 257.243 87.8891 258.408L121.447 277.048C122.512 277.696 123.843 277.696 124.909 277.048C125.975 276.53 126.641 275.365 126.641 274.2L126.507 189.282ZM397.898 72.3889C396.833 71.8704 395.501 71.8704 394.568 72.3889C393.503 73.0363 392.837 74.0712 392.837 75.2361V159.379C392.837 160.155 392.439 160.932 391.639 161.45C390.841 161.838 390.041 161.838 389.242 161.45L375.127 153.554C374.092 152.981 372.922 152.68 371.731 152.68C370.54 152.68 369.37 152.981 368.335 153.554L311.873 185.269C309.742 186.434 308.41 188.635 308.41 190.964V254.265C308.41 256.594 309.742 258.796 311.873 259.961L368.335 291.676C369.37 292.249 370.54 292.55 371.731 292.55C372.922 292.55 374.092 292.249 375.127 291.676L431.589 259.961C433.719 258.796 435.051 256.595 435.051 254.265V96.4665C435.051 94.0069 433.719 91.8071 431.589 90.6411L397.899 72.3889H397.898ZM392.705 233.424C392.705 234.071 392.439 234.589 391.905 234.848L372.597 245.721C372.327 245.849 372.031 245.915 371.731 245.915C371.431 245.915 371.135 245.849 370.865 245.721L351.557 234.848C351.023 234.589 350.757 233.941 350.757 233.424V211.676C350.757 211.029 351.023 210.511 351.557 210.253L370.865 199.378C371.135 199.25 371.431 199.184 371.731 199.184C372.031 199.184 372.327 199.25 372.597 199.378L391.905 210.253C392.439 210.51 392.705 211.159 392.705 211.676V233.424ZM585.794 211.159C587.925 209.994 589.123 207.793 589.123 205.462V190.058C589.123 187.729 587.791 185.528 585.794 184.363L529.731 152.778C528.697 152.205 527.526 151.904 526.336 151.904C525.145 151.904 523.975 152.205 522.94 152.778L466.478 184.492C464.347 185.656 463.016 187.857 463.016 190.188V253.488C463.016 255.818 464.347 258.019 466.478 259.184L522.541 290.252C524.672 291.416 527.201 291.416 529.199 290.252L563.155 271.872C564.221 271.353 564.887 270.188 564.887 269.023C564.887 267.859 564.221 266.694 563.155 266.175L506.427 234.46C505.363 233.814 504.697 232.778 504.697 231.613V211.807C504.697 210.642 505.363 209.478 506.427 208.959L524.139 199.12C524.657 198.803 525.257 198.635 525.87 198.635C526.482 198.635 527.082 198.803 527.601 199.12L545.311 208.959C546.377 209.606 547.043 210.641 547.043 211.807V227.341C547.043 228.506 547.709 229.671 548.774 230.188C549.839 230.836 551.17 230.836 552.236 230.188L585.794 211.159V211.159Z" fill="#333333"/>
<path d="M525.471 208.182C525.668 208.055 525.899 207.988 526.136 207.988C526.373 207.988 526.604 208.055 526.801 208.182L537.588 214.266C537.988 214.523 538.254 214.912 538.254 215.431V227.599C538.254 228.116 537.988 228.505 537.588 228.763L526.801 234.848C526.604 234.974 526.373 235.041 526.136 235.041C525.899 235.041 525.668 234.974 525.471 234.848L514.684 228.763C514.284 228.505 514.018 228.116 514.018 227.599V215.431C514.018 214.912 514.284 214.523 514.684 214.266L525.471 208.182V208.182Z" fill="#539E43"/>
<mask id="mask0_0_1" style="mask-type:alpha" maskUnits="userSpaceOnUse" x="154" y="152" width="127" height="140">
<path d="M220.921 153.036C219.886 152.464 218.716 152.163 217.526 152.163C216.335 152.163 215.165 152.464 214.13 153.036L158.068 184.49C155.936 185.655 154.738 187.856 154.738 190.186V253.229C154.738 255.558 156.07 257.759 158.068 258.924L214.13 290.38C215.165 290.953 216.335 291.254 217.526 291.254C218.716 291.254 219.886 290.953 220.921 290.38L276.984 258.924C279.115 257.759 280.314 255.558 280.314 253.229V190.187C280.314 187.857 278.981 185.656 276.984 184.492L220.921 153.036Z" fill="white"/>
</mask>
<g mask="url(#mask0_0_1)">
<path d="M220.921 153.036C219.886 152.464 218.716 152.163 217.526 152.163C216.335 152.163 215.165 152.464 214.13 153.036L158.068 184.49C155.936 185.655 154.738 187.856 154.738 190.186V253.229C154.738 255.558 156.07 257.759 158.068 258.924L214.13 290.38C215.165 290.953 216.335 291.254 217.526 291.254C218.716 291.254 219.886 290.953 220.921 290.38L276.984 258.924C279.115 257.759 280.314 255.558 280.314 253.229V190.187C280.314 187.857 278.981 185.656 276.984 184.492L220.921 153.036Z" fill="url(#paint0_linear_0_1)"/>
<path d="M277.117 184.492L220.789 153.036C220.235 152.765 219.655 152.548 219.057 152.389L155.936 257.503C156.459 258.123 157.091 258.649 157.802 259.056L214.13 290.513C215.728 291.419 217.592 291.677 219.323 291.159L278.582 185.788C278.183 185.27 277.649 184.88 277.117 184.493V184.492Z" fill="url(#paint1_linear_0_1)"/>
<path fill-rule="evenodd" clip-rule="evenodd" d="M277.251 258.925C278.849 258.019 280.047 256.466 280.58 254.783L218.79 152.259C217.191 152 215.46 152.129 213.996 153.035L158.067 184.363L218.39 291.288C219.267 291.148 220.119 290.887 220.92 290.511L277.249 258.926L277.251 258.925Z" fill="url(#paint2_linear_0_1)"/>
<path fill-rule="evenodd" clip-rule="evenodd" d="M277.251 258.925L221.055 290.381C220.261 290.775 219.406 291.037 218.525 291.158L219.59 293.1L281.911 258.02V257.243L280.313 254.653C280.047 256.465 278.849 258.019 277.251 258.925V258.925Z" fill="url(#paint3_linear_0_1)"/>
<path fill-rule="evenodd" clip-rule="evenodd" d="M277.251 258.925L221.055 290.381C220.261 290.775 219.406 291.037 218.525 291.158L219.59 293.1L281.911 258.02V257.243L280.313 254.653C280.047 256.465 278.849 258.019 277.251 258.925V258.925Z" fill="url(#paint4_linear_0_1)"/>
</g>
<path d="M38.7131 297.733H7.24455V328.403H35.5436V335.136H7.24455V366.305H38.7131V373.037H0V291H38.7131V297.733Z" fill="black"/>
<path d="M68.8232 347.354L54.3341 372.289H46.4104L65.2009 340.372L46.6368 308.455H54.1077L69.0496 333.39L83.3123 308.455H91.2361L73.5775 340.871L92.1416 373.037H83.7651L68.8232 347.354Z" fill="black"/>
<path d="M132.666 308.205C136.5 308.121 140.307 308.924 143.841 310.563C147.376 312.202 150.558 314.64 153.183 317.719C155.808 320.798 157.817 324.45 159.079 328.438C160.342 332.426 160.83 336.662 160.512 340.871C160.861 345.111 160.398 349.385 159.152 353.416C157.907 357.447 155.907 361.145 153.283 364.271C150.658 367.397 147.467 369.881 143.915 371.563C140.364 373.245 136.531 374.087 132.666 374.035C128.004 374.1 123.417 372.735 119.419 370.092C115.42 367.45 112.169 363.635 110.027 359.073V403.209H102.329V309.203H109.574V323.167C111.75 318.528 115.073 314.661 119.159 312.014C123.245 309.367 127.927 308.046 132.666 308.205V308.205ZM131.307 315.187C125.303 315.187 119.545 317.814 115.299 322.491C111.053 327.167 108.668 333.509 108.668 340.123C108.668 346.736 111.053 353.078 115.299 357.754C119.545 362.431 125.303 365.058 131.307 365.058C137.113 364.738 142.585 361.97 146.589 357.328C150.593 352.686 152.822 346.525 152.815 340.123C153.002 336.9 152.583 333.669 151.583 330.633C150.584 327.598 149.025 324.822 147.006 322.481C144.987 320.14 142.55 318.283 139.848 317.028C137.147 315.773 134.239 315.146 131.307 315.187V315.187Z" fill="black"/>
<path d="M181.567 373.037H174.096V309.203H181.567V320.424C183.344 316.363 186.203 312.994 189.762 310.767C193.321 308.54 197.412 307.559 201.489 307.956V316.434H199.452C189.717 316.434 181.567 321.172 181.567 337.38V373.037Z" fill="black"/>
<path d="M237.712 374.035C233.811 374.19 229.924 373.433 226.308 371.814C222.692 370.194 219.428 367.749 216.733 364.638C214.037 361.528 211.971 357.824 210.67 353.77C209.37 349.716 208.864 345.405 209.186 341.12C208.826 336.826 209.306 332.497 210.593 328.425C211.881 324.353 213.945 320.632 216.649 317.513C219.352 314.394 222.631 311.949 226.264 310.344C229.897 308.738 233.801 308.009 237.712 308.205C241.331 307.997 244.95 308.617 248.341 310.025C251.733 311.432 254.823 313.598 257.417 316.385C260.011 319.172 262.054 322.521 263.416 326.22C264.778 329.919 265.43 333.888 265.332 337.878C265.449 340.038 265.449 342.202 265.332 344.362H216.884C216.821 347.382 217.318 350.384 218.345 353.185C219.372 355.986 220.908 358.527 222.858 360.651C224.808 362.775 227.131 364.439 229.685 365.54C232.239 366.64 234.971 367.155 237.712 367.053C241.856 367.461 246 366.265 249.429 363.671C252.859 361.076 255.36 357.246 256.502 352.84H264.426C262.951 359.271 259.463 364.922 254.576 368.799C249.689 372.676 243.717 374.53 237.712 374.035V374.035ZM216.884 337.629H257.861C258.06 334.647 257.677 331.653 256.738 328.847C255.799 326.042 254.326 323.49 252.417 321.364C250.508 319.238 248.208 317.587 245.672 316.522C243.135 315.456 240.421 315.001 237.712 315.187C234.982 315.05 232.255 315.532 229.702 316.605C227.148 317.677 224.822 319.317 222.869 321.422C220.915 323.527 219.376 326.052 218.346 328.84C217.317 331.628 216.819 334.62 216.884 337.629V337.629Z" fill="black"/>
<path d="M298.838 374.034C285.707 374.034 276.199 366.803 276.199 355.084H283.896C283.896 362.066 290.008 367.053 299.517 367.053C309.025 367.053 312.421 362.066 312.421 356.081C312.421 340.372 277.557 349.598 277.557 325.411C277.557 315.935 285.707 308.205 297.932 308.205C300.508 307.822 303.127 308.032 305.626 308.821C308.124 309.609 310.446 310.96 312.446 312.788C314.446 314.616 316.08 316.881 317.245 319.44C318.41 321.999 319.08 324.796 319.213 327.655H311.742C311.603 325.804 311.125 324.004 310.335 322.363C309.546 320.722 308.462 319.274 307.149 318.109C305.837 316.943 304.323 316.083 302.7 315.58C301.076 315.078 299.377 314.945 297.706 315.187C290.008 315.187 285.028 319.676 285.028 325.411C285.028 342.865 319.439 333.39 319.666 356.081C318.987 366.305 310.837 374.034 298.838 374.034Z" fill="black"/>
<path d="M353.172 374.034C339.815 374.034 330.533 366.803 330.533 355.084H338.23C338.23 362.066 344.343 367.053 353.851 367.053C363.359 367.053 366.982 362.066 366.982 356.081C366.982 340.372 331.891 349.598 331.891 325.411C331.891 315.935 340.267 308.205 352.493 308.205C355.068 307.822 357.688 308.032 360.186 308.821C362.684 309.609 365.007 310.96 367.007 312.788C369.007 314.616 370.641 316.881 371.805 319.44C372.97 321.999 373.64 324.796 373.774 327.655H366.303C366.164 325.804 365.685 324.004 364.896 322.363C364.106 320.722 363.022 319.274 361.71 318.109C360.397 316.943 358.883 316.083 357.26 315.58C355.637 315.078 353.938 314.945 352.266 315.187C344.343 315.187 339.588 319.676 339.588 325.411C339.588 342.865 374 333.39 374.226 356.081C373.321 366.305 365.171 374.034 353.172 374.034Z" fill="black"/>
<path d="M209 0H374V140H209V0Z" fill="#F7DF1E"/>
<path d="M252.385 116.994L265.011 110.51C267.447 114.175 269.663 117.276 274.979 117.276C280.074 117.276 283.286 115.585 283.286 109.007V64.2736H298.792V109.193C298.792 122.82 289.378 129.022 275.643 129.022C263.239 129.022 256.039 123.571 252.384 116.993" fill="black"/>
<path d="M307.214 115.584L319.84 109.382C323.163 113.987 327.483 117.37 335.125 117.37C341.549 117.37 345.646 114.645 345.646 110.886C345.646 106.375 341.438 104.777 334.349 102.146L330.474 100.736C319.287 96.6956 311.865 91.6209 311.865 80.9073C311.865 71.0398 320.726 63.5213 334.571 63.5213C344.429 63.5213 351.517 66.4349 356.612 74.0471L344.539 80.6251C341.881 76.5844 339.002 74.9871 334.572 74.9871C330.03 74.9871 327.15 77.4304 327.15 80.6251C327.15 84.5722 330.03 86.1702 336.675 88.6138L340.551 90.0233C353.732 94.8164 361.153 99.7027 361.153 110.698C361.153 122.539 350.188 129.023 335.457 129.023C321.059 129.023 311.755 123.197 307.215 115.584" fill="black"/>
<defs>
<linearGradient id="paint0_linear_0_1" x1="240.366" y1="176.486" x2="181.362" y2="271.86" gradientUnits="userSpaceOnUse">
<stop stop-color="#41873F"/>
<stop offset="0.3288" stop-color="#418B3D"/>
<stop offset="0.6352" stop-color="#419637"/>
<stop offset="0.9319" stop-color="#3FA92D"/>
<stop offset="1" stop-color="#3FAE2A"/>
</linearGradient>
<linearGradient id="paint1_linear_0_1" x1="209.014" y1="229.093" x2="360.896" y2="144.206" gradientUnits="userSpaceOnUse">
<stop offset="0.1376" stop-color="#41873F"/>
<stop offset="0.4032" stop-color="#54A044"/>
<stop offset="0.7136" stop-color="#66B848"/>
<stop offset="0.9081" stop-color="#6CC04A"/>
</linearGradient>
<linearGradient id="paint2_linear_0_1" x1="152.69" y1="221.71" x2="282.417" y2="221.71" gradientUnits="userSpaceOnUse">
<stop offset="0.09192" stop-color="#6CC04A"/>
<stop offset="0.2864" stop-color="#66B848"/>
<stop offset="0.5968" stop-color="#54A044"/>
<stop offset="0.8624" stop-color="#41873F"/>
</linearGradient>
<linearGradient id="paint3_linear_0_1" x1="152.691" y1="273.982" x2="282.416" y2="273.982" gradientUnits="userSpaceOnUse">
<stop offset="0.09192" stop-color="#6CC04A"/>
<stop offset="0.2864" stop-color="#66B848"/>
<stop offset="0.5968" stop-color="#54A044"/>
<stop offset="0.8624" stop-color="#41873F"/>
</linearGradient>
<linearGradient id="paint4_linear_0_1" x1="301.316" y1="173.505" x2="270.199" y2="341.233" gradientUnits="userSpaceOnUse">
<stop stop-color="#41873F"/>
<stop offset="0.3288" stop-color="#418B3D"/>
<stop offset="0.6352" stop-color="#419637"/>
<stop offset="0.9319" stop-color="#3FA92D"/>
<stop offset="1" stop-color="#3FAE2A"/>
</linearGradient>
</defs>
</svg>
