<svg width="590" height="333" viewBox="0 0 590 333" fill="none" xmlns="http://www.w3.org/2000/svg">
<path d="M449.318 332.905C447.321 332.905 445.457 332.388 443.725 331.482L426.015 321.256C423.351 319.831 424.683 319.313 425.482 319.055C429.077 317.89 429.743 317.63 433.472 315.56C433.871 315.3 434.405 315.43 434.803 315.689L448.387 323.585C448.919 323.844 449.585 323.844 449.984 323.585L503.117 293.682C503.649 293.424 503.917 292.905 503.917 292.259V232.583C503.917 231.935 503.649 231.418 503.117 231.158L449.984 201.385C449.451 201.126 448.785 201.126 448.387 201.385L395.253 231.158C394.721 231.417 394.454 232.064 394.454 232.582V292.258C394.454 292.776 394.721 293.423 395.253 293.682L409.769 301.837C417.625 305.721 422.552 301.19 422.552 296.659V237.76C422.552 236.984 423.218 236.206 424.15 236.206H430.941C431.741 236.206 432.539 236.854 432.539 237.76V296.659C432.539 306.885 426.813 312.841 416.826 312.841C413.763 312.841 411.367 312.841 404.575 309.604L390.593 301.837C387.13 299.896 385 296.271 385 292.388V232.712C385 228.829 387.13 225.203 390.593 223.262L443.725 193.359C447.055 191.547 451.583 191.547 454.911 193.359L508.044 223.262C511.506 225.203 513.638 228.829 513.638 232.712V292.388C513.638 296.271 511.506 299.896 508.044 301.837L454.911 331.74C453.18 332.518 451.183 332.905 449.319 332.905H449.318ZM465.697 291.87C442.394 291.87 437.6 281.514 437.6 272.712C437.6 271.935 438.266 271.158 439.198 271.158H446.123C446.921 271.158 447.587 271.676 447.587 272.453C448.653 279.313 451.715 282.679 465.831 282.679C477.016 282.679 481.812 280.219 481.812 274.394C481.812 271.028 480.479 268.57 463.034 266.887C448.519 265.462 439.464 262.356 439.464 251.094C439.464 240.608 448.52 234.394 463.7 234.394C480.745 234.394 489.135 240.091 490.201 252.516C490.201 252.906 490.067 253.294 489.801 253.682C489.534 253.941 489.135 254.2 488.735 254.2H481.811C481.145 254.2 480.479 253.682 480.346 253.035C478.748 245.916 474.62 243.585 463.7 243.585C451.449 243.585 449.984 247.728 449.984 250.834C449.984 254.588 451.715 255.753 468.227 257.824C484.607 259.896 492.331 262.873 492.331 274.005C492.198 285.397 482.61 291.87 465.697 291.87Z" fill="#539E43"/>
<path d="M126.507 117.282C126.507 114.952 125.175 112.75 123.045 111.586L66.5828 80.0004C65.6495 79.4818 64.5849 79.223 63.5203 79.0931H62.9868C61.9222 79.0931 60.8564 79.4818 59.9243 80.0004L3.46233 111.586C1.33078 112.75 0 114.951 0 117.282L0.133654 202.2C0.133654 203.365 0.799621 204.53 1.86425 205.048C2.93002 205.696 4.2608 205.696 5.19408 205.048L38.7516 186.408C40.882 185.243 42.214 183.042 42.214 180.712V140.971C42.214 138.641 43.5448 136.44 45.6763 135.276L59.9243 127.249C60.9901 126.602 62.1884 126.342 63.3866 126.342C64.5849 126.342 65.7832 126.602 66.7165 127.249L80.9645 135.276C83.096 136.44 84.4268 138.64 84.4268 140.971V180.712C84.4268 183.042 85.7587 185.243 87.8891 186.408L121.447 205.048C122.512 205.696 123.843 205.696 124.909 205.048C125.975 204.53 126.641 203.365 126.641 202.2L126.507 117.282ZM397.898 0.388934C396.833 -0.129645 395.501 -0.129645 394.568 0.388934C393.503 1.03632 392.837 2.07124 392.837 3.23608V87.3792C392.837 88.1554 392.439 88.9316 391.639 89.4501C390.841 89.8377 390.041 89.8377 389.242 89.4501L375.127 81.5539C374.092 80.9811 372.922 80.6799 371.731 80.6799C370.54 80.6799 369.37 80.9811 368.335 81.5539L311.873 113.269C309.742 114.434 308.41 116.635 308.41 118.964V182.265C308.41 184.594 309.742 186.796 311.873 187.961L368.335 219.676C369.37 220.249 370.54 220.55 371.731 220.55C372.922 220.55 374.092 220.249 375.127 219.676L431.589 187.961C433.719 186.796 435.051 184.595 435.051 182.265V24.4665C435.051 22.0069 433.719 19.8071 431.589 18.6411L397.899 0.388934H397.898ZM392.705 161.424C392.705 162.071 392.439 162.589 391.905 162.848L372.597 173.721C372.327 173.849 372.031 173.915 371.731 173.915C371.431 173.915 371.135 173.849 370.865 173.721L351.557 162.848C351.023 162.589 350.757 161.941 350.757 161.424V139.676C350.757 139.029 351.023 138.511 351.557 138.253L370.865 127.378C371.135 127.25 371.431 127.184 371.731 127.184C372.031 127.184 372.327 127.25 372.597 127.378L391.905 138.253C392.439 138.51 392.705 139.159 392.705 139.676V161.424ZM585.794 139.159C587.925 137.994 589.123 135.793 589.123 133.462V118.058C589.123 115.729 587.791 113.528 585.794 112.363L529.731 80.7777C528.697 80.2051 527.526 79.904 526.336 79.904C525.145 79.904 523.975 80.2051 522.94 80.7777L466.478 112.492C464.347 113.656 463.016 115.857 463.016 118.188V181.488C463.016 183.818 464.347 186.019 466.478 187.184L522.541 218.252C524.672 219.416 527.201 219.416 529.199 218.252L563.155 199.872C564.221 199.353 564.887 198.188 564.887 197.023C564.887 195.859 564.221 194.694 563.155 194.175L506.427 162.46C505.363 161.814 504.697 160.778 504.697 159.613V139.807C504.697 138.642 505.363 137.478 506.427 136.959L524.139 127.12C524.657 126.803 525.257 126.635 525.87 126.635C526.482 126.635 527.082 126.803 527.601 127.12L545.311 136.959C546.377 137.606 547.043 138.641 547.043 139.807V155.341C547.043 156.506 547.709 157.671 548.774 158.188C549.839 158.836 551.17 158.836 552.236 158.188L585.794 139.159V139.159Z" fill="#333333"/>
<path d="M525.471 136.182C525.668 136.055 525.899 135.988 526.136 135.988C526.373 135.988 526.604 136.055 526.801 136.182L537.588 142.266C537.988 142.523 538.254 142.912 538.254 143.431V155.599C538.254 156.116 537.988 156.505 537.588 156.763L526.801 162.848C526.604 162.974 526.373 163.041 526.136 163.041C525.899 163.041 525.668 162.974 525.471 162.848L514.684 156.763C514.284 156.505 514.018 156.116 514.018 155.599V143.431C514.018 142.912 514.284 142.523 514.684 142.266L525.471 136.182V136.182Z" fill="#539E43"/>
<mask id="mask0_0_1" style="mask-type:alpha" maskUnits="userSpaceOnUse" x="154" y="80" width="127" height="140">
<path d="M220.921 81.0364C219.886 80.4638 218.716 80.1627 217.526 80.1627C216.335 80.1627 215.165 80.4638 214.13 81.0364L158.068 112.49C155.936 113.655 154.738 115.856 154.738 118.186V181.229C154.738 183.558 156.07 185.759 158.068 186.924L214.13 218.38C215.165 218.953 216.335 219.254 217.526 219.254C218.716 219.254 219.886 218.953 220.921 218.38L276.984 186.924C279.115 185.759 280.314 183.558 280.314 181.229V118.187C280.314 115.857 278.981 113.656 276.984 112.492L220.921 81.0364Z" fill="white"/>
</mask>
<g mask="url(#mask0_0_1)">
<path d="M220.921 81.0364C219.886 80.4638 218.716 80.1627 217.526 80.1627C216.335 80.1627 215.165 80.4638 214.13 81.0364L158.068 112.49C155.936 113.655 154.738 115.856 154.738 118.186V181.229C154.738 183.558 156.07 185.759 158.068 186.924L214.13 218.38C215.165 218.953 216.335 219.254 217.526 219.254C218.716 219.254 219.886 218.953 220.921 218.38L276.984 186.924C279.115 185.759 280.314 183.558 280.314 181.229V118.187C280.314 115.857 278.981 113.656 276.984 112.492L220.921 81.0364Z" fill="url(#paint0_linear_0_1)"/>
<path d="M277.117 112.492L220.789 81.0364C220.235 80.7647 219.655 80.5478 219.057 80.389L155.936 185.503C156.459 186.123 157.091 186.649 157.802 187.056L214.13 218.513C215.728 219.419 217.592 219.677 219.323 219.159L278.582 113.788C278.183 113.27 277.649 112.88 277.117 112.493V112.492Z" fill="url(#paint1_linear_0_1)"/>
<path fill-rule="evenodd" clip-rule="evenodd" d="M277.251 186.925C278.849 186.019 280.047 184.466 280.58 182.783L218.79 80.2591C217.191 80.0004 215.46 80.1292 213.996 81.0353L158.067 112.363L218.39 219.288C219.267 219.148 220.119 218.887 220.92 218.511L277.249 186.926L277.251 186.925Z" fill="url(#paint2_linear_0_1)"/>
<path fill-rule="evenodd" clip-rule="evenodd" d="M277.251 186.925L221.055 218.381C220.261 218.775 219.406 219.037 218.525 219.158L219.59 221.1L281.911 186.02V185.243L280.313 182.653C280.047 184.465 278.849 186.019 277.251 186.925V186.925Z" fill="url(#paint3_linear_0_1)"/>
<path fill-rule="evenodd" clip-rule="evenodd" d="M277.251 186.925L221.055 218.381C220.261 218.775 219.406 219.037 218.525 219.158L219.59 221.1L281.911 186.02V185.243L280.313 182.653C280.047 184.465 278.849 186.019 277.251 186.925V186.925Z" fill="url(#paint4_linear_0_1)"/>
</g>
<path d="M38.7131 225.733H7.24455V256.403H35.5436V263.136H7.24455V294.305H38.7131V301.037H0V219H38.7131V225.733Z" fill="black"/>
<path d="M68.8232 275.354L54.3341 300.289H46.4104L65.2009 268.372L46.6368 236.455H54.1077L69.0496 261.39L83.3123 236.455H91.2361L73.5775 268.871L92.1416 301.037H83.7651L68.8232 275.354Z" fill="black"/>
<path d="M132.666 236.205C136.5 236.121 140.307 236.924 143.841 238.563C147.376 240.202 150.558 242.64 153.183 245.719C155.808 248.798 157.817 252.45 159.079 256.438C160.342 260.426 160.83 264.662 160.512 268.871C160.861 273.111 160.398 277.385 159.152 281.416C157.907 285.447 155.907 289.145 153.283 292.271C150.658 295.397 147.467 297.881 143.915 299.563C140.364 301.245 136.531 302.087 132.666 302.035C128.004 302.1 123.417 300.735 119.419 298.092C115.42 295.45 112.169 291.635 110.027 287.073V331.209H102.329V237.203H109.574V251.167C111.75 246.528 115.073 242.661 119.159 240.014C123.245 237.367 127.927 236.046 132.666 236.205V236.205ZM131.307 243.187C125.303 243.187 119.545 245.814 115.299 250.491C111.053 255.167 108.668 261.509 108.668 268.123C108.668 274.736 111.053 281.078 115.299 285.754C119.545 290.431 125.303 293.058 131.307 293.058C137.113 292.738 142.585 289.97 146.589 285.328C150.593 280.686 152.822 274.525 152.815 268.123C153.002 264.9 152.583 261.669 151.583 258.633C150.584 255.598 149.025 252.822 147.006 250.481C144.987 248.14 142.55 246.283 139.848 245.028C137.147 243.773 134.239 243.146 131.307 243.187V243.187Z" fill="black"/>
<path d="M181.567 301.037H174.096V237.203H181.567V248.424C183.344 244.363 186.203 240.994 189.762 238.767C193.321 236.54 197.412 235.559 201.489 235.956V244.434H199.452C189.717 244.434 181.567 249.172 181.567 265.38V301.037Z" fill="black"/>
<path d="M237.712 302.035C233.811 302.19 229.924 301.433 226.308 299.814C222.692 298.194 219.428 295.749 216.733 292.638C214.037 289.528 211.971 285.824 210.67 281.77C209.37 277.716 208.864 273.405 209.186 269.12C208.826 264.826 209.306 260.497 210.593 256.425C211.881 252.353 213.945 248.632 216.649 245.513C219.352 242.394 222.631 239.949 226.264 238.344C229.897 236.738 233.801 236.009 237.712 236.205C241.331 235.997 244.95 236.617 248.341 238.025C251.733 239.432 254.823 241.598 257.417 244.385C260.011 247.172 262.054 250.521 263.416 254.22C264.778 257.919 265.43 261.888 265.332 265.878C265.449 268.038 265.449 270.202 265.332 272.362H216.884C216.821 275.382 217.318 278.384 218.345 281.185C219.372 283.986 220.908 286.527 222.858 288.651C224.808 290.775 227.131 292.439 229.685 293.54C232.239 294.64 234.971 295.155 237.712 295.053C241.856 295.461 246 294.265 249.429 291.671C252.859 289.076 255.36 285.246 256.502 280.84H264.426C262.951 287.271 259.463 292.922 254.576 296.799C249.689 300.676 243.717 302.53 237.712 302.035V302.035ZM216.884 265.629H257.861C258.06 262.647 257.677 259.653 256.738 256.847C255.799 254.042 254.326 251.49 252.417 249.364C250.508 247.238 248.208 245.587 245.672 244.522C243.135 243.456 240.421 243.001 237.712 243.187C234.982 243.05 232.255 243.532 229.702 244.605C227.148 245.677 224.822 247.317 222.869 249.422C220.915 251.527 219.376 254.052 218.346 256.84C217.317 259.628 216.819 262.62 216.884 265.629V265.629Z" fill="black"/>
<path d="M298.838 302.034C285.707 302.034 276.199 294.803 276.199 283.084H283.896C283.896 290.066 290.008 295.053 299.517 295.053C309.025 295.053 312.421 290.066 312.421 284.081C312.421 268.372 277.557 277.598 277.557 253.411C277.557 243.935 285.707 236.205 297.932 236.205C300.508 235.822 303.127 236.032 305.626 236.821C308.124 237.609 310.446 238.96 312.446 240.788C314.446 242.616 316.08 244.881 317.245 247.44C318.41 249.999 319.08 252.796 319.213 255.655H311.742C311.603 253.804 311.125 252.004 310.335 250.363C309.546 248.722 308.462 247.274 307.149 246.109C305.837 244.943 304.323 244.083 302.7 243.58C301.076 243.078 299.377 242.945 297.706 243.187C290.008 243.187 285.028 247.676 285.028 253.411C285.028 270.865 319.439 261.39 319.666 284.081C318.987 294.305 310.837 302.034 298.838 302.034Z" fill="black"/>
<path d="M353.172 302.034C339.815 302.034 330.533 294.803 330.533 283.084H338.23C338.23 290.066 344.343 295.053 353.851 295.053C363.359 295.053 366.982 290.066 366.982 284.081C366.982 268.372 331.891 277.598 331.891 253.411C331.891 243.935 340.267 236.205 352.493 236.205C355.068 235.822 357.688 236.032 360.186 236.821C362.684 237.609 365.007 238.96 367.007 240.788C369.007 242.616 370.641 244.881 371.805 247.44C372.97 249.999 373.64 252.796 373.774 255.655H366.303C366.164 253.804 365.685 252.004 364.896 250.363C364.106 248.722 363.022 247.274 361.71 246.109C360.397 244.943 358.883 244.083 357.26 243.58C355.637 243.078 353.938 242.945 352.266 243.187C344.343 243.187 339.588 247.676 339.588 253.411C339.588 270.865 374 261.39 374.226 284.081C373.321 294.305 365.171 302.034 353.172 302.034Z" fill="black"/>
<defs>
<linearGradient id="paint0_linear_0_1" x1="240.366" y1="104.486" x2="181.362" y2="199.86" gradientUnits="userSpaceOnUse">
<stop stop-color="#41873F"/>
<stop offset="0.3288" stop-color="#418B3D"/>
<stop offset="0.6352" stop-color="#419637"/>
<stop offset="0.9319" stop-color="#3FA92D"/>
<stop offset="1" stop-color="#3FAE2A"/>
</linearGradient>
<linearGradient id="paint1_linear_0_1" x1="209.014" y1="157.093" x2="360.896" y2="72.2062" gradientUnits="userSpaceOnUse">
<stop offset="0.1376" stop-color="#41873F"/>
<stop offset="0.4032" stop-color="#54A044"/>
<stop offset="0.7136" stop-color="#66B848"/>
<stop offset="0.9081" stop-color="#6CC04A"/>
</linearGradient>
<linearGradient id="paint2_linear_0_1" x1="152.69" y1="149.71" x2="282.417" y2="149.71" gradientUnits="userSpaceOnUse">
<stop offset="0.09192" stop-color="#6CC04A"/>
<stop offset="0.2864" stop-color="#66B848"/>
<stop offset="0.5968" stop-color="#54A044"/>
<stop offset="0.8624" stop-color="#41873F"/>
</linearGradient>
<linearGradient id="paint3_linear_0_1" x1="152.691" y1="201.982" x2="282.416" y2="201.982" gradientUnits="userSpaceOnUse">
<stop offset="0.09192" stop-color="#6CC04A"/>
<stop offset="0.2864" stop-color="#66B848"/>
<stop offset="0.5968" stop-color="#54A044"/>
<stop offset="0.8624" stop-color="#41873F"/>
</linearGradient>
<linearGradient id="paint4_linear_0_1" x1="301.316" y1="101.505" x2="270.199" y2="269.233" gradientUnits="userSpaceOnUse">
<stop stop-color="#41873F"/>
<stop offset="0.3288" stop-color="#418B3D"/>
<stop offset="0.6352" stop-color="#419637"/>
<stop offset="0.9319" stop-color="#3FA92D"/>
<stop offset="1" stop-color="#3FAE2A"/>
</linearGradient>
</defs>
</svg>
