<svg width="282" height="34" viewBox="0 0 282 34" fill="none" xmlns="http://www.w3.org/2000/svg">
<g filter="url(#filter0_d_2_2)">
<path d="M12.5879 0.482422C13.2793 0.740234 13.7246 0.869141 13.9238 0.869141H14.1172C14.3281 0.869141 14.7734 0.804687 15.4531 0.675781C16.0156 0.804687 16.3965 0.869141 16.5957 0.869141V0.78125C16.8066 0.898438 17.4453 1.02148 18.5117 1.15039C19.7305 3.10742 20.5273 4.28516 20.9023 4.68359V4.87695L20.7969 5.84375C20.8672 6.5 20.9023 7.03906 20.9023 7.46094C20.7734 7.77734 20.6152 8.38086 20.4277 9.27148C19.7832 10.0801 19.4609 10.6191 19.4609 10.8887C19.4609 11.0879 19.6191 11.375 19.9355 11.75L19.8477 11.9434H19.9355C19.9355 11.8848 19.9707 11.8555 20.041 11.8555C20.2168 12.1719 20.4043 12.3301 20.6035 12.3301L20.5156 12.5234L20.709 12.418C21.2832 12.8516 21.7578 13.5254 22.1328 14.4395C22.3203 14.4395 22.4785 14.5625 22.6074 14.8086C22.6074 14.8789 22.5781 14.9141 22.5195 14.9141L22.6074 15.1074C22.291 15.4004 22.1328 15.7168 22.1328 16.0566C22.1328 16.5488 22.1035 17.4395 22.0449 18.7285C21.541 19.1387 21.125 19.8066 20.7969 20.7324C20.1641 21.0488 19.8477 21.4297 19.8477 21.875V22.0684C20.0352 22.3027 20.1289 22.5254 20.1289 22.7363V23.123C20.1289 23.5098 19.9707 23.7031 19.6543 23.7031C18.9746 23.1289 18.4004 22.8418 17.9316 22.8418H17.2637C16.4434 23.0293 15.998 23.123 15.9277 23.123C15.8574 23.123 15.5059 23.0586 14.873 22.9297H14.3105L14.1172 22.8418C14.1172 22.9473 13.7656 23.1055 13.0625 23.3164C13.0039 23.3164 12.8164 23.1875 12.5 22.9297C12.3125 22.9297 11.6738 22.9648 10.584 23.0352L9.63477 22.7363H9.05469L7.91211 23.2109C7.4082 23.0234 6.79883 22.8652 6.08398 22.7363C6.08398 22.6074 5.51562 22.5137 4.37891 22.4551C4.32031 22.1973 4.25586 22.0684 4.18555 22.0684C4.2793 21.4941 4.4375 21.207 4.66016 21.207C5.09375 21.2773 5.44531 21.3125 5.71484 21.3125C6.41797 21.1133 6.76953 20.9844 6.76953 20.9258C7.01562 21.0547 7.36133 21.1191 7.80664 21.1191H8C8.42188 21.1191 8.73828 20.7676 8.94922 20.0645H9.05469C9.05469 20.0059 9.01953 19.9766 8.94922 19.9766C9.59375 19.0391 9.91602 18.4941 9.91602 18.3418C9.91602 18.248 9.69336 18.0605 9.24805 17.7793C8.99023 17.3105 8.86133 17.0527 8.86133 17.0059C9.17773 16.1621 9.33594 15.5879 9.33594 15.2832C9.33594 14.9199 9.11328 14.6973 8.66797 14.6152C8.35156 14.1934 8.19336 13.625 8.19336 12.9102C8.19336 12.7695 8.28711 12.4473 8.47461 11.9434C8.28711 10.748 8.19336 9.95117 8.19336 9.55273C8.19336 8.47461 8.38672 7.49023 8.77344 6.59961H8.66797C8.53906 6.59961 8.47461 6.57031 8.47461 6.51172L9.24805 5.07031C8.54492 3.99219 8.19336 3.29492 8.19336 2.97852C7.93555 2.84961 7.80664 2.7207 7.80664 2.5918H7.71875C7.71875 2.66211 7.68359 2.75586 7.61328 2.87305C7.00391 2.61523 6.55859 2.48633 6.27734 2.48633H6.18945C5.56836 2.61523 5.2168 2.67969 5.13477 2.67969V2.48633L5.24023 2.29297H5.04688V1.81836C5.04688 1.75977 5.01172 1.73047 4.94141 1.73047C4.94141 1.37891 5.58008 1.18555 6.85742 1.15039C6.88086 1.06836 7.16797 0.945312 7.71875 0.78125V0.675781H7.80664C8.07617 0.933594 8.33398 1.0625 8.58008 1.0625H9.14258C9.77539 0.875 10.127 0.78125 10.1973 0.78125C11.2285 0.839844 11.8027 0.869141 11.9199 0.869141L12.5879 0.482422ZM13.9238 3.1543C11.7559 3.1543 10.6719 3.31836 10.6719 3.64648C10.4844 4.24414 10.3906 4.625 10.3906 4.78906V4.98242C10.3906 5.73242 10.6133 6.24219 11.0586 6.51172C11.375 6.51172 11.5684 6.98633 11.6387 7.93555C11.7207 8.06445 11.8145 8.12891 11.9199 8.12891V8.41016C11.9199 9.26562 12.6816 9.93359 14.2051 10.4141H15.0664C16.6602 9.94531 17.457 9.59961 17.457 9.37695C17.4805 9.24805 17.7969 8.96094 18.4062 8.51562C18.8516 8.15234 19.0742 7.29102 19.0742 5.93164C19.0156 5.80273 18.9863 5.70898 18.9863 5.65039C19.0449 5.65039 19.0742 5.61523 19.0742 5.54492C18.8398 5.54492 18.6172 5.32227 18.4062 4.87695C18.2773 4.77148 17.7676 4.67773 16.877 4.5957C15.4824 4.19727 14.7852 3.78125 14.7852 3.34766C14.8438 3.34766 14.873 3.31836 14.873 3.25977H14.7852C14.7852 3.31836 14.75 3.34766 14.6797 3.34766C14.6797 3.30078 14.5859 3.20703 14.3984 3.06641L13.9238 3.1543ZM10.3027 15.7754C10.6191 16.877 10.7773 17.5098 10.7773 17.6738C10.625 17.6738 10.5254 17.832 10.4785 18.1484C10.4785 19.7422 10.8008 20.5391 11.4453 20.5391L13.8359 20.9258L14.5039 20.7324C15.043 20.8027 15.4531 20.8379 15.7344 20.8379C16.0859 20.4629 17.2344 19.918 19.1797 19.2031C19.5547 18.4414 19.8066 17.6797 19.9355 16.918L19.2676 14.5273C19.0801 14.4805 18.8281 14.0996 18.5117 13.3848C18.3945 13.3145 18.2656 13.2793 18.125 13.2793H17.8438C17.7734 13.2793 17.7383 13.3145 17.7383 13.3848C17.4688 13.3848 17.1816 13.0977 16.877 12.5234C16.7949 12.4531 16.4492 12.3887 15.8398 12.3301C15.2539 12.459 14.9316 12.5234 14.873 12.5234C14.709 12.5234 13.9766 12.459 12.6758 12.3301C12.0547 12.3301 11.3574 13.0625 10.584 14.5273C10.3965 15.2188 10.3027 15.6348 10.3027 15.7754ZM23.4688 17.4805C23.5977 17.5039 23.6621 17.5684 23.6621 17.6738V17.8672L23.293 17.9727L23.1875 17.7793C23.1875 17.6855 23.2812 17.5859 23.4688 17.4805ZM21.4648 21.875H21.6582C21.7871 21.8984 21.8516 21.9629 21.8516 22.0684L21.5703 22.2617L21.4648 22.0684V21.875Z" fill="#BB004B"/>
<path d="M31.2207 6.44141C31.8066 6.62891 32.1875 6.72266 32.3633 6.72266C32.832 6.53516 33.1191 6.44141 33.2246 6.44141C33.7051 6.82812 34.4375 7.08594 35.4219 7.21484C35.9844 7.42578 36.5234 7.85352 37.0391 8.49805C37.8711 8.49805 38.3516 9.04883 38.4805 10.1504C38.668 10.3965 38.7617 10.6895 38.7617 11.0293V11.3105C38.7617 12.459 38.6973 13.3438 38.5684 13.9648C38.7676 14.3984 38.8672 14.6914 38.8672 14.8438C38.8672 15.2539 38.832 16.0977 38.7617 17.375C38.9141 17.832 39.0078 18.0605 39.043 18.0605C38.9258 18.4707 38.8672 18.7344 38.8672 18.8516L39.3418 20.5215C39.5762 20.709 39.7988 20.8027 40.0098 20.8027H40.291C40.8535 20.8027 41.2344 20.4512 41.4336 19.748C41.4336 19.4551 41.8789 19.2852 42.7695 19.2383C42.8984 19.4375 42.998 19.666 43.0684 19.9238C43.0684 20.416 42.6875 20.873 41.9258 21.2949C41.5156 21.6699 41.2578 22.0918 41.1523 22.5605L40.7656 22.7715C39.2422 22.7715 38.4805 22.5723 38.4805 22.1738C38.4805 21.7168 37.9062 21.3242 36.7578 20.9961C36.582 20.9961 36.2012 21.2598 35.6152 21.7871C34.4668 22.1152 33.8633 22.2793 33.8047 22.2793C33.8047 22.209 33.7695 22.1738 33.6992 22.1738V22.2793C33.7695 22.2793 33.8047 22.3086 33.8047 22.3672C33.8047 22.6836 32.9141 22.9121 31.1328 23.0527C30.9219 22.9238 30.7285 22.8594 30.5527 22.8594C30.459 22.8594 30.1719 22.9238 29.6914 23.0527C28.8477 22.6309 28.0508 22.3379 27.3008 22.1738C26.0352 20.8379 25.4023 19.8301 25.4023 19.1504V18.957C25.4023 18.1016 25.8477 17.0527 26.7383 15.8105C26.832 15.8105 27.084 15.5879 27.4941 15.1426L27.6875 15.248V15.1426C27.6172 15.1426 27.582 15.1074 27.582 15.0371C28.0625 15.0371 28.4141 15.002 28.6367 14.9316C28.6367 15.002 28.6719 15.0371 28.7422 15.0371V14.9316C28.6719 14.9316 28.6367 14.9023 28.6367 14.8438C29 14.5156 29.3223 14.3516 29.6035 14.3516H30.2715C30.5293 14.3516 30.7812 14.3867 31.0273 14.457C31.5195 14.457 32.791 14.0645 34.8418 13.2793H35.0352L35.7031 13.3672L37.1445 12.4883L37.2324 12.1191C37.2324 11.4277 37.0449 10.8008 36.6699 10.2383C36.6699 10.0859 36.7344 9.79883 36.8633 9.37695C36.207 9.27148 35.7266 9.10156 35.4219 8.86719L34.9473 8.97266H34.7539C34.4023 8.58594 34.1152 8.39258 33.8926 8.39258C33.3887 8.5918 33.0723 8.69141 32.9434 8.69141C32.3809 8.29297 32 8.09375 31.8008 8.09375C30.4062 8.53906 29.6738 8.83203 29.6035 8.97266C29.4277 9.27734 29.1699 10.2559 28.8301 11.9082C28.4082 12.1074 28.1211 12.207 27.9688 12.207C26.7617 12.0195 26.1582 11.7207 26.1582 11.3105V10.1504C26.1582 9.88086 26.3809 9.51758 26.8262 9.06055C26.8262 8.5332 27.4941 7.94727 28.8301 7.30273C29.3105 7.0332 29.9492 6.875 30.7461 6.82812C30.7461 6.75781 30.9043 6.62891 31.2207 6.44141ZM34.666 15.3359L34.1738 15.248C33.7285 15.7051 33.0605 15.9336 32.1699 15.9336C31.9707 15.9336 31.7188 16.1914 31.4141 16.707H31.2207C30.4941 16.5078 30.0781 16.4082 29.9727 16.4082C28.4492 16.6309 27.6875 16.8887 27.6875 17.1816L27.4062 18.3594C27.4062 19.3203 27.5938 19.9414 27.9688 20.2227C27.9102 20.2227 27.8809 20.252 27.8809 20.3105L28.0742 20.2227C28.3438 20.4102 29.1348 20.7383 30.4473 21.207L31.1328 21.1016C31.5312 21.2773 31.9766 21.4062 32.4688 21.4883C32.4688 21.2891 33.2598 20.8965 34.8418 20.3105C35.2637 19.8418 35.8086 19.3906 36.4766 18.957C36.8984 18.6172 37.2148 17.9023 37.4258 16.8125V16.6016C37.2852 15.5586 37.0625 15.0371 36.7578 15.0371H36.6699C36.2363 15.1777 35.5684 15.2773 34.666 15.3359ZM51.7695 0.851562C54.8984 1.01562 56.4629 1.24414 56.4629 1.53711L57.1309 2.48633V3.17188C57.1309 3.38281 57.0664 3.83398 56.9375 4.52539C56.9375 4.63086 56.9668 5.02344 57.0254 5.70312C56.8965 6.25391 56.832 6.60547 56.832 6.75781C57.0312 7.34375 57.1309 7.73047 57.1309 7.91797C57.1309 8.90234 57.0664 10.0391 56.9375 11.3281C56.9961 11.668 57.0254 11.9902 57.0254 12.2949C57.0254 12.4004 56.9609 12.5996 56.832 12.8926L56.9375 13.4551C56.8672 15.0137 56.832 16.25 56.832 17.1641C56.832 17.6211 56.8965 18.0078 57.0254 18.3242C56.8965 19.168 56.832 19.748 56.832 20.0645C56.832 20.4512 57.4707 20.6445 58.748 20.6445C59.1113 20.6445 59.6504 21.0664 60.3652 21.9102V22.1035C60.166 22.5488 59.8848 22.8418 59.5215 22.9824L58.8535 22.5781H58.748C58.5254 22.5781 58.209 22.7422 57.7988 23.0703H57.6934C57.5879 23.0703 57.3008 22.9766 56.832 22.7891C56.4453 23.0469 56.1289 23.1758 55.8828 23.1758C55.3086 23.0469 55.0215 22.7539 55.0215 22.2969L55.127 22.1035C54.8223 21.5762 54.5352 21.3125 54.2656 21.3125C53.4219 21.9102 52.877 22.332 52.6309 22.5781C51.2129 22.4492 50.4512 22.3848 50.3457 22.3848L49.7656 22.877L49.291 22.9824C47.6973 22.7129 46.9004 22.4199 46.9004 22.1035C45.5059 21.1777 44.8086 20.2402 44.8086 19.291C44.8086 19.1621 44.5859 18.0605 44.1406 15.9863C44.2109 12.8809 44.4629 11.3281 44.8965 11.3281C44.8965 11.3867 44.9316 11.416 45.002 11.416L44.8965 11.2227C45.1543 9.875 45.7285 8.9082 46.6191 8.32227C47.2988 7.60742 48.0957 7.25 49.0098 7.25L51.207 6.66992C51.6641 6.75195 52.748 7.20312 54.459 8.02344C54.7637 8.02344 54.9512 7.66602 55.0215 6.95117C55.1504 6.95117 55.2148 6.69922 55.2148 6.19531C55.2148 6.05469 55.1504 5.60352 55.0215 4.8418C55.2207 4.39648 55.3203 4.03906 55.3203 3.76953C55.3203 2.99609 54.3594 2.60938 52.4375 2.60938C52.2383 2.73828 52.0508 2.80273 51.875 2.80273C50.9141 2.60352 50.4336 2.21094 50.4336 1.625C50.4336 1.32031 50.8789 1.0625 51.7695 0.851562ZM50.5391 8.90234H50.2578C49.7188 8.90234 49.1094 9.19531 48.4297 9.78125C47.9961 10.2266 47.6504 10.7422 47.3926 11.3281C46.7832 11.3281 46.3965 12.4941 46.2324 14.8262L46.1445 16.1797C46.3555 16.6367 46.6426 17.5742 47.0059 18.9922C47.2988 19.0859 47.8086 19.5078 48.5352 20.2578C49.0273 20.5859 49.3438 20.75 49.4844 20.75C50.0117 20.6328 50.9023 20.5332 52.1562 20.4512C52.1797 20.2402 52.6895 19.9531 53.6855 19.5898C54.5176 17.3867 54.9336 15.6055 54.9336 14.2461C54.9336 14 54.7109 13.127 54.2656 11.627C54.043 10.3965 53.6621 9.78125 53.123 9.78125C52.8066 9.74609 52.3555 9.35938 51.7695 8.62109L51.2949 8.51562H50.9258C50.668 8.62109 50.5391 8.75 50.5391 8.90234ZM69.5059 6.61719C69.7285 6.80469 70.3027 6.93945 71.2285 7.02148C71.7441 7.37305 72.125 7.73047 72.3711 8.09375C72.3125 8.09375 72.2832 8.12891 72.2832 8.19922C72.4004 8.12891 72.4941 8.09375 72.5645 8.09375C72.9043 8.19922 73.3203 8.55664 73.8125 9.16602C75.0781 9.88086 75.7109 11.4922 75.7109 14C75.7109 14.6445 75.1719 15.1367 74.0938 15.4766L73.6191 15.3887C72.834 15.3887 72.1309 15.6172 71.5098 16.0742C71.0645 16.0742 70.8125 16.1035 70.7539 16.1621C70.4961 16.0332 70.2734 15.9688 70.0859 15.9688L69.418 16.3555C68.9961 16.2266 68.709 16.1621 68.5566 16.1621C68.416 16.1621 68.0645 16.1973 67.502 16.2676C66.834 15.9512 66.2305 15.7812 65.6914 15.7578C65.0469 15.8984 64.7246 16.127 64.7246 16.4434C64.4434 16.3496 64.3027 16.502 64.3027 16.9004C64.1035 17.2285 64.2441 17.7031 64.7246 18.3242C65.0527 19.5781 65.627 20.2051 66.4473 20.2051C66.6348 20.3926 67.209 20.6211 68.1699 20.8906C68.1699 20.9844 68.2988 21.0781 68.5566 21.1719C69.1777 21.1719 70.0039 20.9785 71.0352 20.5918C71.4336 20.5918 71.8145 20.2285 72.1777 19.502C72.2949 19.502 72.6758 19.2734 73.3203 18.8164C73.3203 18.875 73.3555 18.9043 73.4258 18.9043V18.8164C73.3555 18.8164 73.3203 18.7812 73.3203 18.7109L73.8125 18.4297C73.8125 18.5 73.8418 18.5352 73.9004 18.5352V18.3242H74.6738C75.0488 18.5352 75.2363 18.8926 75.2363 19.3965V19.6074C75.2363 20.2285 74.7617 20.7207 73.8125 21.084C73.4844 21.5176 73.1621 21.8164 72.8457 21.9805L72.6523 21.8574V21.9805C72.7227 21.9805 72.7578 22.0098 72.7578 22.0684C72.3242 22.2559 71.5273 22.4844 70.3672 22.7539H70.0859L69.8926 22.666V22.8594H69.3125C68.3984 22.6484 67.2207 22.543 65.7793 22.543C65.4395 22.1797 64.9004 21.8281 64.1621 21.4883C64.1621 21.2891 63.6816 20.627 62.7207 19.502C62.2988 18.8105 61.9531 17.6328 61.6836 15.9688V13.0156C61.9531 11.6797 62.2051 10.7598 62.4395 10.2559C63.0137 9.70508 63.3945 9.14844 63.582 8.58594C65.2109 7.27344 67.1855 6.61719 69.5059 6.61719ZM69.541 9.57031C69.2012 9.55859 69.0312 9.48828 69.0312 9.35938C67.8594 9.48828 67.1504 9.6875 66.9043 9.95703C65.7324 9.88672 64.8887 10.6191 64.373 12.1543C63.9629 13.5137 64.4023 14.1289 65.6914 14C65.8203 13.9414 65.9199 13.9121 65.9902 13.9121C66.0137 14.041 66.084 14.1113 66.2012 14.123L66.5 14.1582C67.3086 14.1934 67.7129 14.1406 67.7129 14C67.7832 14 67.8184 14.0352 67.8184 14.1055L68.3281 14.0352L68.8379 14.0527L69.4531 14.2109C69.9102 14.0469 70.4785 13.9414 71.1582 13.8945C71.2051 13.8125 71.7793 13.6777 72.8809 13.4902V13.3848C72.8809 13.1973 72.8516 13.1035 72.793 13.1035L73.3203 12.8047L72.8809 11.8203C72.752 11.0586 72.3184 10.5723 71.5801 10.3613V9.48242C71.1582 9.25977 70.8828 9.14844 70.7539 9.14844C70.5898 9.13672 70.2148 9.2832 69.6289 9.58789L69.541 9.57031ZM92.5156 6.54688C93.7812 6.89844 94.5137 7.2793 94.7129 7.68945C95.0879 7.68945 95.4688 8.36328 95.8555 9.71094C95.9141 9.71094 95.9434 9.74023 95.9434 9.79883V10.6602C95.9434 10.8828 95.9785 11.1699 96.0488 11.5215C96.0488 12.0254 95.1582 12.4707 93.377 12.8574C92.2871 12.5059 91.7422 12.0898 91.7422 11.6094C91.6602 11.6094 91.5664 11.4219 91.4609 11.0469C91.5312 10.6016 91.5664 10.25 91.5664 9.99219V9.79883C91.2734 9.2832 90.7285 9.02539 89.9316 9.02539C89.8262 9.03711 89.416 9.35938 88.7012 9.99219C88.4316 10.0156 87.8574 10.5547 86.9785 11.6094C86.4512 12.5117 85.9707 13.2148 85.5371 13.7188V13.9121C85.5371 14.1816 85.6016 14.4336 85.7305 14.668C85.6016 15.1484 85.5371 15.5938 85.5371 16.0039C85.5371 16.2383 85.5723 16.5254 85.6426 16.8652C85.5137 17.1699 85.4492 17.5508 85.4492 18.0078C85.4492 19.543 85.9238 20.3105 86.873 20.3105H88.7891C88.8477 20.3105 89.0996 20.2461 89.5449 20.1172H89.8438C90.7344 20.1172 91.4316 20.7852 91.9355 22.1211V22.4023C91.877 22.5312 91.8477 22.625 91.8477 22.6836H91.5664C91.2852 22.4961 91.0273 22.4023 90.793 22.4023C90.5469 22.4375 90.3535 22.6309 90.2129 22.9824C90.1543 22.9824 90.0605 23.0117 89.9316 23.0703C88.6895 22.6367 87.8281 22.4141 87.3477 22.4023C87.2773 22.4023 87.0254 22.5957 86.5918 22.9824H86.3105C86.3105 22.8535 86.0879 22.5664 85.6426 22.1211H85.3438C84.7461 22.2383 84.1426 22.5254 83.5332 22.9824C83.123 22.8535 82.8359 22.7891 82.6719 22.7891H80.668C80.4219 22.7891 80.1348 22.9473 79.8066 23.2637C79.5371 23.0645 78.998 22.8125 78.1895 22.5078C78.002 22.3555 77.9082 22.1914 77.9082 22.0156C78.0957 21.7812 78.2539 21.4355 78.3828 20.9785C78.5586 20.8496 79.1621 20.6914 80.1934 20.5039C80.1934 20.4336 80.3867 20.3984 80.7734 20.3984H82.7773C83.0938 20.2344 83.252 19.9824 83.252 19.6426C83.252 19.2324 83.2168 18.752 83.1465 18.2012C83.2168 17.6621 83.252 17.2168 83.252 16.8652C83.123 16.2676 83.0293 15.5352 82.9707 14.668C83.2168 14.1055 83.3398 13.7246 83.3398 13.5254C83.2109 13.127 83.1465 12.8105 83.1465 12.5762C83.1465 12.248 83.2461 12.084 83.4453 12.084C83.1875 9.98633 82.9648 8.9375 82.7773 8.9375H82.4785C81.6582 8.9375 81.0254 9.00195 80.5801 9.13086L80 9.02539H79.8066C79.5488 9.02539 79.1387 9.08984 78.5762 9.21875C78.1309 9.08984 77.9082 8.83789 77.9082 8.46289C78.0488 7.31445 78.5527 6.74023 79.4199 6.74023L80.1055 7.02148C80.5742 6.9043 81.0195 6.8457 81.4414 6.8457H81.7227C84.0195 6.93945 85.168 7.32031 85.168 7.98828C85.6016 8.43359 85.9473 8.65625 86.2051 8.65625C86.6621 8.65625 87.1426 8.24023 87.6465 7.4082C87.6934 7.4082 88.4902 7.2207 90.0371 6.8457C90.0371 6.9043 90.0664 6.93359 90.125 6.93359C90.125 6.83984 90.2188 6.74609 90.4062 6.65234H91.4609C91.7305 6.65234 92.082 6.61719 92.5156 6.54688ZM89.8438 15.7227H90.0371V16.1094C89.9668 16.1094 89.8672 16.1387 89.7383 16.1973L89.6504 16.0039V15.916C89.6738 15.7871 89.7383 15.7227 89.8438 15.7227ZM81.0195 24.125C81.3477 24.2656 81.5469 24.3359 81.6172 24.3359C81.957 24.2656 82.2266 24.2305 82.4258 24.2305H82.6543C82.9707 24.2305 83.1289 24.3359 83.1289 24.5469C82.9883 24.6641 82.8301 24.7227 82.6543 24.7227C82.4902 24.7227 82.3438 24.7051 82.2148 24.6699C81.9805 24.7051 81.7461 24.7227 81.5117 24.7227H81.459C81.3418 24.7227 81.0488 24.6348 80.5801 24.459H80.2109C80.1406 24.459 80.1055 24.418 80.1055 24.3359L81.0195 24.125ZM193.783 6.49414C195.506 6.64648 196.367 7.13867 196.367 7.9707C196.555 8.48633 196.648 8.84961 196.648 9.06055V9.27148C196.648 9.3418 196.555 9.66406 196.367 10.2383V11.3281C196.367 11.5391 196.461 11.8965 196.648 12.4004L196.561 13.2793L196.648 13.9648C196.59 14.4336 196.561 14.7031 196.561 14.7734C196.619 15.2188 196.648 15.5762 196.648 15.8457C196.461 16.3848 196.367 17.3691 196.367 18.7988V20.2754C196.484 20.5918 196.771 20.75 197.229 20.75H197.809L198.477 20.6621C198.922 21.0254 199.145 21.2832 199.145 21.4355L199.338 21.3477L199.812 21.9453V22.4375L199.619 22.332L199.707 22.5254V22.6309C199.707 22.7363 199.584 22.8652 199.338 23.0176C199.186 23.0176 198.928 22.9238 198.564 22.7363L198.09 23.0176H197.809C197.422 22.6895 197.199 22.5254 197.141 22.5254L195.787 22.6309C194.967 22.6309 194.047 22.2324 193.027 21.4355H192.746C192.324 21.4355 191.844 21.7695 191.305 22.4375C190.824 22.4375 190.408 22.5371 190.057 22.7363C189.951 22.666 189.828 22.6309 189.688 22.6309H189.582L189.213 22.9297H189.02L188.633 22.6309H187.49C186.084 22.4434 185.381 22.2441 185.381 22.0332C185.451 22.0332 185.486 22.0039 185.486 21.9453L185.293 22.0332C184.273 20.7793 183.764 20 183.764 19.6953V19.3789C183.764 19.2266 183.857 18.6055 184.045 17.5156C183.916 17.0586 183.852 16.666 183.852 16.3379V9.83398C183.852 9.0957 183.184 8.67383 181.848 8.56836C181.508 8.56836 181.156 8.27539 180.793 7.68945C181.074 7.10352 181.396 6.81055 181.76 6.81055C182.65 6.86914 183.412 6.89844 184.045 6.89844H185.381C186.084 7.56641 186.436 8.51562 186.436 9.74609C186.494 9.74609 186.523 9.77539 186.523 9.83398C186.289 10.4082 186.166 11.0703 186.154 11.8203C186.283 12.4062 186.348 12.7285 186.348 12.7871C186.348 12.9512 186.283 13.9707 186.154 15.8457C186.213 16.4316 186.242 16.7891 186.242 16.918C186.242 16.9531 186.213 17.0879 186.154 17.3223C186.518 19.5488 187.057 20.6621 187.771 20.6621C188.041 20.6621 188.393 20.627 188.826 20.5566L189.389 20.6621L190.162 20.2754C190.162 20.3457 190.191 20.3809 190.25 20.3809V20.2754C190.191 20.2754 190.162 20.2402 190.162 20.1699C191.182 19.3496 191.914 18.4355 192.359 17.4277C193.191 16.5723 193.607 15.8457 193.607 15.248V14.6504L193.502 14.0703C193.76 13.2148 193.889 12.6582 193.889 12.4004C193.889 12.3184 193.854 11.9902 193.783 11.416L194.082 10.1328C193.473 9.65234 193.121 9.29492 193.027 9.06055C192.207 9.31836 191.727 9.44727 191.586 9.44727C191.258 9.44727 190.877 8.89062 190.443 7.77734C190.443 6.99219 191.27 6.59961 192.922 6.59961C193.262 6.59961 193.549 6.56445 193.783 6.49414ZM212.838 6.47656C213.236 6.60547 213.904 6.70508 214.842 6.77539C215.674 7.26758 216.09 7.90039 216.09 8.67383C216.184 8.67383 216.471 9.21875 216.951 10.3086C217.139 10.3672 217.232 10.5547 217.232 10.8711C217.232 10.9883 217.109 11.2754 216.863 11.7324C216.98 12.3066 217.139 12.5938 217.338 12.5938V12.875C217.021 13.5547 216.863 14.3867 216.863 15.3711C216.863 16.168 216.828 17.1523 216.758 18.3242L216.951 18.4297H217.232L216.951 19.0273C217.232 19.0273 217.455 19.2207 217.619 19.6074C218.135 19.4902 218.393 19.5078 218.393 19.6602C218.393 19.8477 218.896 20.2637 219.904 20.9082C220.35 21.3066 220.572 21.5293 220.572 21.5762V21.6641C220.092 22.3672 219.365 22.7188 218.393 22.7188C218.393 22.7891 218.357 22.8242 218.287 22.8242C217.947 22.7539 217.66 22.7188 217.426 22.7188L216.951 22.8242C216.518 22.4961 216.201 22.332 216.002 22.332H215.527C215.48 22.332 215.287 22.5254 214.947 22.9121L213.893 22.5254L213.418 22.6309C212.984 22.4316 212.633 22.332 212.363 22.332H212.082C212.012 22.332 211.977 22.3672 211.977 22.4375C211.777 22.3086 211.619 22.2441 211.502 22.2441V22.0508C211.502 20.9023 211.789 20.3281 212.363 20.3281C212.621 20.0352 213.066 19.7832 213.699 19.5723C214.344 18.8809 214.666 17.9551 214.666 16.7949C214.666 16.1035 214.725 15.4062 214.842 14.7031C214.842 14.1172 214.59 13.4141 214.086 12.5938C214.215 12.1953 214.279 11.9434 214.279 11.8379C214.068 11.041 213.846 10.373 213.611 9.83398C213.377 9.83398 212.961 9.61133 212.363 9.16602C212.293 9.16602 212.199 9.13086 212.082 9.06055C211.297 9.69336 210.629 10.1094 210.078 10.3086C209.059 11.2109 208.549 11.8438 208.549 12.207C208.549 12.6758 208.291 13.0273 207.775 13.2617L207.6 13.1738L207.688 13.3672C207.242 13.9648 207.02 14.6328 207.02 15.3711V15.6523L207.107 16.3203H207.02L207.301 17.0938C207.406 17.0234 207.166 17.0234 206.58 17.0938V16.5312C206.58 16.4375 206.68 16.3379 206.879 16.2324C206.973 16.2324 207.096 16.3613 207.248 16.6191V17.2871C207.377 17.7441 207.441 17.9961 207.441 18.043C207.312 18.4648 207.248 18.752 207.248 18.9043C208.045 19.4785 208.924 20.0176 209.885 20.5215L210.166 20.9961C209.955 22.0156 209.574 22.5254 209.023 22.5254L208.355 22.4375C207.852 22.6953 207.5 22.8242 207.301 22.8242C206.574 22.5664 206.1 22.4375 205.877 22.4375C204.752 22.5547 204.084 22.6836 203.873 22.8242C202.654 22.8242 201.887 22.502 201.57 21.8574V21.5762C201.57 21.4004 201.857 20.7969 202.432 19.7656C203.053 19.8945 203.404 19.959 203.486 19.959C204.002 19.7363 204.383 19.4141 204.629 18.9922V18.2363C204.629 18.166 204.6 18.1309 204.541 18.1309C204.729 17.3105 204.822 16.7422 204.822 16.4258V13.0684C204.822 12.9277 204.793 12.8047 204.734 12.6992C204.852 12.3242 204.945 11.9082 205.016 11.4512L204.822 10.5898L205.104 9.44727C204.939 9.02539 204.752 8.76758 204.541 8.67383H204.436C204.131 8.67383 203.879 8.83789 203.68 9.16602C203.562 9.22461 203.434 9.25391 203.293 9.25391C202.098 8.66797 201.494 8.28711 201.482 8.11133V7.72461C201.482 7.30273 202.15 7.05078 203.486 6.96875C203.967 7.02734 204.283 7.08594 204.436 7.14453C204.459 7.02734 204.523 6.96875 204.629 6.96875H204.734C206 7.21484 206.633 7.625 206.633 8.19922C206.844 8.96094 207.066 9.3418 207.301 9.3418L207.969 9.06055C207.969 9.13086 208.004 9.16602 208.074 9.16602V9.06055C208.004 9.06055 207.969 9.03125 207.969 8.97266C208.074 8.97266 208.49 8.5918 209.217 7.83008C210.506 7.05664 211.203 6.66992 211.309 6.66992C211.777 6.66992 212.287 6.60547 212.838 6.47656ZM224.176 9.57031H224.264C224.463 9.62891 224.562 9.81641 224.562 10.1328V10.3262C224.562 10.4082 224.398 10.5664 224.07 10.8008L223.877 10.7129C223.947 9.95117 224.047 9.57031 224.176 9.57031ZM219.482 16.6367C219.74 16.7305 219.869 16.8242 219.869 16.918C219.811 17.1055 219.617 17.1992 219.289 17.1992C219.172 17.1992 219.113 17.1348 219.113 17.0059V16.918C219.113 16.8242 219.236 16.7305 219.482 16.6367ZM224.703 0.693359C225.969 0.951172 226.602 1.58398 226.602 2.5918C226.602 3.04883 226.701 3.55859 226.9 4.12109C226.771 4.60156 226.707 4.88867 226.707 4.98242C227.082 5.87305 227.305 6.64062 227.375 7.28516C227.434 7.28516 227.463 7.25 227.463 7.17969L227.656 7.28516H228.131L228.324 7.17969C228.324 7.25 228.359 7.28516 228.43 7.28516C228.43 6.89844 228.969 6.67578 230.047 6.61719C230.047 6.54688 230.27 6.44727 230.715 6.31836C233.387 6.51758 234.723 6.86914 234.723 7.37305C235.941 7.83008 236.551 8.43359 236.551 9.18359C236.609 9.18359 236.639 9.1543 236.639 9.0957C237.588 9.0957 238.062 9.69922 238.062 10.9062C238.508 11.5039 238.73 11.9492 238.73 12.2422C238.73 12.3242 238.701 12.6465 238.643 13.209C238.9 13.7949 239.029 14.334 239.029 14.8262V15.0195C238.9 15.4648 238.836 15.7168 238.836 15.7754C238.895 16.5723 238.924 16.9883 238.924 17.0234L238.643 17.2168H238.555C238.355 17.2168 238.162 16.7715 237.975 15.8809H237.693C237.436 15.8809 237.307 16.4199 237.307 17.498C237.623 17.6855 237.781 17.8789 237.781 18.0781C237.582 19.8594 237.266 20.75 236.832 20.75C236.68 20.75 236.041 21.1309 234.916 21.8926L234.441 21.9805L234.248 21.8926C233.404 22.209 232.959 22.3672 232.912 22.3672L232.438 22.2793C231.055 22.502 230.258 22.6895 230.047 22.8418H229.66C229.191 22.8418 228.939 22.748 228.904 22.5605C228.963 22.5605 228.992 22.5312 228.992 22.4727L228.799 22.5605C228.248 22.0566 227.68 21.8047 227.094 21.8047C226.52 21.9219 226.133 21.9805 225.934 21.9805C225.488 21.9805 225.266 21.8867 225.266 21.6992L225.072 21.8047C224.697 21.3711 224.51 20.8906 224.51 20.3633C224.51 19.8594 224.539 19.1914 224.598 18.3594C224.539 18.0078 224.51 17.75 224.51 17.5859L224.598 16.918L224.51 16.25C224.568 15.6406 224.598 15.0371 224.598 14.4395C224.598 14.2871 224.568 14.0352 224.51 13.6836C224.639 12.8281 224.703 12.125 224.703 11.5742L224.598 11.3809C224.727 11.0293 224.826 9.5 224.896 6.79297L224.791 6.31836C224.92 5.7207 224.984 5.33984 224.984 5.17578C224.984 4.95312 224.891 4.60156 224.703 4.12109C224.949 3.57031 225.072 3.25391 225.072 3.17188C224.99 2.85547 224.768 2.69727 224.404 2.69727H223.367C223.016 2.69727 222.57 2.66211 222.031 2.5918C221.926 2.66211 221.732 2.69727 221.451 2.69727C221.006 2.55664 220.783 2.26953 220.783 1.83594C220.912 1.20312 221.164 0.886719 221.539 0.886719C222.055 0.921875 222.312 0.980469 222.312 1.0625L222.98 0.886719L223.561 0.974609C224.229 0.787109 224.609 0.693359 224.703 0.693359ZM226.9 12.5234C226.9 12.6875 226.994 13.0391 227.182 13.5781C226.994 14.1289 226.9 14.4512 226.9 14.5449C227.053 16.3379 227.34 17.6387 227.762 18.4473C228.992 19.7246 229.754 20.3633 230.047 20.3633H230.82C231.219 20.3633 231.723 20.1699 232.332 19.7832L232.156 19.1152C232.25 18.8691 232.344 18.7461 232.438 18.7461H232.824C232.824 18.9336 232.947 19.0918 233.193 19.2207C233.686 19.2207 234.23 18.5176 234.828 17.1113C234.758 16.666 234.723 16.4141 234.723 16.3555C235.168 15.957 235.391 14.9668 235.391 13.3848V12.9102L234.529 11.5742C234.412 11.3867 234.289 10.9121 234.16 10.1504C234.219 10.1504 234.248 10.1152 234.248 10.0449H234.16C234.16 10.1152 234.125 10.1504 234.055 10.1504C233.996 9.89258 233.586 9.63477 232.824 9.37695C232.824 8.83789 232.631 8.48633 232.244 8.32227L232.051 8.42773H231.77C231.711 8.42773 231.453 8.36328 230.996 8.23438H230.627C230.346 8.38672 229.93 8.80273 229.379 9.48242C228.57 9.48242 228.031 10.1797 227.762 11.5742C227.188 11.832 226.9 12.1484 226.9 12.5234ZM248.24 0.394531C249.072 0.394531 249.998 0.910156 251.018 1.94141V2.04688C250.854 2.28125 250.695 2.92578 250.543 3.98047C250.156 4.76563 249.676 5.1582 249.102 5.1582C249.102 5.29883 248.592 5.39258 247.572 5.43945C246.553 5.05273 246.043 4.24414 246.043 3.01367C246.359 1.26758 247.092 0.394531 248.24 0.394531ZM246.623 6.51172C248.404 6.51172 249.295 7.0332 249.295 8.07617L249.383 8.26953L249.295 9.23633C249.482 9.81055 249.576 10.291 249.576 10.6777V14.457C249.576 15.3008 249.611 16.1738 249.682 17.0762C249.611 17.3691 249.576 17.8906 249.576 18.6406C249.576 19.8594 249.928 20.4688 250.631 20.4688C251.123 20.5391 251.662 20.5742 252.248 20.5742H252.354C252.482 20.5742 252.799 20.5098 253.303 20.3809C254.193 20.5449 254.639 20.7031 254.639 20.8555L254.832 20.75C255.195 21.0781 255.482 21.3711 255.693 21.6289C255.541 22.2852 255.348 22.7363 255.113 22.9824C252.594 22.8652 251.07 22.707 250.543 22.5078C249.98 22.5781 249.629 22.6133 249.488 22.6133C249.277 22.4844 249.084 22.4199 248.908 22.4199H247.766C247.074 22.4199 246.184 22.6426 245.094 23.0879C244.766 22.9004 244.449 22.8066 244.145 22.8066H243.564C242.932 22.8184 242.615 22.877 242.615 22.9824C241.338 22.6895 240.699 22.209 240.699 21.541C240.699 20.6387 241.654 20.1875 243.564 20.1875C243.787 20.2461 244.104 20.2754 244.514 20.2754L245.182 19.9941L245.762 20.082H245.85C246.74 20.082 247.186 19.1738 247.186 17.3574C247.268 17.3574 247.332 17.1699 247.379 16.7949L247.186 15.916C247.186 15.8457 247.221 15.7461 247.291 15.6172C247.291 15.5703 247.256 15.377 247.186 15.0371C247.256 14.2285 247.291 13.7422 247.291 13.5781L247.186 12.9102C247.385 12.3594 247.484 11.9727 247.484 11.75V11.1699C247.484 9.88086 247.104 9.23633 246.342 9.23633C246.225 9.1543 246.096 9.11328 245.955 9.11328L245.006 9.32422L244.32 9.23633C243.512 9.29492 243.066 9.35938 242.984 9.42969C242.539 9.23047 242.316 8.9375 242.316 8.55078C242.445 8.02344 242.574 7.66602 242.703 7.47852H242.615C242.615 7.17383 243.154 6.98047 244.232 6.89844C244.232 6.80469 244.455 6.70508 244.9 6.59961C244.994 6.59961 245.281 6.66406 245.762 6.79297L246.623 6.51172ZM252.652 8.04102H253.145C253.145 8.20508 253.227 8.28711 253.391 8.28711V8.90234H252.898C252.699 8.90234 252.576 8.73828 252.529 8.41016C252.611 8.24609 252.652 8.12305 252.652 8.04102ZM253.496 24.6523C253.625 24.7109 253.719 24.7402 253.777 24.7402V24.8457C253.777 24.9746 253.719 25.0391 253.602 25.0391H253.303C253.174 25.0391 253.109 24.9746 253.109 24.8457L253.496 24.6523ZM264.025 0.464844C264.74 0.664062 265.279 0.763672 265.643 0.763672H265.836V0.939453C265.895 0.939453 265.924 0.910156 265.924 0.851562C266.439 1.00391 266.697 1.41992 266.697 2.09961V2.1875C266.697 2.46875 266.633 2.72656 266.504 2.96094C266.633 3.57031 266.762 4.49023 266.891 5.7207L266.785 6.38867C266.855 7.56055 266.891 8.29297 266.891 8.58594C266.762 9.17188 266.697 9.48828 266.697 9.53516L266.785 10.0273L266.697 10.502L266.891 13.7539C266.82 14.5508 266.785 15.0254 266.785 15.1777C266.785 15.4121 266.82 15.6992 266.891 16.0391C266.82 16.8242 266.785 17.5859 266.785 18.3242V19.3789C267.02 20.2109 267.436 20.627 268.033 20.627C268.514 20.7559 268.959 20.8203 269.369 20.8203H269.562C269.949 20.4922 270.172 20.3281 270.23 20.3281C270.605 20.4453 271.338 20.5742 272.428 20.7148C273.318 20.7148 273.764 21.2891 273.764 22.4375C273.67 22.7539 273.447 22.9121 273.096 22.9121C273.014 22.9121 272.691 22.8828 272.129 22.8242L271.285 23.1934C270.629 23.0176 269.832 22.8594 268.895 22.7188C268.777 22.7188 268.584 22.7832 268.314 22.9121C266.955 22.8535 266.158 22.7246 265.924 22.5254C264.775 22.5957 264.172 22.6602 264.113 22.7188L263.533 22.6309C261.307 22.8184 259.877 22.9766 259.244 23.1055C258.166 23.0234 257.627 22.8301 257.627 22.5254V22.2441C257.627 21.4824 258.037 20.9434 258.857 20.627C259.279 20.7559 259.566 20.8203 259.719 20.8203C261.008 20.5625 261.963 20.4336 262.584 20.4336H263.357C263.873 20.4336 264.283 20.1172 264.588 19.4844C264.529 18.8281 264.5 18.3184 264.5 17.9551V17.1816L264.588 16.9883C264.424 16.9883 264.295 16.8008 264.201 16.4258C264.4 16.0039 264.5 15.7168 264.5 15.5645V15.2656C264.371 14.7148 264.271 13.7949 264.201 12.5059C264.271 12.2715 264.307 11.9844 264.307 11.6445C264.178 11.4336 264.113 11.2402 264.113 11.0645C264.242 10.5605 264.307 10.2441 264.307 10.1152V9.35938C264.307 8.84375 264.336 8.16992 264.395 7.33789C264.336 7.2207 264.307 7.12695 264.307 7.05664L264.395 6.66992C264.336 5.82617 264.307 5.12891 264.307 4.57812C264.084 3.74609 263.545 3.33008 262.689 3.33008C262.326 3.33008 261.975 3.30078 261.635 3.24219C261.295 3.30078 260.973 3.33008 260.668 3.33008C260.27 3.20117 260.018 3.13672 259.912 3.13672L259.051 3.24219C258.102 3.24219 257.369 2.82617 256.854 1.99414V1.80078C257.521 1.03906 258.125 0.658203 258.664 0.658203L260.299 0.939453C261.436 0.693359 262.678 0.535156 264.025 0.464844ZM272.006 14.791L272.199 15.3184L271.918 15.6699H271.531V14.9844L272.006 14.791ZM274.502 14.791H274.59C274.719 14.8379 274.783 14.9551 274.783 15.1426V15.6699H274.309L273.729 15.4766C273.518 15.7109 273.33 15.8281 273.166 15.8281C273.037 15.8281 272.973 15.7109 272.973 15.4766C272.996 15.2539 273.061 15.1426 273.166 15.1426C273.494 15.2598 273.682 15.3184 273.729 15.3184C274.045 14.9668 274.303 14.791 274.502 14.791ZM276.893 15.1426C277.01 15.2598 277.104 15.3184 277.174 15.3184V15.9863H276.787C276.693 15.9863 276.6 15.8164 276.506 15.4766V15.3184C276.646 15.3184 276.775 15.2598 276.893 15.1426ZM275.926 15.3184H276.225V15.4766C276.225 15.7109 276.16 15.8281 276.031 15.8281H275.732V15.6699C275.756 15.4355 275.82 15.3184 275.926 15.3184Z" fill="black"/>
<path d="M114.822 0.482422C115.514 0.740234 115.959 0.869141 116.158 0.869141H116.352C116.562 0.869141 117.008 0.804687 117.688 0.675781C118.25 0.804687 118.631 0.869141 118.83 0.869141V0.78125C119.041 0.898438 119.68 1.02148 120.746 1.15039C121.965 3.10742 122.762 4.28516 123.137 4.68359V4.87695L123.031 5.84375C123.102 6.5 123.137 7.03906 123.137 7.46094C123.008 7.77734 122.85 8.38086 122.662 9.27148C122.018 10.0801 121.695 10.6191 121.695 10.8887C121.695 11.0879 121.854 11.375 122.17 11.75L122.082 11.9434H122.17C122.17 11.8848 122.205 11.8555 122.275 11.8555C122.451 12.1719 122.639 12.3301 122.838 12.3301L122.75 12.5234L122.943 12.418C123.518 12.8516 123.992 13.5254 124.367 14.4395C124.555 14.4395 124.713 14.5625 124.842 14.8086C124.842 14.8789 124.812 14.9141 124.754 14.9141L124.842 15.1074C124.525 15.4004 124.367 15.7168 124.367 16.0566C124.367 16.5488 124.338 17.4395 124.279 18.7285C123.775 19.1387 123.359 19.8066 123.031 20.7324C122.398 21.0488 122.082 21.4297 122.082 21.875V22.0684C122.27 22.3027 122.363 22.5254 122.363 22.7363V23.123C122.363 23.5098 122.205 23.7031 121.889 23.7031C121.209 23.1289 120.635 22.8418 120.166 22.8418H119.498C118.678 23.0293 118.232 23.123 118.162 23.123C118.092 23.123 117.74 23.0586 117.107 22.9297H116.545L116.352 22.8418C116.352 22.9473 116 23.1055 115.297 23.3164C115.238 23.3164 115.051 23.1875 114.734 22.9297C114.547 22.9297 113.908 22.9648 112.818 23.0352L111.869 22.7363H111.289L110.146 23.2109C109.643 23.0234 109.033 22.8652 108.318 22.7363C108.318 22.6074 107.75 22.5137 106.613 22.4551C106.555 22.1973 106.49 22.0684 106.42 22.0684C106.514 21.4941 106.672 21.207 106.895 21.207C107.328 21.2773 107.68 21.3125 107.949 21.3125C108.652 21.1133 109.004 20.9844 109.004 20.9258C109.25 21.0547 109.596 21.1191 110.041 21.1191H110.234C110.656 21.1191 110.973 20.7676 111.184 20.0645H111.289C111.289 20.0059 111.254 19.9766 111.184 19.9766C111.828 19.0391 112.15 18.4941 112.15 18.3418C112.15 18.248 111.928 18.0605 111.482 17.7793C111.225 17.3105 111.096 17.0527 111.096 17.0059C111.412 16.1621 111.57 15.5879 111.57 15.2832C111.57 14.9199 111.348 14.6973 110.902 14.6152C110.586 14.1934 110.428 13.625 110.428 12.9102C110.428 12.7695 110.521 12.4473 110.709 11.9434C110.521 10.748 110.428 9.95117 110.428 9.55273C110.428 8.47461 110.621 7.49023 111.008 6.59961H110.902C110.773 6.59961 110.709 6.57031 110.709 6.51172L111.482 5.07031C110.779 3.99219 110.428 3.29492 110.428 2.97852C110.17 2.84961 110.041 2.7207 110.041 2.5918H109.953C109.953 2.66211 109.918 2.75586 109.848 2.87305C109.238 2.61523 108.793 2.48633 108.512 2.48633H108.424C107.803 2.61523 107.451 2.67969 107.369 2.67969V2.48633L107.475 2.29297H107.281V1.81836C107.281 1.75977 107.246 1.73047 107.176 1.73047C107.176 1.37891 107.814 1.18555 109.092 1.15039C109.115 1.06836 109.402 0.945312 109.953 0.78125V0.675781H110.041C110.311 0.933594 110.568 1.0625 110.814 1.0625H111.377C112.01 0.875 112.361 0.78125 112.432 0.78125C113.463 0.839844 114.037 0.869141 114.154 0.869141L114.822 0.482422ZM116.158 3.1543C113.99 3.1543 112.906 3.31836 112.906 3.64648C112.719 4.24414 112.625 4.625 112.625 4.78906V4.98242C112.625 5.73242 112.848 6.24219 113.293 6.51172C113.609 6.51172 113.803 6.98633 113.873 7.93555C113.955 8.06445 114.049 8.12891 114.154 8.12891V8.41016C114.154 9.26562 114.916 9.93359 116.439 10.4141H117.301C118.895 9.94531 119.691 9.59961 119.691 9.37695C119.715 9.24805 120.031 8.96094 120.641 8.51562C121.086 8.15234 121.309 7.29102 121.309 5.93164C121.25 5.80273 121.221 5.70898 121.221 5.65039C121.279 5.65039 121.309 5.61523 121.309 5.54492C121.074 5.54492 120.852 5.32227 120.641 4.87695C120.512 4.77148 120.002 4.67773 119.111 4.5957C117.717 4.19727 117.02 3.78125 117.02 3.34766C117.078 3.34766 117.107 3.31836 117.107 3.25977H117.02C117.02 3.31836 116.984 3.34766 116.914 3.34766C116.914 3.30078 116.82 3.20703 116.633 3.06641L116.158 3.1543ZM112.537 15.7754C112.854 16.877 113.012 17.5098 113.012 17.6738C112.859 17.6738 112.76 17.832 112.713 18.1484C112.713 19.7422 113.035 20.5391 113.68 20.5391L116.07 20.9258L116.738 20.7324C117.277 20.8027 117.688 20.8379 117.969 20.8379C118.32 20.4629 119.469 19.918 121.414 19.2031C121.789 18.4414 122.041 17.6797 122.17 16.918L121.502 14.5273C121.314 14.4805 121.062 14.0996 120.746 13.3848C120.629 13.3145 120.5 13.2793 120.359 13.2793H120.078C120.008 13.2793 119.973 13.3145 119.973 13.3848C119.703 13.3848 119.416 13.0977 119.111 12.5234C119.029 12.4531 118.684 12.3887 118.074 12.3301C117.488 12.459 117.166 12.5234 117.107 12.5234C116.943 12.5234 116.211 12.459 114.91 12.3301C114.289 12.3301 113.592 13.0625 112.818 14.5273C112.631 15.2188 112.537 15.6348 112.537 15.7754ZM125.703 17.4805C125.832 17.5039 125.896 17.5684 125.896 17.6738V17.8672L125.527 17.9727L125.422 17.7793C125.422 17.6855 125.516 17.5859 125.703 17.4805ZM123.699 21.875H123.893C124.021 21.8984 124.086 21.9629 124.086 22.0684L123.805 22.2617L123.699 22.0684V21.875ZM134.439 0.394531C135.271 0.394531 136.197 0.910156 137.217 1.94141V2.04688C137.053 2.28125 136.895 2.92578 136.742 3.98047C136.355 4.76563 135.875 5.1582 135.301 5.1582C135.301 5.29883 134.791 5.39258 133.771 5.43945C132.752 5.05273 132.242 4.24414 132.242 3.01367C132.559 1.26758 133.291 0.394531 134.439 0.394531ZM132.822 6.51172C134.604 6.51172 135.494 7.0332 135.494 8.07617L135.582 8.26953L135.494 9.23633C135.682 9.81055 135.775 10.291 135.775 10.6777V14.457C135.775 15.3008 135.811 16.1738 135.881 17.0762C135.811 17.3691 135.775 17.8906 135.775 18.6406C135.775 19.8594 136.127 20.4688 136.83 20.4688C137.322 20.5391 137.861 20.5742 138.447 20.5742H138.553C138.682 20.5742 138.998 20.5098 139.502 20.3809C140.393 20.5449 140.838 20.7031 140.838 20.8555L141.031 20.75C141.395 21.0781 141.682 21.3711 141.893 21.6289C141.74 22.2852 141.547 22.7363 141.312 22.9824C138.793 22.8652 137.27 22.707 136.742 22.5078C136.18 22.5781 135.828 22.6133 135.688 22.6133C135.477 22.4844 135.283 22.4199 135.107 22.4199H133.965C133.273 22.4199 132.383 22.6426 131.293 23.0879C130.965 22.9004 130.648 22.8066 130.344 22.8066H129.764C129.131 22.8184 128.814 22.877 128.814 22.9824C127.537 22.6895 126.898 22.209 126.898 21.541C126.898 20.6387 127.854 20.1875 129.764 20.1875C129.986 20.2461 130.303 20.2754 130.713 20.2754L131.381 19.9941L131.961 20.082H132.049C132.939 20.082 133.385 19.1738 133.385 17.3574C133.467 17.3574 133.531 17.1699 133.578 16.7949L133.385 15.916C133.385 15.8457 133.42 15.7461 133.49 15.6172C133.49 15.5703 133.455 15.377 133.385 15.0371C133.455 14.2285 133.49 13.7422 133.49 13.5781L133.385 12.9102C133.584 12.3594 133.684 11.9727 133.684 11.75V11.1699C133.684 9.88086 133.303 9.23633 132.541 9.23633C132.424 9.1543 132.295 9.11328 132.154 9.11328L131.205 9.32422L130.52 9.23633C129.711 9.29492 129.266 9.35938 129.184 9.42969C128.738 9.23047 128.516 8.9375 128.516 8.55078C128.645 8.02344 128.773 7.66602 128.902 7.47852H128.814C128.814 7.17383 129.354 6.98047 130.432 6.89844C130.432 6.80469 130.654 6.70508 131.1 6.59961C131.193 6.59961 131.48 6.66406 131.961 6.79297L132.822 6.51172ZM138.852 8.04102H139.344C139.344 8.20508 139.426 8.28711 139.59 8.28711V8.90234H139.098C138.898 8.90234 138.775 8.73828 138.729 8.41016C138.811 8.24609 138.852 8.12305 138.852 8.04102ZM139.695 24.6523C139.824 24.7109 139.918 24.7402 139.977 24.7402V24.8457C139.977 24.9746 139.918 25.0391 139.801 25.0391H139.502C139.373 25.0391 139.309 24.9746 139.309 24.8457L139.695 24.6523ZM154.936 6.47656C155.334 6.60547 156.002 6.70508 156.939 6.77539C157.771 7.26758 158.188 7.90039 158.188 8.67383C158.281 8.67383 158.568 9.21875 159.049 10.3086C159.236 10.3672 159.33 10.5547 159.33 10.8711C159.33 10.9883 159.207 11.2754 158.961 11.7324C159.078 12.3066 159.236 12.5938 159.436 12.5938V12.875C159.119 13.5547 158.961 14.3867 158.961 15.3711C158.961 16.168 158.926 17.1523 158.855 18.3242L159.049 18.4297H159.33L159.049 19.0273C159.33 19.0273 159.553 19.2207 159.717 19.6074C160.232 19.4902 160.49 19.5078 160.49 19.6602C160.49 19.8477 160.994 20.2637 162.002 20.9082C162.447 21.3066 162.67 21.5293 162.67 21.5762V21.6641C162.189 22.3672 161.463 22.7188 160.49 22.7188C160.49 22.7891 160.455 22.8242 160.385 22.8242C160.045 22.7539 159.758 22.7188 159.523 22.7188L159.049 22.8242C158.615 22.4961 158.299 22.332 158.1 22.332H157.625C157.578 22.332 157.385 22.5254 157.045 22.9121L155.99 22.5254L155.516 22.6309C155.082 22.4316 154.73 22.332 154.461 22.332H154.18C154.109 22.332 154.074 22.3672 154.074 22.4375C153.875 22.3086 153.717 22.2441 153.6 22.2441V22.0508C153.6 20.9023 153.887 20.3281 154.461 20.3281C154.719 20.0352 155.164 19.7832 155.797 19.5723C156.441 18.8809 156.764 17.9551 156.764 16.7949C156.764 16.1035 156.822 15.4062 156.939 14.7031C156.939 14.1172 156.688 13.4141 156.184 12.5938C156.312 12.1953 156.377 11.9434 156.377 11.8379C156.166 11.041 155.943 10.373 155.709 9.83398C155.475 9.83398 155.059 9.61133 154.461 9.16602C154.391 9.16602 154.297 9.13086 154.18 9.06055C153.395 9.69336 152.727 10.1094 152.176 10.3086C151.156 11.2109 150.646 11.8438 150.646 12.207C150.646 12.6758 150.389 13.0273 149.873 13.2617L149.697 13.1738L149.785 13.3672C149.34 13.9648 149.117 14.6328 149.117 15.3711V15.6523L149.205 16.3203H149.117L149.398 17.0938C149.504 17.0234 149.264 17.0234 148.678 17.0938V16.5312C148.678 16.4375 148.777 16.3379 148.977 16.2324C149.07 16.2324 149.193 16.3613 149.346 16.6191V17.2871C149.475 17.7441 149.539 17.9961 149.539 18.043C149.41 18.4648 149.346 18.752 149.346 18.9043C150.143 19.4785 151.021 20.0176 151.982 20.5215L152.264 20.9961C152.053 22.0156 151.672 22.5254 151.121 22.5254L150.453 22.4375C149.949 22.6953 149.598 22.8242 149.398 22.8242C148.672 22.5664 148.197 22.4375 147.975 22.4375C146.85 22.5547 146.182 22.6836 145.971 22.8242C144.752 22.8242 143.984 22.502 143.668 21.8574V21.5762C143.668 21.4004 143.955 20.7969 144.529 19.7656C145.15 19.8945 145.502 19.959 145.584 19.959C146.1 19.7363 146.48 19.4141 146.727 18.9922V18.2363C146.727 18.166 146.697 18.1309 146.639 18.1309C146.826 17.3105 146.92 16.7422 146.92 16.4258V13.0684C146.92 12.9277 146.891 12.8047 146.832 12.6992C146.949 12.3242 147.043 11.9082 147.113 11.4512L146.92 10.5898L147.201 9.44727C147.037 9.02539 146.85 8.76758 146.639 8.67383H146.533C146.229 8.67383 145.977 8.83789 145.777 9.16602C145.66 9.22461 145.531 9.25391 145.391 9.25391C144.195 8.66797 143.592 8.28711 143.58 8.11133V7.72461C143.58 7.30273 144.248 7.05078 145.584 6.96875C146.064 7.02734 146.381 7.08594 146.533 7.14453C146.557 7.02734 146.621 6.96875 146.727 6.96875H146.832C148.098 7.21484 148.73 7.625 148.73 8.19922C148.941 8.96094 149.164 9.3418 149.398 9.3418L150.066 9.06055C150.066 9.13086 150.102 9.16602 150.172 9.16602V9.06055C150.102 9.06055 150.066 9.03125 150.066 8.97266C150.172 8.97266 150.588 8.5918 151.314 7.83008C152.604 7.05664 153.301 6.66992 153.406 6.66992C153.875 6.66992 154.385 6.60547 154.936 6.47656ZM166.273 9.57031H166.361C166.561 9.62891 166.66 9.81641 166.66 10.1328V10.3262C166.66 10.4082 166.496 10.5664 166.168 10.8008L165.975 10.7129C166.045 9.95117 166.145 9.57031 166.273 9.57031ZM161.58 16.6367C161.838 16.7305 161.967 16.8242 161.967 16.918C161.908 17.1055 161.715 17.1992 161.387 17.1992C161.27 17.1992 161.211 17.1348 161.211 17.0059V16.918C161.211 16.8242 161.334 16.7305 161.58 16.6367ZM170.141 6.66992L171.002 6.77539C171.787 6.70508 172.197 6.66992 172.232 6.66992C173.92 6.98633 175.133 7.44336 175.871 8.04102C175.812 8.04102 175.783 8.07617 175.783 8.14648C175.842 8.14648 175.871 8.11133 175.871 8.04102L176.346 8.14648C176.439 8.14648 176.662 7.91797 177.014 7.46094L177.594 7.35547C178.098 7.39062 178.35 7.6543 178.35 8.14648L178.156 8.91992C178.227 9.49414 178.262 9.98633 178.262 10.3965L178.068 11.082C178.127 11.7383 178.156 12.2598 178.156 12.6465C177.863 12.8926 177.354 13.0156 176.627 13.0156C176.393 12.2305 176.17 11.6797 175.959 11.3633C176.029 11.3633 176.064 11.334 176.064 11.2754H175.959C175.959 11.334 175.93 11.3633 175.871 11.3633C175.402 10.2617 174.541 9.71094 173.287 9.71094V9.60547L173.586 9.11328V8.72656H173.393L172.812 8.83203C172.379 8.62109 172.127 8.51562 172.057 8.51562C170.908 9.04297 170.299 9.30664 170.229 9.30664L168.699 9.02539C168.066 9.38867 167.75 10.2617 167.75 11.6445C167.75 12.1602 168.26 12.5879 169.279 12.9277C169.279 12.9863 169.373 13.0508 169.561 13.1211C169.912 13.0508 170.199 13.0156 170.422 13.0156C170.422 13.1094 170.521 13.209 170.721 13.3145H171.195C171.477 13.0566 171.635 12.9277 171.67 12.9277H171.951C172.244 13.3848 172.947 13.6133 174.061 13.6133C174.213 13.6133 174.465 13.584 174.816 13.5254C175.297 13.8301 175.619 14.0586 175.783 14.2109C176.533 14.2109 177.037 14.4629 177.295 14.9668C178.443 15.7637 179.018 16.8418 179.018 18.2012V18.5879C179.018 18.7168 178.859 19.2383 178.543 20.1523C178.543 20.6445 178.004 21.1309 176.926 21.6113C176.621 21.9512 176.176 22.1211 175.59 22.1211C175.59 22.25 174.922 22.4375 173.586 22.6836C173.492 22.9648 173.328 23.1641 173.094 23.2812H172.918C172.578 23.2812 172.068 23.082 171.389 22.6836C171.131 22.5547 170.908 22.4902 170.721 22.4902C170.557 22.4902 170.299 22.6191 169.947 22.877C169.607 22.6895 169.033 22.5312 168.225 22.4023C168.189 22.2148 167.938 22.1211 167.469 22.1211H167.275C166.795 22.707 166.537 23 166.502 23C165.553 22.8594 165.078 22.5957 165.078 22.209C164.949 21.7871 164.885 21.4941 164.885 21.3301L165.166 20.3457V19.7656C165.166 19.1094 165.072 18.6875 164.885 18.5L164.99 17.9902V16.7422C164.99 16.2852 165.242 16.0566 165.746 16.0566C166.449 16.0566 167.211 17.1934 168.031 19.4668C169.625 20.5684 170.709 21.1191 171.283 21.1191C171.494 21.1191 171.652 21.0898 171.758 21.0312C172.109 21.0898 172.396 21.1191 172.619 21.1191C173.287 21.1191 174.055 20.8613 174.922 20.3457C175.379 20.3457 175.789 20.0234 176.152 19.3789C176.539 19.2383 176.732 18.9746 176.732 18.5879V17.709C176.732 17.334 176.51 17.041 176.064 16.8301H175.59L175.203 17.1289L175.01 17.0234V17.1289C175.068 17.1289 175.098 17.1582 175.098 17.2168H174.922C174.816 17.2168 174.688 16.8945 174.535 16.25H174.148C174.09 16.25 173.838 16.3145 173.393 16.4434H173.287C172.666 16.3613 172.062 15.9688 171.477 15.2656H171.283C170.92 15.6992 170.633 15.9277 170.422 15.9512C170.094 15.9395 169.584 15.6816 168.893 15.1777C168.131 15.1777 167.75 14.9785 167.75 14.5801C166.543 13.9355 165.939 13.4492 165.939 13.1211C165.939 12.8984 165.846 12.6055 165.658 12.2422C165.717 12.2422 165.746 12.207 165.746 12.1367C165.594 12.1367 165.5 11.9082 165.465 11.4512C165.465 9.70508 165.717 8.83203 166.221 8.83203C166.689 7.91797 167.328 7.46094 168.137 7.46094C168.465 7.29688 169.104 7.06836 170.053 6.77539C170.053 6.70508 170.082 6.66992 170.141 6.66992ZM175.484 11.9609H175.783V12.1367C175.783 12.2656 175.719 12.3301 175.59 12.3301H175.484C175.355 12.3301 175.291 12.2656 175.291 12.1367C175.314 12.0195 175.379 11.9609 175.484 11.9609Z" fill="#FC6D6D"/>
</g>
<defs>
<filter id="filter0_d_2_2" x="0.185547" y="0.394531" width="280.988" height="32.6445" filterUnits="userSpaceOnUse" color-interpolation-filters="sRGB">
<feFlood flood-opacity="0" result="BackgroundImageFix"/>
<feColorMatrix in="SourceAlpha" type="matrix" values="0 0 0 0 0 0 0 0 0 0 0 0 0 0 0 0 0 0 127 0" result="hardAlpha"/>
<feOffset dy="4"/>
<feGaussianBlur stdDeviation="2"/>
<feComposite in2="hardAlpha" operator="out"/>
<feColorMatrix type="matrix" values="0 0 0 0 0 0 0 0 0 0 0 0 0 0 0 0 0 0 0.25 0"/>
<feBlend mode="normal" in2="BackgroundImageFix" result="effect1_dropShadow_2_2"/>
<feBlend mode="normal" in="SourceGraphic" in2="effect1_dropShadow_2_2" result="shape"/>
</filter>
</defs>
</svg>
