<svg width="279" height="45" viewBox="0 0 279 45" fill="none" xmlns="http://www.w3.org/2000/svg">
<path d="M88 0L154.967 10.8065C156.966 11.1289 158.797 12.1161 160.164 13.6083V13.6083C166.751 20.7947 166.414 31.9202 159.404 38.6944L158.053 40H133.473H88V0Z" fill="#BB004B"/>
<g filter="url(#filter0_d_4_5)">
<path d="M77.3965 11.4824C78.0879 11.7402 78.5332 11.8691 78.7324 11.8691H78.9258C79.1367 11.8691 79.582 11.8047 80.2617 11.6758C80.8242 11.8047 81.2051 11.8691 81.4043 11.8691V11.7812C81.6152 11.8984 82.2539 12.0215 83.3203 12.1504C84.5391 14.1074 85.3359 15.2852 85.7109 15.6836V15.877L85.6055 16.8438C85.6758 17.5 85.7109 18.0391 85.7109 18.4609C85.582 18.7773 85.4238 19.3809 85.2363 20.2715C84.5918 21.0801 84.2695 21.6191 84.2695 21.8887C84.2695 22.0879 84.4277 22.375 84.7441 22.75L84.6562 22.9434H84.7441C84.7441 22.8848 84.7793 22.8555 84.8496 22.8555C85.0254 23.1719 85.2129 23.3301 85.4121 23.3301L85.3242 23.5234L85.5176 23.418C86.0918 23.8516 86.5664 24.5254 86.9414 25.4395C87.1289 25.4395 87.2871 25.5625 87.416 25.8086C87.416 25.8789 87.3867 25.9141 87.3281 25.9141L87.416 26.1074C87.0996 26.4004 86.9414 26.7168 86.9414 27.0566C86.9414 27.5488 86.9121 28.4395 86.8535 29.7285C86.3496 30.1387 85.9336 30.8066 85.6055 31.7324C84.9727 32.0488 84.6562 32.4297 84.6562 32.875V33.0684C84.8438 33.3027 84.9375 33.5254 84.9375 33.7363V34.123C84.9375 34.5098 84.7793 34.7031 84.4629 34.7031C83.7832 34.1289 83.209 33.8418 82.7402 33.8418H82.0723C81.252 34.0293 80.8066 34.123 80.7363 34.123C80.666 34.123 80.3145 34.0586 79.6816 33.9297H79.1191L78.9258 33.8418C78.9258 33.9473 78.5742 34.1055 77.8711 34.3164C77.8125 34.3164 77.625 34.1875 77.3086 33.9297C77.1211 33.9297 76.4824 33.9648 75.3926 34.0352L74.4434 33.7363H73.8633L72.7207 34.2109C72.2168 34.0234 71.6074 33.8652 70.8926 33.7363C70.8926 33.6074 70.3242 33.5137 69.1875 33.4551C69.1289 33.1973 69.0645 33.0684 68.9941 33.0684C69.0879 32.4941 69.2461 32.207 69.4688 32.207C69.9023 32.2773 70.2539 32.3125 70.5234 32.3125C71.2266 32.1133 71.5781 31.9844 71.5781 31.9258C71.8242 32.0547 72.1699 32.1191 72.6152 32.1191H72.8086C73.2305 32.1191 73.5469 31.7676 73.7578 31.0645H73.8633C73.8633 31.0059 73.8281 30.9766 73.7578 30.9766C74.4023 30.0391 74.7246 29.4941 74.7246 29.3418C74.7246 29.248 74.502 29.0605 74.0566 28.7793C73.7988 28.3105 73.6699 28.0527 73.6699 28.0059C73.9863 27.1621 74.1445 26.5879 74.1445 26.2832C74.1445 25.9199 73.9219 25.6973 73.4766 25.6152C73.1602 25.1934 73.002 24.625 73.002 23.9102C73.002 23.7695 73.0957 23.4473 73.2832 22.9434C73.0957 21.748 73.002 20.9512 73.002 20.5527C73.002 19.4746 73.1953 18.4902 73.582 17.5996H73.4766C73.3477 17.5996 73.2832 17.5703 73.2832 17.5117L74.0566 16.0703C73.3535 14.9922 73.002 14.2949 73.002 13.9785C72.7441 13.8496 72.6152 13.7207 72.6152 13.5918H72.5273C72.5273 13.6621 72.4922 13.7559 72.4219 13.873C71.8125 13.6152 71.3672 13.4863 71.0859 13.4863H70.998C70.377 13.6152 70.0254 13.6797 69.9434 13.6797V13.4863L70.0488 13.293H69.8555V12.8184C69.8555 12.7598 69.8203 12.7305 69.75 12.7305C69.75 12.3789 70.3887 12.1855 71.666 12.1504C71.6895 12.0684 71.9766 11.9453 72.5273 11.7812V11.6758H72.6152C72.8848 11.9336 73.1426 12.0625 73.3887 12.0625H73.9512C74.584 11.875 74.9355 11.7812 75.0059 11.7812C76.0371 11.8398 76.6113 11.8691 76.7285 11.8691L77.3965 11.4824ZM78.7324 14.1543C76.5645 14.1543 75.4805 14.3184 75.4805 14.6465C75.293 15.2441 75.1992 15.625 75.1992 15.7891V15.9824C75.1992 16.7324 75.4219 17.2422 75.8672 17.5117C76.1836 17.5117 76.377 17.9863 76.4473 18.9355C76.5293 19.0645 76.623 19.1289 76.7285 19.1289V19.4102C76.7285 20.2656 77.4902 20.9336 79.0137 21.4141H79.875C81.4688 20.9453 82.2656 20.5996 82.2656 20.377C82.2891 20.248 82.6055 19.9609 83.2148 19.5156C83.6602 19.1523 83.8828 18.291 83.8828 16.9316C83.8242 16.8027 83.7949 16.709 83.7949 16.6504C83.8535 16.6504 83.8828 16.6152 83.8828 16.5449C83.6484 16.5449 83.4258 16.3223 83.2148 15.877C83.0859 15.7715 82.5762 15.6777 81.6855 15.5957C80.291 15.1973 79.5938 14.7813 79.5938 14.3477C79.6523 14.3477 79.6816 14.3184 79.6816 14.2598H79.5938C79.5938 14.3184 79.5586 14.3477 79.4883 14.3477C79.4883 14.3008 79.3945 14.207 79.207 14.0664L78.7324 14.1543ZM75.1113 26.7754C75.4277 27.877 75.5859 28.5098 75.5859 28.6738C75.4336 28.6738 75.334 28.832 75.2871 29.1484C75.2871 30.7422 75.6094 31.5391 76.2539 31.5391L78.6445 31.9258L79.3125 31.7324C79.8516 31.8027 80.2617 31.8379 80.543 31.8379C80.8945 31.4629 82.043 30.918 83.9883 30.2031C84.3633 29.4414 84.6152 28.6797 84.7441 27.918L84.0762 25.5273C83.8887 25.4805 83.6367 25.0996 83.3203 24.3848C83.2031 24.3145 83.0742 24.2793 82.9336 24.2793H82.6523C82.582 24.2793 82.5469 24.3145 82.5469 24.3848C82.2773 24.3848 81.9902 24.0977 81.6855 23.5234C81.6035 23.4531 81.2578 23.3887 80.6484 23.3301C80.0625 23.459 79.7402 23.5234 79.6816 23.5234C79.5176 23.5234 78.7852 23.459 77.4844 23.3301C76.8633 23.3301 76.166 24.0625 75.3926 25.5273C75.2051 26.2188 75.1113 26.6348 75.1113 26.7754ZM88.2773 28.4805C88.4062 28.5039 88.4707 28.5684 88.4707 28.6738V28.8672L88.1016 28.9727L87.9961 28.7793C87.9961 28.6855 88.0898 28.5859 88.2773 28.4805ZM86.2734 32.875H86.4668C86.5957 32.8984 86.6602 32.9629 86.6602 33.0684L86.3789 33.2617L86.2734 33.0684V32.875ZM167.906 27.9355H168.293C168.891 27.9355 169.617 28.2871 170.473 28.9902C170.777 29.5996 170.93 30.0273 170.93 30.2734C170.93 30.3672 170.977 30.6426 171.07 31.0996C170.766 32.2598 170.438 32.8398 170.086 32.8398C169.887 32.8398 169.465 33.168 168.82 33.8242H168.592C167.713 33.6836 166.881 33.1797 166.096 32.3125C166.096 32.207 165.92 31.7793 165.568 31.0293C165.568 30.7949 165.516 30.4141 165.41 29.8867C165.41 29.2539 166.02 28.6562 167.238 28.0938C167.555 27.9883 167.777 27.9355 167.906 27.9355Z" fill="#BB004B"/>
<path d="M97.998 11.4824C98.6895 11.7402 99.1348 11.8691 99.334 11.8691H99.5273C99.7383 11.8691 100.184 11.8047 100.863 11.6758C101.426 11.8047 101.807 11.8691 102.006 11.8691V11.7812C102.217 11.8984 102.855 12.0215 103.922 12.1504C105.141 14.1074 105.938 15.2852 106.312 15.6836V15.877L106.207 16.8438C106.277 17.5 106.312 18.0391 106.312 18.4609C106.184 18.7773 106.025 19.3809 105.838 20.2715C105.193 21.0801 104.871 21.6191 104.871 21.8887C104.871 22.0879 105.029 22.375 105.346 22.75L105.258 22.9434H105.346C105.346 22.8848 105.381 22.8555 105.451 22.8555C105.627 23.1719 105.814 23.3301 106.014 23.3301L105.926 23.5234L106.119 23.418C106.693 23.8516 107.168 24.5254 107.543 25.4395C107.73 25.4395 107.889 25.5625 108.018 25.8086C108.018 25.8789 107.988 25.9141 107.93 25.9141L108.018 26.1074C107.701 26.4004 107.543 26.7168 107.543 27.0566C107.543 27.5488 107.514 28.4395 107.455 29.7285C106.951 30.1387 106.535 30.8066 106.207 31.7324C105.574 32.0488 105.258 32.4297 105.258 32.875V33.0684C105.445 33.3027 105.539 33.5254 105.539 33.7363V34.123C105.539 34.5098 105.381 34.7031 105.064 34.7031C104.385 34.1289 103.811 33.8418 103.342 33.8418H102.674C101.854 34.0293 101.408 34.123 101.338 34.123C101.268 34.123 100.916 34.0586 100.283 33.9297H99.7207L99.5273 33.8418C99.5273 33.9473 99.1758 34.1055 98.4727 34.3164C98.4141 34.3164 98.2266 34.1875 97.9102 33.9297C97.7227 33.9297 97.084 33.9648 95.9941 34.0352L95.0449 33.7363H94.4648L93.3223 34.2109C92.8184 34.0234 92.209 33.8652 91.4941 33.7363C91.4941 33.6074 90.9258 33.5137 89.7891 33.4551C89.7305 33.1973 89.666 33.0684 89.5957 33.0684C89.6895 32.4941 89.8477 32.207 90.0703 32.207C90.5039 32.2773 90.8555 32.3125 91.125 32.3125C91.8281 32.1133 92.1797 31.9844 92.1797 31.9258C92.4258 32.0547 92.7715 32.1191 93.2168 32.1191H93.4102C93.832 32.1191 94.1484 31.7676 94.3594 31.0645H94.4648C94.4648 31.0059 94.4297 30.9766 94.3594 30.9766C95.0039 30.0391 95.3262 29.4941 95.3262 29.3418C95.3262 29.248 95.1035 29.0605 94.6582 28.7793C94.4004 28.3105 94.2715 28.0527 94.2715 28.0059C94.5879 27.1621 94.7461 26.5879 94.7461 26.2832C94.7461 25.9199 94.5234 25.6973 94.0781 25.6152C93.7617 25.1934 93.6035 24.625 93.6035 23.9102C93.6035 23.7695 93.6973 23.4473 93.8848 22.9434C93.6973 21.748 93.6035 20.9512 93.6035 20.5527C93.6035 19.4746 93.7969 18.4902 94.1836 17.5996H94.0781C93.9492 17.5996 93.8848 17.5703 93.8848 17.5117L94.6582 16.0703C93.9551 14.9922 93.6035 14.2949 93.6035 13.9785C93.3457 13.8496 93.2168 13.7207 93.2168 13.5918H93.1289C93.1289 13.6621 93.0938 13.7559 93.0234 13.873C92.4141 13.6152 91.9688 13.4863 91.6875 13.4863H91.5996C90.9785 13.6152 90.627 13.6797 90.5449 13.6797V13.4863L90.6504 13.293H90.457V12.8184C90.457 12.7598 90.4219 12.7305 90.3516 12.7305C90.3516 12.3789 90.9902 12.1855 92.2676 12.1504C92.291 12.0684 92.5781 11.9453 93.1289 11.7812V11.6758H93.2168C93.4863 11.9336 93.7441 12.0625 93.9902 12.0625H94.5527C95.1855 11.875 95.5371 11.7812 95.6074 11.7812C96.6387 11.8398 97.2129 11.8691 97.3301 11.8691L97.998 11.4824ZM99.334 14.1543C97.166 14.1543 96.082 14.3184 96.082 14.6465C95.8945 15.2441 95.8008 15.625 95.8008 15.7891V15.9824C95.8008 16.7324 96.0234 17.2422 96.4688 17.5117C96.7852 17.5117 96.9785 17.9863 97.0488 18.9355C97.1309 19.0645 97.2246 19.1289 97.3301 19.1289V19.4102C97.3301 20.2656 98.0918 20.9336 99.6152 21.4141H100.477C102.07 20.9453 102.867 20.5996 102.867 20.377C102.891 20.248 103.207 19.9609 103.816 19.5156C104.262 19.1523 104.484 18.291 104.484 16.9316C104.426 16.8027 104.396 16.709 104.396 16.6504C104.455 16.6504 104.484 16.6152 104.484 16.5449C104.25 16.5449 104.027 16.3223 103.816 15.877C103.688 15.7715 103.178 15.6777 102.287 15.5957C100.893 15.1973 100.195 14.7813 100.195 14.3477C100.254 14.3477 100.283 14.3184 100.283 14.2598H100.195C100.195 14.3184 100.16 14.3477 100.09 14.3477C100.09 14.3008 99.9961 14.207 99.8086 14.0664L99.334 14.1543ZM95.7129 26.7754C96.0293 27.877 96.1875 28.5098 96.1875 28.6738C96.0352 28.6738 95.9355 28.832 95.8887 29.1484C95.8887 30.7422 96.2109 31.5391 96.8555 31.5391L99.2461 31.9258L99.9141 31.7324C100.453 31.8027 100.863 31.8379 101.145 31.8379C101.496 31.4629 102.645 30.918 104.59 30.2031C104.965 29.4414 105.217 28.6797 105.346 27.918L104.678 25.5273C104.49 25.4805 104.238 25.0996 103.922 24.3848C103.805 24.3145 103.676 24.2793 103.535 24.2793H103.254C103.184 24.2793 103.148 24.3145 103.148 24.3848C102.879 24.3848 102.592 24.0977 102.287 23.5234C102.205 23.4531 101.859 23.3887 101.25 23.3301C100.664 23.459 100.342 23.5234 100.283 23.5234C100.119 23.5234 99.3867 23.459 98.0859 23.3301C97.4648 23.3301 96.7676 24.0625 95.9941 25.5273C95.8066 26.2188 95.7129 26.6348 95.7129 26.7754ZM108.879 28.4805C109.008 28.5039 109.072 28.5684 109.072 28.6738V28.8672L108.703 28.9727L108.598 28.7793C108.598 28.6855 108.691 28.5859 108.879 28.4805ZM106.875 32.875H107.068C107.197 32.8984 107.262 32.9629 107.262 33.0684L106.98 33.2617L106.875 33.0684V32.875ZM117.615 11.3945C118.447 11.3945 119.373 11.9102 120.393 12.9414V13.0469C120.229 13.2812 120.07 13.9258 119.918 14.9805C119.531 15.7656 119.051 16.1582 118.477 16.1582C118.477 16.2988 117.967 16.3926 116.947 16.4395C115.928 16.0527 115.418 15.2441 115.418 14.0137C115.734 12.2676 116.467 11.3945 117.615 11.3945ZM115.998 17.5117C117.779 17.5117 118.67 18.0332 118.67 19.0762L118.758 19.2695L118.67 20.2363C118.857 20.8105 118.951 21.291 118.951 21.6777V25.457C118.951 26.3008 118.986 27.1738 119.057 28.0762C118.986 28.3691 118.951 28.8906 118.951 29.6406C118.951 30.8594 119.303 31.4688 120.006 31.4688C120.498 31.5391 121.037 31.5742 121.623 31.5742H121.729C121.857 31.5742 122.174 31.5098 122.678 31.3809C123.568 31.5449 124.014 31.7031 124.014 31.8555L124.207 31.75C124.57 32.0781 124.857 32.3711 125.068 32.6289C124.916 33.2852 124.723 33.7363 124.488 33.9824C121.969 33.8652 120.445 33.707 119.918 33.5078C119.355 33.5781 119.004 33.6133 118.863 33.6133C118.652 33.4844 118.459 33.4199 118.283 33.4199H117.141C116.449 33.4199 115.559 33.6426 114.469 34.0879C114.141 33.9004 113.824 33.8066 113.52 33.8066H112.939C112.307 33.8184 111.99 33.877 111.99 33.9824C110.713 33.6895 110.074 33.209 110.074 32.541C110.074 31.6387 111.029 31.1875 112.939 31.1875C113.162 31.2461 113.479 31.2754 113.889 31.2754L114.557 30.9941L115.137 31.082H115.225C116.115 31.082 116.561 30.1738 116.561 28.3574C116.643 28.3574 116.707 28.1699 116.754 27.7949L116.561 26.916C116.561 26.8457 116.596 26.7461 116.666 26.6172C116.666 26.5703 116.631 26.377 116.561 26.0371C116.631 25.2285 116.666 24.7422 116.666 24.5781L116.561 23.9102C116.76 23.3594 116.859 22.9727 116.859 22.75V22.1699C116.859 20.8809 116.479 20.2363 115.717 20.2363C115.6 20.1543 115.471 20.1133 115.33 20.1133L114.381 20.3242L113.695 20.2363C112.887 20.2949 112.441 20.3594 112.359 20.4297C111.914 20.2305 111.691 19.9375 111.691 19.5508C111.82 19.0234 111.949 18.666 112.078 18.4785H111.99C111.99 18.1738 112.529 17.9805 113.607 17.8984C113.607 17.8047 113.83 17.7051 114.275 17.5996C114.369 17.5996 114.656 17.6641 115.137 17.793L115.998 17.5117ZM122.027 19.041H122.52C122.52 19.2051 122.602 19.2871 122.766 19.2871V19.9023H122.273C122.074 19.9023 121.951 19.7383 121.904 19.4102C121.986 19.2461 122.027 19.123 122.027 19.041ZM122.871 35.6523C123 35.7109 123.094 35.7402 123.152 35.7402V35.8457C123.152 35.9746 123.094 36.0391 122.977 36.0391H122.678C122.549 36.0391 122.484 35.9746 122.484 35.8457L122.871 35.6523ZM138.111 17.4766C138.51 17.6055 139.178 17.7051 140.115 17.7754C140.947 18.2676 141.363 18.9004 141.363 19.6738C141.457 19.6738 141.744 20.2188 142.225 21.3086C142.412 21.3672 142.506 21.5547 142.506 21.8711C142.506 21.9883 142.383 22.2754 142.137 22.7324C142.254 23.3066 142.412 23.5938 142.611 23.5938V23.875C142.295 24.5547 142.137 25.3867 142.137 26.3711C142.137 27.168 142.102 28.1523 142.031 29.3242L142.225 29.4297H142.506L142.225 30.0273C142.506 30.0273 142.729 30.2207 142.893 30.6074C143.408 30.4902 143.666 30.5078 143.666 30.6602C143.666 30.8477 144.17 31.2637 145.178 31.9082C145.623 32.3066 145.846 32.5293 145.846 32.5762V32.6641C145.365 33.3672 144.639 33.7188 143.666 33.7188C143.666 33.7891 143.631 33.8242 143.561 33.8242C143.221 33.7539 142.934 33.7188 142.699 33.7188L142.225 33.8242C141.791 33.4961 141.475 33.332 141.275 33.332H140.801C140.754 33.332 140.561 33.5254 140.221 33.9121L139.166 33.5254L138.691 33.6309C138.258 33.4316 137.906 33.332 137.637 33.332H137.355C137.285 33.332 137.25 33.3672 137.25 33.4375C137.051 33.3086 136.893 33.2441 136.775 33.2441V33.0508C136.775 31.9023 137.062 31.3281 137.637 31.3281C137.895 31.0352 138.34 30.7832 138.973 30.5723C139.617 29.8809 139.939 28.9551 139.939 27.7949C139.939 27.1035 139.998 26.4062 140.115 25.7031C140.115 25.1172 139.863 24.4141 139.359 23.5938C139.488 23.1953 139.553 22.9434 139.553 22.8379C139.342 22.041 139.119 21.373 138.885 20.834C138.65 20.834 138.234 20.6113 137.637 20.166C137.566 20.166 137.473 20.1309 137.355 20.0605C136.57 20.6934 135.902 21.1094 135.352 21.3086C134.332 22.2109 133.822 22.8438 133.822 23.207C133.822 23.6758 133.564 24.0273 133.049 24.2617L132.873 24.1738L132.961 24.3672C132.516 24.9648 132.293 25.6328 132.293 26.3711V26.6523L132.381 27.3203H132.293L132.574 28.0938C132.68 28.0234 132.439 28.0234 131.854 28.0938V27.5312C131.854 27.4375 131.953 27.3379 132.152 27.2324C132.246 27.2324 132.369 27.3613 132.521 27.6191V28.2871C132.65 28.7441 132.715 28.9961 132.715 29.043C132.586 29.4648 132.521 29.752 132.521 29.9043C133.318 30.4785 134.197 31.0176 135.158 31.5215L135.439 31.9961C135.229 33.0156 134.848 33.5254 134.297 33.5254L133.629 33.4375C133.125 33.6953 132.773 33.8242 132.574 33.8242C131.848 33.5664 131.373 33.4375 131.15 33.4375C130.025 33.5547 129.357 33.6836 129.146 33.8242C127.928 33.8242 127.16 33.502 126.844 32.8574V32.5762C126.844 32.4004 127.131 31.7969 127.705 30.7656C128.326 30.8945 128.678 30.959 128.76 30.959C129.275 30.7363 129.656 30.4141 129.902 29.9922V29.2363C129.902 29.166 129.873 29.1309 129.814 29.1309C130.002 28.3105 130.096 27.7422 130.096 27.4258V24.0684C130.096 23.9277 130.066 23.8047 130.008 23.6992C130.125 23.3242 130.219 22.9082 130.289 22.4512L130.096 21.5898L130.377 20.4473C130.213 20.0254 130.025 19.7676 129.814 19.6738H129.709C129.404 19.6738 129.152 19.8379 128.953 20.166C128.836 20.2246 128.707 20.2539 128.566 20.2539C127.371 19.668 126.768 19.2871 126.756 19.1113V18.7246C126.756 18.3027 127.424 18.0508 128.76 17.9688C129.24 18.0273 129.557 18.0859 129.709 18.1445C129.732 18.0273 129.797 17.9688 129.902 17.9688H130.008C131.273 18.2148 131.906 18.625 131.906 19.1992C132.117 19.9609 132.34 20.3418 132.574 20.3418L133.242 20.0605C133.242 20.1309 133.277 20.166 133.348 20.166V20.0605C133.277 20.0605 133.242 20.0312 133.242 19.9727C133.348 19.9727 133.764 19.5918 134.49 18.8301C135.779 18.0566 136.477 17.6699 136.582 17.6699C137.051 17.6699 137.561 17.6055 138.111 17.4766ZM149.449 20.5703H149.537C149.736 20.6289 149.836 20.8164 149.836 21.1328V21.3262C149.836 21.4082 149.672 21.5664 149.344 21.8008L149.15 21.7129C149.221 20.9512 149.32 20.5703 149.449 20.5703ZM144.756 27.6367C145.014 27.7305 145.143 27.8242 145.143 27.918C145.084 28.1055 144.891 28.1992 144.562 28.1992C144.445 28.1992 144.387 28.1348 144.387 28.0059V27.918C144.387 27.8242 144.51 27.7305 144.756 27.6367ZM153.316 17.6699L154.178 17.7754C154.963 17.7051 155.373 17.6699 155.408 17.6699C157.096 17.9863 158.309 18.4434 159.047 19.041C158.988 19.041 158.959 19.0762 158.959 19.1465C159.018 19.1465 159.047 19.1113 159.047 19.041L159.521 19.1465C159.615 19.1465 159.838 18.918 160.189 18.4609L160.77 18.3555C161.273 18.3906 161.525 18.6543 161.525 19.1465L161.332 19.9199C161.402 20.4941 161.438 20.9863 161.438 21.3965L161.244 22.082C161.303 22.7383 161.332 23.2598 161.332 23.6465C161.039 23.8926 160.529 24.0156 159.803 24.0156C159.568 23.2305 159.346 22.6797 159.135 22.3633C159.205 22.3633 159.24 22.334 159.24 22.2754H159.135C159.135 22.334 159.105 22.3633 159.047 22.3633C158.578 21.2617 157.717 20.7109 156.463 20.7109V20.6055L156.762 20.1133V19.7266H156.568L155.988 19.832C155.555 19.6211 155.303 19.5156 155.232 19.5156C154.084 20.043 153.475 20.3066 153.404 20.3066L151.875 20.0254C151.242 20.3887 150.926 21.2617 150.926 22.6445C150.926 23.1602 151.436 23.5879 152.455 23.9277C152.455 23.9863 152.549 24.0508 152.736 24.1211C153.088 24.0508 153.375 24.0156 153.598 24.0156C153.598 24.1094 153.697 24.209 153.896 24.3145H154.371C154.652 24.0566 154.811 23.9277 154.846 23.9277H155.127C155.42 24.3848 156.123 24.6133 157.236 24.6133C157.389 24.6133 157.641 24.584 157.992 24.5254C158.473 24.8301 158.795 25.0586 158.959 25.2109C159.709 25.2109 160.213 25.4629 160.471 25.9668C161.619 26.7637 162.193 27.8418 162.193 29.2012V29.5879C162.193 29.7168 162.035 30.2383 161.719 31.1523C161.719 31.6445 161.18 32.1309 160.102 32.6113C159.797 32.9512 159.352 33.1211 158.766 33.1211C158.766 33.25 158.098 33.4375 156.762 33.6836C156.668 33.9648 156.504 34.1641 156.27 34.2812H156.094C155.754 34.2812 155.244 34.082 154.564 33.6836C154.307 33.5547 154.084 33.4902 153.896 33.4902C153.732 33.4902 153.475 33.6191 153.123 33.877C152.783 33.6895 152.209 33.5312 151.4 33.4023C151.365 33.2148 151.113 33.1211 150.645 33.1211H150.451C149.971 33.707 149.713 34 149.678 34C148.729 33.8594 148.254 33.5957 148.254 33.209C148.125 32.7871 148.061 32.4941 148.061 32.3301L148.342 31.3457V30.7656C148.342 30.1094 148.248 29.6875 148.061 29.5L148.166 28.9902V27.7422C148.166 27.2852 148.418 27.0566 148.922 27.0566C149.625 27.0566 150.387 28.1934 151.207 30.4668C152.801 31.5684 153.885 32.1191 154.459 32.1191C154.67 32.1191 154.828 32.0898 154.934 32.0312C155.285 32.0898 155.572 32.1191 155.795 32.1191C156.463 32.1191 157.23 31.8613 158.098 31.3457C158.555 31.3457 158.965 31.0234 159.328 30.3789C159.715 30.2383 159.908 29.9746 159.908 29.5879V28.709C159.908 28.334 159.686 28.041 159.24 27.8301H158.766L158.379 28.1289L158.186 28.0234V28.1289C158.244 28.1289 158.273 28.1582 158.273 28.2168H158.098C157.992 28.2168 157.863 27.8945 157.711 27.25H157.324C157.266 27.25 157.014 27.3145 156.568 27.4434H156.463C155.842 27.3613 155.238 26.9688 154.652 26.2656H154.459C154.096 26.6992 153.809 26.9277 153.598 26.9512C153.27 26.9395 152.76 26.6816 152.068 26.1777C151.307 26.1777 150.926 25.9785 150.926 25.5801C149.719 24.9355 149.115 24.4492 149.115 24.1211C149.115 23.8984 149.021 23.6055 148.834 23.2422C148.893 23.2422 148.922 23.207 148.922 23.1367C148.77 23.1367 148.676 22.9082 148.641 22.4512C148.641 20.7051 148.893 19.832 149.396 19.832C149.865 18.918 150.504 18.4609 151.312 18.4609C151.641 18.2969 152.279 18.0684 153.229 17.7754C153.229 17.7051 153.258 17.6699 153.316 17.6699ZM158.66 22.9609H158.959V23.1367C158.959 23.2656 158.895 23.3301 158.766 23.3301H158.66C158.531 23.3301 158.467 23.2656 158.467 23.1367C158.49 23.0195 158.555 22.9609 158.66 22.9609Z" fill="#FC6D6D"/>
<path d="M181.371 17.5645C182.73 17.5645 183.557 17.8223 183.85 18.3379C184.236 18.7246 184.559 18.918 184.816 18.918L187.488 17.5645C189.457 17.7285 190.441 18.0508 190.441 18.5312C191.145 19.1055 191.496 19.6211 191.496 20.0781C191.496 20.3945 191.525 20.5527 191.584 20.5527L191.496 20.7461V21.4316C191.496 21.8887 191.561 22.2461 191.689 22.5039C191.561 22.9375 191.496 23.3242 191.496 23.6641C191.625 24.2852 191.689 24.6426 191.689 24.7363V25.4922C191.689 25.7734 191.531 26.7109 191.215 28.3047V28.3926C191.215 30.209 191.959 31.1172 193.447 31.1172L193.553 31.6094L193.939 32.084V32.4707C193.939 33.1855 193.219 33.6016 191.777 33.7188C191.777 33.6367 191.619 33.4785 191.303 33.2441H190.916C190.787 33.2441 190.406 33.4375 189.773 33.8242C189.352 34.0234 189.064 34.123 188.912 34.123C188.584 34.123 188.332 33.8594 188.156 33.332C188.086 33.332 187.986 33.3027 187.857 33.2441C187.424 33.502 187.172 33.6309 187.102 33.6309C186.715 33.5605 186.521 33.4609 186.521 33.332C186.592 33.332 186.627 33.3027 186.627 33.2441C184.717 33.5605 183.697 33.7188 183.568 33.7188C183.018 33.4609 182.701 33.332 182.619 33.332C182.291 33.332 182.127 33.3965 182.127 33.5254C181.939 33.5254 181.752 33.3379 181.564 32.9629C181.623 31.8613 181.752 31.3105 181.951 31.3105C181.951 31.3809 181.98 31.416 182.039 31.416V31.3105H181.951C182.455 30.373 182.707 29.7578 182.707 29.4648L182.619 29.2715C182.865 28.0059 182.988 27.2617 182.988 27.0391C182.988 26.6641 182.865 25.8262 182.619 24.5254C182.619 24.4082 182.678 24.2148 182.795 23.9453C182.795 21.5312 182.385 20.2422 181.564 20.0781C181.564 20.0078 181.529 19.9727 181.459 19.9727C181.459 20.0664 181.172 20.2891 180.598 20.6406L180.035 21.7129C180.035 22.1699 179.842 22.3984 179.455 22.3984C178.963 22.3984 178.611 22.9492 178.4 24.0508C178.4 24.5312 178.307 25.0469 178.119 25.5977V25.8789C178.295 26.1836 178.453 26.7344 178.594 27.5312C178.594 27.6133 178.529 28.6152 178.4 30.5371C178.6 30.5957 178.699 30.6602 178.699 30.7305C179.156 30.5312 179.443 30.4316 179.561 30.4316C179.807 30.502 179.93 30.6602 179.93 30.9062L179.842 31.7852C179.971 32.2539 180.035 32.6113 180.035 32.8574C179.648 33.584 179.455 34.0352 179.455 34.2109L179.086 34.3867C178.758 34.0117 178.471 33.8242 178.225 33.8242C177.428 33.7422 176.818 33.6074 176.396 33.4199L175.834 33.5078C175.471 33.5078 175.09 33.2266 174.691 32.6641L174.41 31.8906C174.855 31.4219 175.459 30.9707 176.221 30.5371V28.3047C176.221 27.9297 176.186 27.4141 176.115 26.7578C176.244 26.5234 176.309 26.2598 176.309 25.9668V22.1172C176.309 20.3594 175.928 19.4805 175.166 19.4805V19.3926L174.973 19.4805C174.656 19.3516 174.498 19.1289 174.498 18.8125C174.498 18.168 175.295 17.8457 176.889 17.8457C177.123 17.8457 177.662 18.2031 178.506 18.918C178.506 18.5195 179.332 18.127 180.984 17.7402C181.242 17.6699 181.371 17.6113 181.371 17.5645ZM185.379 23.2598C185.379 23.3301 185.414 23.3652 185.484 23.3652L185.186 24.0508C185.256 25.3047 185.291 26.1426 185.291 26.5645C185.221 27.1387 185.186 27.4961 185.186 27.6367L185.379 28.498C185.438 28.6152 185.467 28.7441 185.467 28.8848C185.467 29.0371 185.438 29.166 185.379 29.2715L185.66 29.957C185.531 30.2148 185.467 30.4375 185.467 30.625C186.264 31.2109 186.838 31.5039 187.189 31.5039C187.271 31.5039 187.559 31.2109 188.051 30.625C188.449 30.625 188.801 29.916 189.105 28.498C189.105 28.2285 189.17 27.8418 189.299 27.3379C189.193 26.4238 189.1 25.9668 189.018 25.9668C189.205 25.5566 189.328 24.4023 189.387 22.5039C189.387 21.2969 188.977 20.582 188.156 20.3594C187.43 20.3594 186.984 20.5586 186.82 20.957C186.82 21.0508 186.562 21.2734 186.047 21.625C186.047 21.8242 185.824 22.3047 185.379 23.0664V23.2598ZM203.467 17.6172C203.689 17.8047 204.264 17.9395 205.189 18.0215C205.705 18.373 206.086 18.7305 206.332 19.0938C206.273 19.0938 206.244 19.1289 206.244 19.1992C206.361 19.1289 206.455 19.0938 206.525 19.0938C206.865 19.1992 207.281 19.5566 207.773 20.166C209.039 20.8809 209.672 22.4922 209.672 25C209.672 25.6445 209.133 26.1367 208.055 26.4766L207.58 26.3887C206.795 26.3887 206.092 26.6172 205.471 27.0742C205.025 27.0742 204.773 27.1035 204.715 27.1621C204.457 27.0332 204.234 26.9688 204.047 26.9688L203.379 27.3555C202.957 27.2266 202.67 27.1621 202.518 27.1621C202.377 27.1621 202.025 27.1973 201.463 27.2676C200.795 26.9512 200.191 26.7812 199.652 26.7578C199.008 26.8984 198.686 27.127 198.686 27.4434C198.404 27.3496 198.264 27.502 198.264 27.9004C198.064 28.2285 198.205 28.7031 198.686 29.3242C199.014 30.5781 199.588 31.2051 200.408 31.2051C200.596 31.3926 201.17 31.6211 202.131 31.8906C202.131 31.9844 202.26 32.0781 202.518 32.1719C203.139 32.1719 203.965 31.9785 204.996 31.5918C205.395 31.5918 205.775 31.2285 206.139 30.502C206.256 30.502 206.637 30.2734 207.281 29.8164C207.281 29.875 207.316 29.9043 207.387 29.9043V29.8164C207.316 29.8164 207.281 29.7812 207.281 29.7109L207.773 29.4297C207.773 29.5 207.803 29.5352 207.861 29.5352V29.3242H208.635C209.01 29.5352 209.197 29.8926 209.197 30.3965V30.6074C209.197 31.2285 208.723 31.7207 207.773 32.084C207.445 32.5176 207.123 32.8164 206.807 32.9805L206.613 32.8574V32.9805C206.684 32.9805 206.719 33.0098 206.719 33.0684C206.285 33.2559 205.488 33.4844 204.328 33.7539H204.047L203.854 33.666V33.8594H203.273C202.359 33.6484 201.182 33.543 199.74 33.543C199.4 33.1797 198.861 32.8281 198.123 32.4883C198.123 32.2891 197.643 31.627 196.682 30.502C196.26 29.8105 195.914 28.6328 195.645 26.9688V24.0156C195.914 22.6797 196.166 21.7598 196.4 21.2559C196.975 20.7051 197.355 20.1484 197.543 19.5859C199.172 18.2734 201.146 17.6172 203.467 17.6172ZM203.502 20.5703C203.162 20.5586 202.992 20.4883 202.992 20.3594C201.82 20.4883 201.111 20.6875 200.865 20.957C199.693 20.8867 198.85 21.6191 198.334 23.1543C197.924 24.5137 198.363 25.1289 199.652 25C199.781 24.9414 199.881 24.9121 199.951 24.9121C199.975 25.041 200.045 25.1113 200.162 25.123L200.461 25.1582C201.27 25.1934 201.674 25.1406 201.674 25C201.744 25 201.779 25.0352 201.779 25.1055L202.289 25.0352L202.799 25.0527L203.414 25.2109C203.871 25.0469 204.439 24.9414 205.119 24.8945C205.166 24.8125 205.74 24.6777 206.842 24.4902V24.3848C206.842 24.1973 206.812 24.1035 206.754 24.1035L207.281 23.8047L206.842 22.8203C206.713 22.0586 206.279 21.5723 205.541 21.3613V20.4824C205.119 20.2598 204.844 20.1484 204.715 20.1484C204.551 20.1367 204.176 20.2832 203.59 20.5879L203.502 20.5703Z" fill="black"/>
</g>
<defs>
<filter id="filter0_d_4_5" x="64.9941" y="11.3945" width="148.678" height="32.6445" filterUnits="userSpaceOnUse" color-interpolation-filters="sRGB">
<feFlood flood-opacity="0" result="BackgroundImageFix"/>
<feColorMatrix in="SourceAlpha" type="matrix" values="0 0 0 0 0 0 0 0 0 0 0 0 0 0 0 0 0 0 127 0" result="hardAlpha"/>
<feOffset dy="4"/>
<feGaussianBlur stdDeviation="2"/>
<feComposite in2="hardAlpha" operator="out"/>
<feColorMatrix type="matrix" values="0 0 0 0 0 0 0 0 0 0 0 0 0 0 0 0 0 0 0.25 0"/>
<feBlend mode="normal" in2="BackgroundImageFix" result="effect1_dropShadow_4_5"/>
<feBlend mode="normal" in="SourceGraphic" in2="effect1_dropShadow_4_5" result="shape"/>
</filter>
</defs>
</svg>
