<svg width="150" height="34" viewBox="0 0 150 34" fill="none" xmlns="http://www.w3.org/2000/svg">
<g filter="url(#filter0_d_1_2)">
<path d="M13.3965 0.482422C14.0879 0.740234 14.5332 0.869141 14.7324 0.869141H14.9258C15.1367 0.869141 15.582 0.804687 16.2617 0.675781C16.8242 0.804687 17.2051 0.869141 17.4043 0.869141V0.78125C17.6152 0.898438 18.2539 1.02148 19.3203 1.15039C20.5391 3.10742 21.3359 4.28516 21.7109 4.68359V4.87695L21.6055 5.84375C21.6758 6.5 21.7109 7.03906 21.7109 7.46094C21.582 7.77734 21.4238 8.38086 21.2363 9.27148C20.5918 10.0801 20.2695 10.6191 20.2695 10.8887C20.2695 11.0879 20.4277 11.375 20.7441 11.75L20.6562 11.9434H20.7441C20.7441 11.8848 20.7793 11.8555 20.8496 11.8555C21.0254 12.1719 21.2129 12.3301 21.4121 12.3301L21.3242 12.5234L21.5176 12.418C22.0918 12.8516 22.5664 13.5254 22.9414 14.4395C23.1289 14.4395 23.2871 14.5625 23.416 14.8086C23.416 14.8789 23.3867 14.9141 23.3281 14.9141L23.416 15.1074C23.0996 15.4004 22.9414 15.7168 22.9414 16.0566C22.9414 16.5488 22.9121 17.4395 22.8535 18.7285C22.3496 19.1387 21.9336 19.8066 21.6055 20.7324C20.9727 21.0488 20.6562 21.4297 20.6562 21.875V22.0684C20.8438 22.3027 20.9375 22.5254 20.9375 22.7363V23.123C20.9375 23.5098 20.7793 23.7031 20.4629 23.7031C19.7832 23.1289 19.209 22.8418 18.7402 22.8418H18.0723C17.252 23.0293 16.8066 23.123 16.7363 23.123C16.666 23.123 16.3145 23.0586 15.6816 22.9297H15.1191L14.9258 22.8418C14.9258 22.9473 14.5742 23.1055 13.8711 23.3164C13.8125 23.3164 13.625 23.1875 13.3086 22.9297C13.1211 22.9297 12.4824 22.9648 11.3926 23.0352L10.4434 22.7363H9.86328L8.7207 23.2109C8.2168 23.0234 7.60742 22.8652 6.89258 22.7363C6.89258 22.6074 6.32422 22.5137 5.1875 22.4551C5.12891 22.1973 5.06445 22.0684 4.99414 22.0684C5.08789 21.4941 5.24609 21.207 5.46875 21.207C5.90234 21.2773 6.25391 21.3125 6.52344 21.3125C7.22656 21.1133 7.57812 20.9844 7.57812 20.9258C7.82422 21.0547 8.16992 21.1191 8.61523 21.1191H8.80859C9.23047 21.1191 9.54688 20.7676 9.75781 20.0645H9.86328C9.86328 20.0059 9.82812 19.9766 9.75781 19.9766C10.4023 19.0391 10.7246 18.4941 10.7246 18.3418C10.7246 18.248 10.502 18.0605 10.0566 17.7793C9.79883 17.3105 9.66992 17.0527 9.66992 17.0059C9.98633 16.1621 10.1445 15.5879 10.1445 15.2832C10.1445 14.9199 9.92188 14.6973 9.47656 14.6152C9.16016 14.1934 9.00195 13.625 9.00195 12.9102C9.00195 12.7695 9.0957 12.4473 9.2832 11.9434C9.0957 10.748 9.00195 9.95117 9.00195 9.55273C9.00195 8.47461 9.19531 7.49023 9.58203 6.59961H9.47656C9.34766 6.59961 9.2832 6.57031 9.2832 6.51172L10.0566 5.07031C9.35352 3.99219 9.00195 3.29492 9.00195 2.97852C8.74414 2.84961 8.61523 2.7207 8.61523 2.5918H8.52734C8.52734 2.66211 8.49219 2.75586 8.42188 2.87305C7.8125 2.61523 7.36719 2.48633 7.08594 2.48633H6.99805C6.37695 2.61523 6.02539 2.67969 5.94336 2.67969V2.48633L6.04883 2.29297H5.85547V1.81836C5.85547 1.75977 5.82031 1.73047 5.75 1.73047C5.75 1.37891 6.38867 1.18555 7.66602 1.15039C7.68945 1.06836 7.97656 0.945312 8.52734 0.78125V0.675781H8.61523C8.88477 0.933594 9.14258 1.0625 9.38867 1.0625H9.95117C10.584 0.875 10.9355 0.78125 11.0059 0.78125C12.0371 0.839844 12.6113 0.869141 12.7285 0.869141L13.3965 0.482422ZM14.7324 3.1543C12.5645 3.1543 11.4805 3.31836 11.4805 3.64648C11.293 4.24414 11.1992 4.625 11.1992 4.78906V4.98242C11.1992 5.73242 11.4219 6.24219 11.8672 6.51172C12.1836 6.51172 12.377 6.98633 12.4473 7.93555C12.5293 8.06445 12.623 8.12891 12.7285 8.12891V8.41016C12.7285 9.26562 13.4902 9.93359 15.0137 10.4141H15.875C17.4688 9.94531 18.2656 9.59961 18.2656 9.37695C18.2891 9.24805 18.6055 8.96094 19.2148 8.51562C19.6602 8.15234 19.8828 7.29102 19.8828 5.93164C19.8242 5.80273 19.7949 5.70898 19.7949 5.65039C19.8535 5.65039 19.8828 5.61523 19.8828 5.54492C19.6484 5.54492 19.4258 5.32227 19.2148 4.87695C19.0859 4.77148 18.5762 4.67773 17.6855 4.5957C16.291 4.19727 15.5938 3.78125 15.5938 3.34766C15.6523 3.34766 15.6816 3.31836 15.6816 3.25977H15.5938C15.5938 3.31836 15.5586 3.34766 15.4883 3.34766C15.4883 3.30078 15.3945 3.20703 15.207 3.06641L14.7324 3.1543ZM11.1113 15.7754C11.4277 16.877 11.5859 17.5098 11.5859 17.6738C11.4336 17.6738 11.334 17.832 11.2871 18.1484C11.2871 19.7422 11.6094 20.5391 12.2539 20.5391L14.6445 20.9258L15.3125 20.7324C15.8516 20.8027 16.2617 20.8379 16.543 20.8379C16.8945 20.4629 18.043 19.918 19.9883 19.2031C20.3633 18.4414 20.6152 17.6797 20.7441 16.918L20.0762 14.5273C19.8887 14.4805 19.6367 14.0996 19.3203 13.3848C19.2031 13.3145 19.0742 13.2793 18.9336 13.2793H18.6523C18.582 13.2793 18.5469 13.3145 18.5469 13.3848C18.2773 13.3848 17.9902 13.0977 17.6855 12.5234C17.6035 12.4531 17.2578 12.3887 16.6484 12.3301C16.0625 12.459 15.7402 12.5234 15.6816 12.5234C15.5176 12.5234 14.7852 12.459 13.4844 12.3301C12.8633 12.3301 12.166 13.0625 11.3926 14.5273C11.2051 15.2188 11.1113 15.6348 11.1113 15.7754ZM24.2773 17.4805C24.4062 17.5039 24.4707 17.5684 24.4707 17.6738V17.8672L24.1016 17.9727L23.9961 17.7793C23.9961 17.6855 24.0898 17.5859 24.2773 17.4805ZM22.2734 21.875H22.4668C22.5957 21.8984 22.6602 21.9629 22.6602 22.0684L22.3789 22.2617L22.2734 22.0684V21.875ZM103.906 16.9355H104.293C104.891 16.9355 105.617 17.2871 106.473 17.9902C106.777 18.5996 106.93 19.0273 106.93 19.2734C106.93 19.3672 106.977 19.6426 107.07 20.0996C106.766 21.2598 106.438 21.8398 106.086 21.8398C105.887 21.8398 105.465 22.168 104.82 22.8242H104.592C103.713 22.6836 102.881 22.1797 102.096 21.3125C102.096 21.207 101.92 20.7793 101.568 20.0293C101.568 19.7949 101.516 19.4141 101.41 18.8867C101.41 18.2539 102.02 17.6562 103.238 17.0938C103.555 16.9883 103.777 16.9355 103.906 16.9355Z" fill="#BB004B"/>
<path d="M33.998 0.482422C34.6895 0.740234 35.1348 0.869141 35.334 0.869141H35.5273C35.7383 0.869141 36.1836 0.804687 36.8633 0.675781C37.4258 0.804687 37.8066 0.869141 38.0059 0.869141V0.78125C38.2168 0.898438 38.8555 1.02148 39.9219 1.15039C41.1406 3.10742 41.9375 4.28516 42.3125 4.68359V4.87695L42.207 5.84375C42.2773 6.5 42.3125 7.03906 42.3125 7.46094C42.1836 7.77734 42.0254 8.38086 41.8379 9.27148C41.1934 10.0801 40.8711 10.6191 40.8711 10.8887C40.8711 11.0879 41.0293 11.375 41.3457 11.75L41.2578 11.9434H41.3457C41.3457 11.8848 41.3809 11.8555 41.4512 11.8555C41.627 12.1719 41.8145 12.3301 42.0137 12.3301L41.9258 12.5234L42.1191 12.418C42.6934 12.8516 43.168 13.5254 43.543 14.4395C43.7305 14.4395 43.8887 14.5625 44.0176 14.8086C44.0176 14.8789 43.9883 14.9141 43.9297 14.9141L44.0176 15.1074C43.7012 15.4004 43.543 15.7168 43.543 16.0566C43.543 16.5488 43.5137 17.4395 43.4551 18.7285C42.9512 19.1387 42.5352 19.8066 42.207 20.7324C41.5742 21.0488 41.2578 21.4297 41.2578 21.875V22.0684C41.4453 22.3027 41.5391 22.5254 41.5391 22.7363V23.123C41.5391 23.5098 41.3809 23.7031 41.0645 23.7031C40.3848 23.1289 39.8105 22.8418 39.3418 22.8418H38.6738C37.8535 23.0293 37.4082 23.123 37.3379 23.123C37.2676 23.123 36.916 23.0586 36.2832 22.9297H35.7207L35.5273 22.8418C35.5273 22.9473 35.1758 23.1055 34.4727 23.3164C34.4141 23.3164 34.2266 23.1875 33.9102 22.9297C33.7227 22.9297 33.084 22.9648 31.9941 23.0352L31.0449 22.7363H30.4648L29.3223 23.2109C28.8184 23.0234 28.209 22.8652 27.4941 22.7363C27.4941 22.6074 26.9258 22.5137 25.7891 22.4551C25.7305 22.1973 25.666 22.0684 25.5957 22.0684C25.6895 21.4941 25.8477 21.207 26.0703 21.207C26.5039 21.2773 26.8555 21.3125 27.125 21.3125C27.8281 21.1133 28.1797 20.9844 28.1797 20.9258C28.4258 21.0547 28.7715 21.1191 29.2168 21.1191H29.4102C29.832 21.1191 30.1484 20.7676 30.3594 20.0645H30.4648C30.4648 20.0059 30.4297 19.9766 30.3594 19.9766C31.0039 19.0391 31.3262 18.4941 31.3262 18.3418C31.3262 18.248 31.1035 18.0605 30.6582 17.7793C30.4004 17.3105 30.2715 17.0527 30.2715 17.0059C30.5879 16.1621 30.7461 15.5879 30.7461 15.2832C30.7461 14.9199 30.5234 14.6973 30.0781 14.6152C29.7617 14.1934 29.6035 13.625 29.6035 12.9102C29.6035 12.7695 29.6973 12.4473 29.8848 11.9434C29.6973 10.748 29.6035 9.95117 29.6035 9.55273C29.6035 8.47461 29.7969 7.49023 30.1836 6.59961H30.0781C29.9492 6.59961 29.8848 6.57031 29.8848 6.51172L30.6582 5.07031C29.9551 3.99219 29.6035 3.29492 29.6035 2.97852C29.3457 2.84961 29.2168 2.7207 29.2168 2.5918H29.1289C29.1289 2.66211 29.0938 2.75586 29.0234 2.87305C28.4141 2.61523 27.9688 2.48633 27.6875 2.48633H27.5996C26.9785 2.61523 26.627 2.67969 26.5449 2.67969V2.48633L26.6504 2.29297H26.457V1.81836C26.457 1.75977 26.4219 1.73047 26.3516 1.73047C26.3516 1.37891 26.9902 1.18555 28.2676 1.15039C28.291 1.06836 28.5781 0.945312 29.1289 0.78125V0.675781H29.2168C29.4863 0.933594 29.7441 1.0625 29.9902 1.0625H30.5527C31.1855 0.875 31.5371 0.78125 31.6074 0.78125C32.6387 0.839844 33.2129 0.869141 33.3301 0.869141L33.998 0.482422ZM35.334 3.1543C33.166 3.1543 32.082 3.31836 32.082 3.64648C31.8945 4.24414 31.8008 4.625 31.8008 4.78906V4.98242C31.8008 5.73242 32.0234 6.24219 32.4688 6.51172C32.7852 6.51172 32.9785 6.98633 33.0488 7.93555C33.1309 8.06445 33.2246 8.12891 33.3301 8.12891V8.41016C33.3301 9.26562 34.0918 9.93359 35.6152 10.4141H36.4766C38.0703 9.94531 38.8672 9.59961 38.8672 9.37695C38.8906 9.24805 39.207 8.96094 39.8164 8.51562C40.2617 8.15234 40.4844 7.29102 40.4844 5.93164C40.4258 5.80273 40.3965 5.70898 40.3965 5.65039C40.4551 5.65039 40.4844 5.61523 40.4844 5.54492C40.25 5.54492 40.0273 5.32227 39.8164 4.87695C39.6875 4.77148 39.1777 4.67773 38.2871 4.5957C36.8926 4.19727 36.1953 3.78125 36.1953 3.34766C36.2539 3.34766 36.2832 3.31836 36.2832 3.25977H36.1953C36.1953 3.31836 36.1602 3.34766 36.0898 3.34766C36.0898 3.30078 35.9961 3.20703 35.8086 3.06641L35.334 3.1543ZM31.7129 15.7754C32.0293 16.877 32.1875 17.5098 32.1875 17.6738C32.0352 17.6738 31.9355 17.832 31.8887 18.1484C31.8887 19.7422 32.2109 20.5391 32.8555 20.5391L35.2461 20.9258L35.9141 20.7324C36.4531 20.8027 36.8633 20.8379 37.1445 20.8379C37.4961 20.4629 38.6445 19.918 40.5898 19.2031C40.9648 18.4414 41.2168 17.6797 41.3457 16.918L40.6777 14.5273C40.4902 14.4805 40.2383 14.0996 39.9219 13.3848C39.8047 13.3145 39.6758 13.2793 39.5352 13.2793H39.2539C39.1836 13.2793 39.1484 13.3145 39.1484 13.3848C38.8789 13.3848 38.5918 13.0977 38.2871 12.5234C38.2051 12.4531 37.8594 12.3887 37.25 12.3301C36.6641 12.459 36.3418 12.5234 36.2832 12.5234C36.1191 12.5234 35.3867 12.459 34.0859 12.3301C33.4648 12.3301 32.7676 13.0625 31.9941 14.5273C31.8066 15.2188 31.7129 15.6348 31.7129 15.7754ZM44.8789 17.4805C45.0078 17.5039 45.0723 17.5684 45.0723 17.6738V17.8672L44.7031 17.9727L44.5977 17.7793C44.5977 17.6855 44.6914 17.5859 44.8789 17.4805ZM42.875 21.875H43.0684C43.1973 21.8984 43.2617 21.9629 43.2617 22.0684L42.9805 22.2617L42.875 22.0684V21.875ZM53.6152 0.394531C54.4473 0.394531 55.373 0.910156 56.3926 1.94141V2.04688C56.2285 2.28125 56.0703 2.92578 55.918 3.98047C55.5312 4.76563 55.0508 5.1582 54.4766 5.1582C54.4766 5.29883 53.9668 5.39258 52.9473 5.43945C51.9277 5.05273 51.418 4.24414 51.418 3.01367C51.7344 1.26758 52.4668 0.394531 53.6152 0.394531ZM51.998 6.51172C53.7793 6.51172 54.6699 7.0332 54.6699 8.07617L54.7578 8.26953L54.6699 9.23633C54.8574 9.81055 54.9512 10.291 54.9512 10.6777V14.457C54.9512 15.3008 54.9863 16.1738 55.0566 17.0762C54.9863 17.3691 54.9512 17.8906 54.9512 18.6406C54.9512 19.8594 55.3027 20.4688 56.0059 20.4688C56.498 20.5391 57.0371 20.5742 57.623 20.5742H57.7285C57.8574 20.5742 58.1738 20.5098 58.6777 20.3809C59.5684 20.5449 60.0137 20.7031 60.0137 20.8555L60.207 20.75C60.5703 21.0781 60.8574 21.3711 61.0684 21.6289C60.916 22.2852 60.7227 22.7363 60.4883 22.9824C57.9688 22.8652 56.4453 22.707 55.918 22.5078C55.3555 22.5781 55.0039 22.6133 54.8633 22.6133C54.6523 22.4844 54.459 22.4199 54.2832 22.4199H53.1406C52.4492 22.4199 51.5586 22.6426 50.4688 23.0879C50.1406 22.9004 49.8242 22.8066 49.5195 22.8066H48.9395C48.3066 22.8184 47.9902 22.877 47.9902 22.9824C46.7129 22.6895 46.0742 22.209 46.0742 21.541C46.0742 20.6387 47.0293 20.1875 48.9395 20.1875C49.1621 20.2461 49.4785 20.2754 49.8887 20.2754L50.5566 19.9941L51.1367 20.082H51.2246C52.1152 20.082 52.5605 19.1738 52.5605 17.3574C52.6426 17.3574 52.707 17.1699 52.7539 16.7949L52.5605 15.916C52.5605 15.8457 52.5957 15.7461 52.666 15.6172C52.666 15.5703 52.6309 15.377 52.5605 15.0371C52.6309 14.2285 52.666 13.7422 52.666 13.5781L52.5605 12.9102C52.7598 12.3594 52.8594 11.9727 52.8594 11.75V11.1699C52.8594 9.88086 52.4785 9.23633 51.7168 9.23633C51.5996 9.1543 51.4707 9.11328 51.3301 9.11328L50.3809 9.32422L49.6953 9.23633C48.8867 9.29492 48.4414 9.35938 48.3594 9.42969C47.9141 9.23047 47.6914 8.9375 47.6914 8.55078C47.8203 8.02344 47.9492 7.66602 48.0781 7.47852H47.9902C47.9902 7.17383 48.5293 6.98047 49.6074 6.89844C49.6074 6.80469 49.8301 6.70508 50.2754 6.59961C50.3691 6.59961 50.6562 6.66406 51.1367 6.79297L51.998 6.51172ZM58.0273 8.04102H58.5195C58.5195 8.20508 58.6016 8.28711 58.7656 8.28711V8.90234H58.2734C58.0742 8.90234 57.9512 8.73828 57.9043 8.41016C57.9863 8.24609 58.0273 8.12305 58.0273 8.04102ZM58.8711 24.6523C59 24.7109 59.0938 24.7402 59.1523 24.7402V24.8457C59.1523 24.9746 59.0938 25.0391 58.9766 25.0391H58.6777C58.5488 25.0391 58.4844 24.9746 58.4844 24.8457L58.8711 24.6523ZM74.1113 6.47656C74.5098 6.60547 75.1777 6.70508 76.1152 6.77539C76.9473 7.26758 77.3633 7.90039 77.3633 8.67383C77.457 8.67383 77.7441 9.21875 78.2246 10.3086C78.4121 10.3672 78.5059 10.5547 78.5059 10.8711C78.5059 10.9883 78.3828 11.2754 78.1367 11.7324C78.2539 12.3066 78.4121 12.5938 78.6113 12.5938V12.875C78.2949 13.5547 78.1367 14.3867 78.1367 15.3711C78.1367 16.168 78.1016 17.1523 78.0312 18.3242L78.2246 18.4297H78.5059L78.2246 19.0273C78.5059 19.0273 78.7285 19.2207 78.8926 19.6074C79.4082 19.4902 79.666 19.5078 79.666 19.6602C79.666 19.8477 80.1699 20.2637 81.1777 20.9082C81.623 21.3066 81.8457 21.5293 81.8457 21.5762V21.6641C81.3652 22.3672 80.6387 22.7188 79.666 22.7188C79.666 22.7891 79.6309 22.8242 79.5605 22.8242C79.2207 22.7539 78.9336 22.7188 78.6992 22.7188L78.2246 22.8242C77.791 22.4961 77.4746 22.332 77.2754 22.332H76.8008C76.7539 22.332 76.5605 22.5254 76.2207 22.9121L75.166 22.5254L74.6914 22.6309C74.2578 22.4316 73.9062 22.332 73.6367 22.332H73.3555C73.2852 22.332 73.25 22.3672 73.25 22.4375C73.0508 22.3086 72.8926 22.2441 72.7754 22.2441V22.0508C72.7754 20.9023 73.0625 20.3281 73.6367 20.3281C73.8945 20.0352 74.3398 19.7832 74.9727 19.5723C75.6172 18.8809 75.9395 17.9551 75.9395 16.7949C75.9395 16.1035 75.998 15.4062 76.1152 14.7031C76.1152 14.1172 75.8633 13.4141 75.3594 12.5938C75.4883 12.1953 75.5527 11.9434 75.5527 11.8379C75.3418 11.041 75.1191 10.373 74.8848 9.83398C74.6504 9.83398 74.2344 9.61133 73.6367 9.16602C73.5664 9.16602 73.4727 9.13086 73.3555 9.06055C72.5703 9.69336 71.9023 10.1094 71.3516 10.3086C70.332 11.2109 69.8223 11.8438 69.8223 12.207C69.8223 12.6758 69.5645 13.0273 69.0488 13.2617L68.873 13.1738L68.9609 13.3672C68.5156 13.9648 68.293 14.6328 68.293 15.3711V15.6523L68.3809 16.3203H68.293L68.5742 17.0938C68.6797 17.0234 68.4395 17.0234 67.8535 17.0938V16.5312C67.8535 16.4375 67.9531 16.3379 68.1523 16.2324C68.2461 16.2324 68.3691 16.3613 68.5215 16.6191V17.2871C68.6504 17.7441 68.7148 17.9961 68.7148 18.043C68.5859 18.4648 68.5215 18.752 68.5215 18.9043C69.3184 19.4785 70.1973 20.0176 71.1582 20.5215L71.4395 20.9961C71.2285 22.0156 70.8477 22.5254 70.2969 22.5254L69.6289 22.4375C69.125 22.6953 68.7734 22.8242 68.5742 22.8242C67.8477 22.5664 67.373 22.4375 67.1504 22.4375C66.0254 22.5547 65.3574 22.6836 65.1465 22.8242C63.9277 22.8242 63.1602 22.502 62.8438 21.8574V21.5762C62.8438 21.4004 63.1309 20.7969 63.7051 19.7656C64.3262 19.8945 64.6777 19.959 64.7598 19.959C65.2754 19.7363 65.6562 19.4141 65.9023 18.9922V18.2363C65.9023 18.166 65.873 18.1309 65.8145 18.1309C66.002 17.3105 66.0957 16.7422 66.0957 16.4258V13.0684C66.0957 12.9277 66.0664 12.8047 66.0078 12.6992C66.125 12.3242 66.2188 11.9082 66.2891 11.4512L66.0957 10.5898L66.377 9.44727C66.2129 9.02539 66.0254 8.76758 65.8145 8.67383H65.709C65.4043 8.67383 65.1523 8.83789 64.9531 9.16602C64.8359 9.22461 64.707 9.25391 64.5664 9.25391C63.3711 8.66797 62.7676 8.28711 62.7559 8.11133V7.72461C62.7559 7.30273 63.4238 7.05078 64.7598 6.96875C65.2402 7.02734 65.5566 7.08594 65.709 7.14453C65.7324 7.02734 65.7969 6.96875 65.9023 6.96875H66.0078C67.2734 7.21484 67.9062 7.625 67.9062 8.19922C68.1172 8.96094 68.3398 9.3418 68.5742 9.3418L69.2422 9.06055C69.2422 9.13086 69.2773 9.16602 69.3477 9.16602V9.06055C69.2773 9.06055 69.2422 9.03125 69.2422 8.97266C69.3477 8.97266 69.7637 8.5918 70.4902 7.83008C71.7793 7.05664 72.4766 6.66992 72.582 6.66992C73.0508 6.66992 73.5605 6.60547 74.1113 6.47656ZM85.4492 9.57031H85.5371C85.7363 9.62891 85.8359 9.81641 85.8359 10.1328V10.3262C85.8359 10.4082 85.6719 10.5664 85.3438 10.8008L85.1504 10.7129C85.2207 9.95117 85.3203 9.57031 85.4492 9.57031ZM80.7559 16.6367C81.0137 16.7305 81.1426 16.8242 81.1426 16.918C81.084 17.1055 80.8906 17.1992 80.5625 17.1992C80.4453 17.1992 80.3867 17.1348 80.3867 17.0059V16.918C80.3867 16.8242 80.5098 16.7305 80.7559 16.6367ZM89.3164 6.66992L90.1777 6.77539C90.9629 6.70508 91.373 6.66992 91.4082 6.66992C93.0957 6.98633 94.3086 7.44336 95.0469 8.04102C94.9883 8.04102 94.959 8.07617 94.959 8.14648C95.0176 8.14648 95.0469 8.11133 95.0469 8.04102L95.5215 8.14648C95.6152 8.14648 95.8379 7.91797 96.1895 7.46094L96.7695 7.35547C97.2734 7.39062 97.5254 7.6543 97.5254 8.14648L97.332 8.91992C97.4023 9.49414 97.4375 9.98633 97.4375 10.3965L97.2441 11.082C97.3027 11.7383 97.332 12.2598 97.332 12.6465C97.0391 12.8926 96.5293 13.0156 95.8027 13.0156C95.5684 12.2305 95.3457 11.6797 95.1348 11.3633C95.2051 11.3633 95.2402 11.334 95.2402 11.2754H95.1348C95.1348 11.334 95.1055 11.3633 95.0469 11.3633C94.5781 10.2617 93.7168 9.71094 92.4629 9.71094V9.60547L92.7617 9.11328V8.72656H92.5684L91.9883 8.83203C91.5547 8.62109 91.3027 8.51562 91.2324 8.51562C90.084 9.04297 89.4746 9.30664 89.4043 9.30664L87.875 9.02539C87.2422 9.38867 86.9258 10.2617 86.9258 11.6445C86.9258 12.1602 87.4355 12.5879 88.4551 12.9277C88.4551 12.9863 88.5488 13.0508 88.7363 13.1211C89.0879 13.0508 89.375 13.0156 89.5977 13.0156C89.5977 13.1094 89.6973 13.209 89.8965 13.3145H90.3711C90.6523 13.0566 90.8105 12.9277 90.8457 12.9277H91.127C91.4199 13.3848 92.123 13.6133 93.2363 13.6133C93.3887 13.6133 93.6406 13.584 93.9922 13.5254C94.4727 13.8301 94.7949 14.0586 94.959 14.2109C95.709 14.2109 96.2129 14.4629 96.4707 14.9668C97.6191 15.7637 98.1934 16.8418 98.1934 18.2012V18.5879C98.1934 18.7168 98.0352 19.2383 97.7188 20.1523C97.7188 20.6445 97.1797 21.1309 96.1016 21.6113C95.7969 21.9512 95.3516 22.1211 94.7656 22.1211C94.7656 22.25 94.0977 22.4375 92.7617 22.6836C92.668 22.9648 92.5039 23.1641 92.2695 23.2812H92.0938C91.7539 23.2812 91.2441 23.082 90.5645 22.6836C90.3066 22.5547 90.084 22.4902 89.8965 22.4902C89.7324 22.4902 89.4746 22.6191 89.123 22.877C88.7832 22.6895 88.209 22.5312 87.4004 22.4023C87.3652 22.2148 87.1133 22.1211 86.6445 22.1211H86.4512C85.9707 22.707 85.7129 23 85.6777 23C84.7285 22.8594 84.2539 22.5957 84.2539 22.209C84.125 21.7871 84.0605 21.4941 84.0605 21.3301L84.3418 20.3457V19.7656C84.3418 19.1094 84.248 18.6875 84.0605 18.5L84.166 17.9902V16.7422C84.166 16.2852 84.418 16.0566 84.9219 16.0566C85.625 16.0566 86.3867 17.1934 87.207 19.4668C88.8008 20.5684 89.8848 21.1191 90.459 21.1191C90.6699 21.1191 90.8281 21.0898 90.9336 21.0312C91.2852 21.0898 91.5723 21.1191 91.7949 21.1191C92.4629 21.1191 93.2305 20.8613 94.0977 20.3457C94.5547 20.3457 94.9648 20.0234 95.3281 19.3789C95.7148 19.2383 95.9082 18.9746 95.9082 18.5879V17.709C95.9082 17.334 95.6855 17.041 95.2402 16.8301H94.7656L94.3789 17.1289L94.1855 17.0234V17.1289C94.2441 17.1289 94.2734 17.1582 94.2734 17.2168H94.0977C93.9922 17.2168 93.8633 16.8945 93.7109 16.25H93.3242C93.2656 16.25 93.0137 16.3145 92.5684 16.4434H92.4629C91.8418 16.3613 91.2383 15.9688 90.6523 15.2656H90.459C90.0957 15.6992 89.8086 15.9277 89.5977 15.9512C89.2695 15.9395 88.7598 15.6816 88.0684 15.1777C87.3066 15.1777 86.9258 14.9785 86.9258 14.5801C85.7188 13.9355 85.1152 13.4492 85.1152 13.1211C85.1152 12.8984 85.0215 12.6055 84.834 12.2422C84.8926 12.2422 84.9219 12.207 84.9219 12.1367C84.7695 12.1367 84.6758 11.9082 84.6406 11.4512C84.6406 9.70508 84.8926 8.83203 85.3965 8.83203C85.8652 7.91797 86.5039 7.46094 87.3125 7.46094C87.6406 7.29688 88.2793 7.06836 89.2285 6.77539C89.2285 6.70508 89.2578 6.66992 89.3164 6.66992ZM94.6602 11.9609H94.959V12.1367C94.959 12.2656 94.8945 12.3301 94.7656 12.3301H94.6602C94.5312 12.3301 94.4668 12.2656 94.4668 12.1367C94.4902 12.0195 94.5547 11.9609 94.6602 11.9609Z" fill="#FC6D6D"/>
<path d="M117.371 6.56445C118.73 6.56445 119.557 6.82227 119.85 7.33789C120.236 7.72461 120.559 7.91797 120.816 7.91797L123.488 6.56445C125.457 6.72852 126.441 7.05078 126.441 7.53125C127.145 8.10547 127.496 8.62109 127.496 9.07812C127.496 9.39453 127.525 9.55273 127.584 9.55273L127.496 9.74609V10.4316C127.496 10.8887 127.561 11.2461 127.689 11.5039C127.561 11.9375 127.496 12.3242 127.496 12.6641C127.625 13.2852 127.689 13.6426 127.689 13.7363V14.4922C127.689 14.7734 127.531 15.7109 127.215 17.3047V17.3926C127.215 19.209 127.959 20.1172 129.447 20.1172L129.553 20.6094L129.939 21.084V21.4707C129.939 22.1855 129.219 22.6016 127.777 22.7188C127.777 22.6367 127.619 22.4785 127.303 22.2441H126.916C126.787 22.2441 126.406 22.4375 125.773 22.8242C125.352 23.0234 125.064 23.123 124.912 23.123C124.584 23.123 124.332 22.8594 124.156 22.332C124.086 22.332 123.986 22.3027 123.857 22.2441C123.424 22.502 123.172 22.6309 123.102 22.6309C122.715 22.5605 122.521 22.4609 122.521 22.332C122.592 22.332 122.627 22.3027 122.627 22.2441C120.717 22.5605 119.697 22.7188 119.568 22.7188C119.018 22.4609 118.701 22.332 118.619 22.332C118.291 22.332 118.127 22.3965 118.127 22.5254C117.939 22.5254 117.752 22.3379 117.564 21.9629C117.623 20.8613 117.752 20.3105 117.951 20.3105C117.951 20.3809 117.98 20.416 118.039 20.416V20.3105H117.951C118.455 19.373 118.707 18.7578 118.707 18.4648L118.619 18.2715C118.865 17.0059 118.988 16.2617 118.988 16.0391C118.988 15.6641 118.865 14.8262 118.619 13.5254C118.619 13.4082 118.678 13.2148 118.795 12.9453C118.795 10.5312 118.385 9.24219 117.564 9.07812C117.564 9.00781 117.529 8.97266 117.459 8.97266C117.459 9.06641 117.172 9.28906 116.598 9.64062L116.035 10.7129C116.035 11.1699 115.842 11.3984 115.455 11.3984C114.963 11.3984 114.611 11.9492 114.4 13.0508C114.4 13.5312 114.307 14.0469 114.119 14.5977V14.8789C114.295 15.1836 114.453 15.7344 114.594 16.5312C114.594 16.6133 114.529 17.6152 114.4 19.5371C114.6 19.5957 114.699 19.6602 114.699 19.7305C115.156 19.5312 115.443 19.4316 115.561 19.4316C115.807 19.502 115.93 19.6602 115.93 19.9062L115.842 20.7852C115.971 21.2539 116.035 21.6113 116.035 21.8574C115.648 22.584 115.455 23.0352 115.455 23.2109L115.086 23.3867C114.758 23.0117 114.471 22.8242 114.225 22.8242C113.428 22.7422 112.818 22.6074 112.396 22.4199L111.834 22.5078C111.471 22.5078 111.09 22.2266 110.691 21.6641L110.41 20.8906C110.855 20.4219 111.459 19.9707 112.221 19.5371V17.3047C112.221 16.9297 112.186 16.4141 112.115 15.7578C112.244 15.5234 112.309 15.2598 112.309 14.9668V11.1172C112.309 9.35938 111.928 8.48047 111.166 8.48047V8.39258L110.973 8.48047C110.656 8.35156 110.498 8.12891 110.498 7.8125C110.498 7.16797 111.295 6.8457 112.889 6.8457C113.123 6.8457 113.662 7.20312 114.506 7.91797C114.506 7.51953 115.332 7.12695 116.984 6.74023C117.242 6.66992 117.371 6.61133 117.371 6.56445ZM121.379 12.2598C121.379 12.3301 121.414 12.3652 121.484 12.3652L121.186 13.0508C121.256 14.3047 121.291 15.1426 121.291 15.5645C121.221 16.1387 121.186 16.4961 121.186 16.6367L121.379 17.498C121.438 17.6152 121.467 17.7441 121.467 17.8848C121.467 18.0371 121.438 18.166 121.379 18.2715L121.66 18.957C121.531 19.2148 121.467 19.4375 121.467 19.625C122.264 20.2109 122.838 20.5039 123.189 20.5039C123.271 20.5039 123.559 20.2109 124.051 19.625C124.449 19.625 124.801 18.916 125.105 17.498C125.105 17.2285 125.17 16.8418 125.299 16.3379C125.193 15.4238 125.1 14.9668 125.018 14.9668C125.205 14.5566 125.328 13.4023 125.387 11.5039C125.387 10.2969 124.977 9.58203 124.156 9.35938C123.43 9.35938 122.984 9.55859 122.82 9.95703C122.82 10.0508 122.562 10.2734 122.047 10.625C122.047 10.8242 121.824 11.3047 121.379 12.0664V12.2598ZM139.467 6.61719C139.689 6.80469 140.264 6.93945 141.189 7.02148C141.705 7.37305 142.086 7.73047 142.332 8.09375C142.273 8.09375 142.244 8.12891 142.244 8.19922C142.361 8.12891 142.455 8.09375 142.525 8.09375C142.865 8.19922 143.281 8.55664 143.773 9.16602C145.039 9.88086 145.672 11.4922 145.672 14C145.672 14.6445 145.133 15.1367 144.055 15.4766L143.58 15.3887C142.795 15.3887 142.092 15.6172 141.471 16.0742C141.025 16.0742 140.773 16.1035 140.715 16.1621C140.457 16.0332 140.234 15.9688 140.047 15.9688L139.379 16.3555C138.957 16.2266 138.67 16.1621 138.518 16.1621C138.377 16.1621 138.025 16.1973 137.463 16.2676C136.795 15.9512 136.191 15.7812 135.652 15.7578C135.008 15.8984 134.686 16.127 134.686 16.4434C134.404 16.3496 134.264 16.502 134.264 16.9004C134.064 17.2285 134.205 17.7031 134.686 18.3242C135.014 19.5781 135.588 20.2051 136.408 20.2051C136.596 20.3926 137.17 20.6211 138.131 20.8906C138.131 20.9844 138.26 21.0781 138.518 21.1719C139.139 21.1719 139.965 20.9785 140.996 20.5918C141.395 20.5918 141.775 20.2285 142.139 19.502C142.256 19.502 142.637 19.2734 143.281 18.8164C143.281 18.875 143.316 18.9043 143.387 18.9043V18.8164C143.316 18.8164 143.281 18.7812 143.281 18.7109L143.773 18.4297C143.773 18.5 143.803 18.5352 143.861 18.5352V18.3242H144.635C145.01 18.5352 145.197 18.8926 145.197 19.3965V19.6074C145.197 20.2285 144.723 20.7207 143.773 21.084C143.445 21.5176 143.123 21.8164 142.807 21.9805L142.613 21.8574V21.9805C142.684 21.9805 142.719 22.0098 142.719 22.0684C142.285 22.2559 141.488 22.4844 140.328 22.7539H140.047L139.854 22.666V22.8594H139.273C138.359 22.6484 137.182 22.543 135.74 22.543C135.4 22.1797 134.861 21.8281 134.123 21.4883C134.123 21.2891 133.643 20.627 132.682 19.502C132.26 18.8105 131.914 17.6328 131.645 15.9688V13.0156C131.914 11.6797 132.166 10.7598 132.4 10.2559C132.975 9.70508 133.355 9.14844 133.543 8.58594C135.172 7.27344 137.146 6.61719 139.467 6.61719ZM139.502 9.57031C139.162 9.55859 138.992 9.48828 138.992 9.35938C137.82 9.48828 137.111 9.6875 136.865 9.95703C135.693 9.88672 134.85 10.6191 134.334 12.1543C133.924 13.5137 134.363 14.1289 135.652 14C135.781 13.9414 135.881 13.9121 135.951 13.9121C135.975 14.041 136.045 14.1113 136.162 14.123L136.461 14.1582C137.27 14.1934 137.674 14.1406 137.674 14C137.744 14 137.779 14.0352 137.779 14.1055L138.289 14.0352L138.799 14.0527L139.414 14.2109C139.871 14.0469 140.439 13.9414 141.119 13.8945C141.166 13.8125 141.74 13.6777 142.842 13.4902V13.3848C142.842 13.1973 142.812 13.1035 142.754 13.1035L143.281 12.8047L142.842 11.8203C142.713 11.0586 142.279 10.5723 141.541 10.3613V9.48242C141.119 9.25977 140.844 9.14844 140.715 9.14844C140.551 9.13672 140.176 9.2832 139.59 9.58789L139.502 9.57031Z" fill="black"/>
</g>
<defs>
<filter id="filter0_d_1_2" x="0.994141" y="0.394531" width="148.678" height="32.6445" filterUnits="userSpaceOnUse" color-interpolation-filters="sRGB">
<feFlood flood-opacity="0" result="BackgroundImageFix"/>
<feColorMatrix in="SourceAlpha" type="matrix" values="0 0 0 0 0 0 0 0 0 0 0 0 0 0 0 0 0 0 127 0" result="hardAlpha"/>
<feOffset dy="4"/>
<feGaussianBlur stdDeviation="2"/>
<feComposite in2="hardAlpha" operator="out"/>
<feColorMatrix type="matrix" values="0 0 0 0 0 0 0 0 0 0 0 0 0 0 0 0 0 0 0.25 0"/>
<feBlend mode="normal" in2="BackgroundImageFix" result="effect1_dropShadow_1_2"/>
<feBlend mode="normal" in="SourceGraphic" in2="effect1_dropShadow_1_2" result="shape"/>
</filter>
</defs>
</svg>
