<?xml version="1.0" standalone="no"?>
<!DOCTYPE svg PUBLIC "-//W3C//DTD SVG 20010904//EN"
 "http://www.w3.org/TR/2001/REC-SVG-20010904/DTD/svg10.dtd">
<svg version="1.0" xmlns="http://www.w3.org/2000/svg"
 width="70.000000pt" height="60.000000pt" viewBox="0 0 500.000000 500.000000"
 preserveAspectRatio="xMidYMid meet">
<metadata>
Created by potrace 1.16, written by Peter Selinger 2001-2019
</metadata>
<g transform="translate(0.000000,800.000000) scale(0.1000,-0.1000)"
fill="#000000" stroke="none">
<path d="M2270 6693 c-137 -8 -445 -36 -545 -49 -394 -53 -578 -120 -625 -227
-29 -67 -97 -548 -119 -841 -6 -70 -11 -130 -13 -131 -2 -2 -50 -15 -108 -30
-279 -69 -655 -210 -767 -286 -158 -109 -85 -278 179 -415 259 -134 604 -205
1253 -259 325 -26 598 -35 1108 -35 621 0 954 15 1357 61 96 11 213 24 260 29
241 26 552 110 717 194 152 77 245 161 269 242 20 70 8 108 -49 161 -87 80
-446 220 -790 308 -123 32 -113 18 -122 170 -7 118 -58 532 -86 694 -24 143
-46 185 -119 229 -141 84 -508 148 -1040 182 -149 9 -621 11 -760 3z"/>
<path d="M1220 4261 c-67 -15 -130 -61 -159 -118 -17 -33 -14 -332 4 -439 29
-167 102 -267 255 -351 117 -64 216 -90 408 -109 240 -23 385 -8 503 51 79 41
180 195 270 414 49 118 77 146 138 137 51 -8 74 -38 131 -170 106 -248 194
-363 310 -404 113 -40 238 -48 445 -28 204 19 313 49 425 116 195 115 248 228
257 556 6 197 1 224 -58 283 -60 60 -88 66 -289 64 -173 -2 -319 -13 -720 -54
-113 -11 -311 -23 -440 -26 -244 -5 -233 -6 -895 56 -239 23 -533 34 -585 22z"/>
</g>
</svg>