<?xml version="1.0" encoding="UTF-8" standalone="no" ?>
<!DOCTYPE svg PUBLIC "-//W3C//DTD SVG 1.1//EN" "http://www.w3.org/Graphics/SVG/1.1/DTD/svg11.dtd">
<svg xmlns="http://www.w3.org/2000/svg" xmlns:xlink="http://www.w3.org/1999/xlink" version="1.1" width="1080" height="1080" viewBox="0 0 1080 1080" xml:space="preserve">
<desc>Created with Fabric.js 4.2.0</desc>
<defs>
</defs>
<g transform="matrix(0 0 0 0 0 0)" id="bf50187f-929f-4fed-b533-5504d1e5c957"  >
</g>
<g transform="matrix(1 0 0 1 540 540)" id="34f264a3-64b3-4178-9bd6-68a26b04bc41"  >
<rect style="stroke: none; stroke-width: 1; stroke-dasharray: none; stroke-linecap: butt; stroke-dashoffset: 0; stroke-linejoin: miter; stroke-miterlimit: 4; fill: rgb(255,255,255); fill-opacity: 0; fill-rule: nonzero; opacity: 1;" vector-effect="non-scaling-stroke"  x="-540" y="-540" rx="0" ry="0" width="1080" height="1080" />
</g>
<g transform="matrix(4.59 0 0 4.59 540 540)"  >
<g style="" vector-effect="non-scaling-stroke"   >
		<g transform="matrix(0.02 0 0 -0.02 0 -10.55)"  >
<path style="stroke: none; stroke-width: 1; stroke-dasharray: none; stroke-linecap: butt; stroke-dashoffset: 0; stroke-linejoin: miter; stroke-miterlimit: 4; fill: rgb(0,0,0); fill-rule: nonzero; opacity: 1;" vector-effect="non-scaling-stroke"  transform=" translate(-2627.64, -5559.01)" d="M 2270 6693 C 2133 6685 1825 6657 1725 6644 C 1331 6591 1147 6524 1100 6417 C 1071 6350 1003 5869 981 5576 C 975 5506 970 5446 968 5445 C 966 5443 918 5430 860 5415 C 581 5346 205 5205 93 5129 C -65 5020 8 4851 272 4714 C 531 4580 876 4509 1525 4455 C 1850 4429 2123 4420 2633 4420 C 3254 4420 3587 4435 3990 4481 C 4086 4492 4203 4505 4250 4510 C 4491 4536 4802 4620 4967 4704 C 5119 4781 5212 4865 5236 4946 C 5256 5016 5244 5054 5187 5107 C 5100 5187 4741 5327 4397 5415 C 4274 5447 4284 5433 4275 5585 C 4268 5703 4217 6117 4189 6279 C 4165 6422 4143 6464 4070 6508 C 3929 6592 3562 6656 3030 6690 C 2881 6699 2409 6701 2270 6693 z" stroke-linecap="round" />
</g>
		<g transform="matrix(0.02 0 0 -0.02 0.03 21.62)"  >
<path style="stroke: none; stroke-width: 1; stroke-dasharray: none; stroke-linecap: butt; stroke-dashoffset: 0; stroke-linejoin: miter; stroke-miterlimit: 4; fill: rgb(0,0,0); fill-rule: nonzero; opacity: 1;" vector-effect="non-scaling-stroke"  transform=" translate(-2629.34, -3749.69)" d="M 1220 4261 C 1153 4246 1090 4200 1061 4143 C 1044 4110 1047 3811 1065 3704 C 1094 3537 1167 3437 1320 3353 C 1437 3289 1536 3263 1728 3244 C 1968 3221 2113 3236 2231 3295 C 2310 3336 2411 3490 2501 3709 C 2550 3827 2578 3855 2639 3846 C 2690 3838 2713 3808 2770 3676 C 2876 3428 2964 3313 3080 3272 C 3193 3232 3318 3224 3525 3244 C 3729 3263 3838 3293 3950 3360 C 4145 3475 4198 3588 4207 3916 C 4213 4113 4208 4140 4149 4199 C 4089 4259 4061 4265 3860 4263 C 3687 4261 3541 4250 3140 4209 C 3027 4198 2829 4186 2700 4183 C 2456 4178 2467 4177 1805 4239 C 1566 4262 1272 4273 1220 4261 z" stroke-linecap="round" />
</g>
</g>
</g>
</svg>